<?xml version="1.0" encoding="utf-8"?>
<!-- Generator: Adobe Illustrator 19.2.0, SVG Export Plug-In . SVG Version: 6.00 Build 0)  -->
<svg version="1.1" id="arrowinside" xmlns="http://www.w3.org/2000/svg" xmlns:xlink="http://www.w3.org/1999/xlink" x="0px"
	 y="0px" viewBox="0 0 184 196" enable-background="new 0 0 184 196" xml:space="preserve">
<g>
	<path fill="#535353" d="M180,32h-44c-2.209,0-4,1.7891-4,4s1.791,4,4,4h40v148H8V40h40c2.209,0,4-1.7891,4-4s-1.791-4-4-4H4
		c-2.209,0-4,1.7891-4,4v156c0,2.2109,1.791,4,4,4h176c2.209,0,4-1.7891,4-4V36C184,33.7891,182.209,32,180,32z"/>
	<path fill="#535353" d="M88,106.6289l-21.457-21.457c-1.5625-1.5625-4.0938-1.5625-5.6562,0s-1.5625,4.0938,0,5.6562
		l28.2852,28.2852c0.7812,0.7812,1.8047,1.1719,2.8281,1.1719s2.0469-0.3906,2.8281-1.1719l28.2852-28.2852
		c1.5625-1.5625,1.5625-4.0938,0-5.6562s-4.0938-1.5625-5.6562,0L96,106.6289V8h0.084V0H40v8h48V106.6289z"/>
</g>
</svg>
