<?xml version="1.0" encoding="UTF-8"?>
<svg width="60px" height="60px" viewBox="0 0 60 60" version="1.1" xmlns="http://www.w3.org/2000/svg" xmlns:xlink="http://www.w3.org/1999/xlink">
    <!-- Generator: Sketch 48.1 (47250) - http://www.bohemiancoding.com/sketch -->
    <title>Softlock</title>
    <desc>Created with Sketch.</desc>
    <defs></defs>
    <g id="Page-1" stroke="none" stroke-width="1" fill="none" fill-rule="evenodd">
        <g id="Softlock" transform="translate(1.000000, 1.000000)" stroke="#535353" stroke-width="2">
            <rect id="Rectangle-48-Copy-6" stroke-linecap="round" x="13" y="13" width="32" height="32" rx="3"></rect>
            <polyline id="Path-13-Copy-27" stroke-linecap="round" points="32.00049 12.9846072 32.00049 9.00795626 36.004608 3.00937809"></polyline>
            <circle id="Oval-25-Copy-27" fill="#FDECF8" fill-rule="nonzero" stroke-linecap="round" cx="36" cy="3" r="3"></circle>
            <polyline id="Path-13-Copy-26" stroke-linecap="round" transform="translate(23.997451, 7.996993) scale(-1, 1) translate(-23.997451, -7.996993) " points="21.995392 12.9846072 21.995392 9.00795626 25.99951 3.00937809"></polyline>
            <circle id="Oval-25-Copy-26" fill="#FDECF8" fill-rule="nonzero" stroke-linecap="round" transform="translate(22.000000, 3.000000) scale(-1, 1) translate(-22.000000, -3.000000) " cx="22" cy="3" r="3"></circle>
            <polyline id="Path-13-Copy-25" stroke-linecap="round" transform="translate(34.002549, 50.003007) scale(-1, 1) rotate(-180.000000) translate(-34.002549, -50.003007) " points="32.00049 54.9906212 32.00049 51.0139703 36.004608 45.0153921"></polyline>
            <circle id="Oval-25-Copy-25" fill="#FDECF8" fill-rule="nonzero" stroke-linecap="round" transform="translate(36.000000, 55.000000) scale(-1, 1) rotate(-180.000000) translate(-36.000000, -55.000000) " cx="36" cy="55" r="3"></circle>
            <polyline id="Path-13-Copy-24" stroke-linecap="round" transform="translate(23.997451, 50.003007) rotate(180.000000) translate(-23.997451, -50.003007) " points="21.995392 54.9906212 21.995392 51.0139703 25.99951 45.0153921"></polyline>
            <circle id="Oval-25-Copy-24" fill="#FDECF8" fill-rule="nonzero" stroke-linecap="round" transform="translate(22.000000, 55.000000) rotate(180.000000) translate(-22.000000, -55.000000) " cx="22" cy="55" r="3"></circle>
            <g id="Group-2-Copy-7" stroke-linecap="round" transform="translate(6.500000, 29.000000) rotate(-90.000000) translate(-6.500000, -29.000000) translate(-3.500000, 22.500000)">
                <polyline id="Path-13" points="13.00049 12.9846072 13.00049 9.00795626 17.004608 3.00937809"></polyline>
                <circle id="Oval-25" fill="#FDECF8" fill-rule="nonzero" cx="17" cy="3" r="3"></circle>
                <polyline id="Path-13-Copy" transform="translate(4.997451, 7.996993) scale(-1, 1) translate(-4.997451, -7.996993) " points="2.99539199 12.9846072 2.99539199 9.00795626 6.99950999 3.00937809"></polyline>
                <circle id="Oval-25-Copy" fill="#FDECF8" fill-rule="nonzero" transform="translate(3.000000, 3.000000) scale(-1, 1) translate(-3.000000, -3.000000) " cx="3" cy="3" r="3"></circle>
            </g>
            <g id="Group-Copy-7" stroke-linecap="round" transform="translate(51.500000, 29.000000) scale(-1, 1) rotate(-90.000000) translate(-51.500000, -29.000000) translate(41.500000, 22.500000)">
                <polyline id="Path-13-Copy-3" points="13.00049 12.9846072 13.00049 9.00795626 17.004608 3.00937809"></polyline>
                <circle id="Oval-25-Copy-3" fill="#FDECF8" fill-rule="nonzero" cx="17" cy="3" r="3"></circle>
                <polyline id="Path-13-Copy-2" transform="translate(4.997451, 7.996993) scale(-1, 1) translate(-4.997451, -7.996993) " points="2.99539199 12.9846072 2.99539199 9.00795626 6.99950999 3.00937809"></polyline>
                <circle id="Oval-25-Copy-2" fill="#FDECF8" fill-rule="nonzero" transform="translate(3.000000, 3.000000) scale(-1, 1) translate(-3.000000, -3.000000) " cx="3" cy="3" r="3"></circle>
            </g>
            <circle id="Oval-9" stroke-linecap="round" cx="24" cy="28" r="5"></circle>
            <path d="M29,28 L38,28" id="Line" stroke-linecap="square"></path>
            <path d="M38,28 L38,31" id="Line" stroke-linecap="square"></path>
            <path d="M35,28 L35,30" id="Line" stroke-linecap="square"></path>
        </g>
    </g>
</svg>