<?xml version="1.0" encoding="UTF-8"?>
<svg width="224px" height="224px" viewBox="0 0 224 224" version="1.1" xmlns="http://www.w3.org/2000/svg" xmlns:xlink="http://www.w3.org/1999/xlink">
    <!-- Generator: Sketch 48.1 (47250) - http://www.bohemiancoding.com/sketch -->
    <title>bitcoin</title>
    <desc>Created with Sketch.</desc>
    <defs></defs>
    <g id="Page-1" stroke="none" stroke-width="1" fill="none" fill-rule="evenodd">
        <g id="bitcoin">
            <path d="M200,112 C200,63.4766 160.5234,24 112,24 C63.4766,24 24,63.4766 24,112 C24,160.5234 63.4766,200 112,200 C160.5234,200 200,160.5234 200,112 Z" id="Shape" fill="#F4F4F4" fill-rule="nonzero"></path>
            <path d="M58.9497,191.958 C33.0854,174.7407 16,145.3325 16,112 C16,59.0664 59.0664,16 112,16 C135.0552,16 156.2344,24.1748 172.8027,37.7715 L178.3969,32.0225 C160.3711,17.0312 137.2224,8 112,8 C54.6543,8 8,54.6543 8,112 C8,147.5732 25.9624,179.0205 53.2839,197.7808 L58.9497,191.958 Z" id="Shape" fill="#A1C5AB" fill-rule="nonzero"></path>
            <path d="M184.3406,37.3857 L178.7649,43.1152 C196.7744,60.5757 208,84.9951 208,112 C208,164.9336 164.9336,208 112,208 C95.3303,208 79.6436,203.7222 65.968,196.2168 L60.2131,202.1309 C75.4746,210.9346 93.1516,216 112,216 C169.3457,216 216,169.3457 216,112 C216,82.75 203.844,56.2998 184.3406,37.3857 Z" id="Shape" fill="#A1C5AB" fill-rule="nonzero"></path>
            <path d="M112,0 C50.2422,0 0,50.2422 0,112 C0,173.7578 50.2422,224 112,224 C173.7578,224 224,173.7578 224,112 C224,50.2422 173.7578,0 112,0 Z M8,112 C8,54.6543 54.6543,8 112,8 C137.2224,8 160.3711,17.0312 178.397,32.0225 L172.8028,37.7715 C156.2344,24.1748 135.0552,16 112,16 C59.0664,16 16,59.0664 16,112 C16,145.3325 33.0854,174.7407 58.9497,191.958 L53.2839,197.7808 C25.9624,179.0205 8,147.5732 8,112 Z M24,112 C24,63.4766 63.4766,24 112,24 C160.5234,24 200,63.4766 200,112 C200,160.5234 160.5234,200 112,200 C63.4766,200 24,160.5234 24,112 Z M112,216 C93.1516,216 75.4746,210.9346 60.2131,202.1309 L65.968,196.2168 C79.6436,203.7222 95.3303,208 112,208 C164.9336,208 208,164.9336 208,112 C208,84.9951 196.7744,60.5757 178.7649,43.1152 L184.3406,37.3857 C203.844,56.2998 216,82.75 216,112 C216,169.3457 169.3457,216 112,216 Z" id="Shape" fill="#314E55" fill-rule="nonzero"></path>
            <text id="C" font-family="Dosis-ExtraBold, Dosis" font-size="140" font-weight="600" letter-spacing="8" fill="#DF93C8">
                <tspan x="72.16" y="164">C</tspan>
            </text>
            <text id="C" font-family="Dosis-ExtraBold, Dosis" font-size="140" font-weight="600" letter-spacing="8" fill="#632F53">
                <tspan x="70.16" y="160">C</tspan>
            </text>
        </g>
    </g>
</svg>