<?xml version="1.0" encoding="UTF-8"?>
<svg width="212px" height="188px" viewBox="0 0 212 188" version="1.1" xmlns="http://www.w3.org/2000/svg" xmlns:xlink="http://www.w3.org/1999/xlink">
    <!-- Generator: Sketch 48.1 (47250) - http://www.bohemiancoding.com/sketch -->
    <title>wallsafebox</title>
    <desc>Created with Sketch.</desc>
    <defs></defs>
    <g id="Page-1" stroke="none" stroke-width="1" fill="none" fill-rule="evenodd">
        <g id="wallsafebox" fill-rule="nonzero">
            <path d="M135.332,91.0117 C133.2361,87.8496 132,84.0693 132,80 C132,75.9307 133.2361,72.1504 135.332,68.9883 L129.6067,63.2627 C126.103,67.9385 124,73.7212 124,80 C124,86.2788 126.103,92.0615 129.6067,96.7373 L135.332,91.0117 Z" id="Shape" fill="#FDECF8"></path>
            <path d="M164,80 C164,73.3828 158.6172,68 152,68 C145.3828,68 140,73.3828 140,80 C140,86.6172 145.3828,92 152,92 C158.6172,92 164,86.6172 164,80 Z" id="Shape" fill="#FDECF8"></path>
            <rect id="Rectangle-path" fill="#F4F4F4" x="156" y="164" width="16" height="16"></rect>
            <path d="M140.9883,63.332 C144.1504,61.2363 147.9307,60 152,60 C156.0693,60 159.8496,61.2363 163.0117,63.332 L168.737,57.6064 C164.0615,54.1025 158.2783,52 152,52 C145.7214,52 139.9387,54.1025 135.2629,57.6064 L140.9883,63.332 Z" id="Shape" fill="#FDECF8"></path>
            <path d="M163.0117,96.668 C159.8496,98.7637 156.0693,100 152,100 C147.9307,100 144.1504,98.7637 140.9883,96.668 L135.263,102.3936 C139.9387,105.8975 145.7214,108 152,108 C158.2783,108 164.0615,105.8975 168.7371,102.3936 L163.0117,96.668 Z" id="Shape" fill="#FDECF8"></path>
            <path d="M168.668,68.9883 C170.7639,72.1504 172,75.9307 172,80 C172,84.0693 170.7639,87.8496 168.668,91.0117 L174.3933,96.7373 C177.8972,92.0615 180,86.2788 180,80 C180,73.7212 177.8972,67.9385 174.3933,63.2627 L168.668,68.9883 Z" id="Shape" fill="#FDECF8"></path>
            <rect id="Rectangle-path" fill="#F4F4F4" x="40" y="164" width="16" height="16"></rect>
            <path d="M184,8 L28,8 C16.9727,8 8,16.9863 8,28.0332 L8,135.9668 C8,147.0137 16.9727,156 28,156 L36,156 L60,156 L152,156 L176,156 L184,156 C195.0273,156 204,147.0137 204,135.9668 L204,28.0332 C204,16.9863 195.0273,8 184,8 Z M20,132 L12,132 L12,100 L20,100 L20,132 Z M20,72 L12,72 L12,40 L20,40 L20,72 Z M84,92 L64,92 L64,84 L84,84 L84,92 Z M84,80 L64,80 L64,72 L84,72 L84,80 Z M152,116 C132.1484,116 116,99.8496 116,80 C116,60.1504 132.1484,44 152,44 C171.8516,44 188,60.1504 188,80 C188,99.8496 171.8516,116 152,116 Z" id="Shape" fill="#F4F4F4"></path>
            <path d="M184,0 L28,0 C12.5625,0 0,12.5762 0,28.0332 L0,135.9668 C0,151.4238 12.5625,164 28,164 L32,164 L32,184 C32,186.209 33.7891,188 36,188 L60,188 C62.2109,188 64,186.209 64,184 L64,164 L148,164 L148,184 C148,186.209 149.7891,188 152,188 L176,188 C178.2109,188 180,186.209 180,184 L180,164 L184,164 C199.4375,164 212,151.4238 212,135.9668 L212,28.0332 C212,12.5762 199.4375,0 184,0 Z M56,180 L40,180 L40,164 L56,164 L56,180 Z M172,180 L156,180 L156,164 L172,164 L172,180 Z M204,135.9668 C204,147.0137 195.0273,156 184,156 L176,156 L152,156 L60,156 L36,156 L28,156 C16.9727,156 8,147.0137 8,135.9668 L8,28.0332 C8,16.9863 16.9727,8 28,8 L184,8 C195.0273,8 204,16.9863 204,28.0332 L204,135.9668 Z" id="Shape" fill="#535353"></path>
            <path d="M152,44 C132.1484,44 116,60.1504 116,80 C116,99.8496 132.1484,116 152,116 C171.8516,116 188,99.8496 188,80 C188,60.1504 171.8516,44 152,44 Z M168.7371,57.6064 L163.0118,63.332 C159.8496,61.2363 156.0693,60 152,60 C147.9307,60 144.1504,61.2363 140.9883,63.332 L135.263,57.6064 C139.9387,54.1025 145.7214,52 152,52 C158.2783,52 164.0615,54.1025 168.7371,57.6064 Z M140,80 C140,73.3828 145.3828,68 152,68 C158.6172,68 164,73.3828 164,80 C164,86.6172 158.6172,92 152,92 C145.3828,92 140,86.6172 140,80 Z M129.6067,63.2627 L135.332,68.9883 C133.2361,72.1504 132,75.9307 132,80 C132,84.0693 133.2361,87.8496 135.332,91.0117 L129.6067,96.7373 C126.103,92.0615 124,86.2788 124,80 C124,73.7212 126.103,67.9385 129.6067,63.2627 Z M135.2629,102.3936 L140.9882,96.668 C144.1504,98.7637 147.9307,100 152,100 C156.0693,100 159.8496,98.7637 163.0117,96.668 L168.737,102.3936 C164.0615,105.8975 158.2783,108 152,108 C145.7214,108 139.9387,105.8975 135.2629,102.3936 Z M174.3933,96.7373 L168.668,91.0117 C170.7639,87.8496 172,84.0693 172,80 C172,75.9307 170.7639,72.1504 168.668,68.9883 L174.3933,63.2627 C177.8972,67.9385 180,73.7212 180,80 C180,86.2788 177.8972,92.0615 174.3933,96.7373 Z" id="Shape" fill="#535353"></path>
            <rect id="Rectangle-path" fill="#535353" x="64" y="84" width="20" height="8"></rect>
            <rect id="Rectangle-path" fill="#535353" x="64" y="72" width="20" height="8"></rect>
            <rect id="Rectangle-path" fill="#535353" x="12" y="40" width="8" height="32"></rect>
            <rect id="Rectangle-path" fill="#535353" x="12" y="100" width="8" height="32"></rect>
        </g>
    </g>
</svg>