<?xml version="1.0" encoding="utf-8"?>
<!-- Generator: Adobe Illustrator 19.2.0, SVG Export Plug-In . SVG Version: 6.00 Build 0)  -->
<svg version="1.1" id="connectionpeople" xmlns="http://www.w3.org/2000/svg" xmlns:xlink="http://www.w3.org/1999/xlink" x="0px"
	 y="0px" viewBox="0 0 220 220" enable-background="new 0 0 220 220" xml:space="preserve">
<g>
	<path fill="none" d="M89.4512,59.8713C93.246,59.1757,96,55.8673,96,52c0-3.6091-2.4296-6.7891-5.91-7.7227
		c-1.4884-0.4024-2.6152-1.6208-2.8948-3.1364C83.6564,21.9377,68.8556,8,52,8C35.1464,8,20.3436,21.9377,16.8028,41.1409
		c-0.2792,1.5156-1.4064,2.734-2.8944,3.1364C10.4296,45.2109,8,48.3909,8,52c0,3.8673,2.754,7.1757,6.5488,7.8713
		c1.5156,0.2732,2.7364,1.3944,3.1428,2.8788C22.4728,80.2461,36.2596,92,52,92c15.7404,0,29.5272-11.7539,34.3084-29.2499
		C86.7148,61.2657,87.9356,60.1445,89.4512,59.8713z"/>
	<path fill="none" d="M202.3084,138.7501c0.4064-1.4844,1.6272-2.6056,3.1428-2.8788C209.246,135.1757,212,131.8673,212,128
		c0-3.6091-2.4296-6.7891-5.91-7.7227c-1.4884-0.4024-2.6152-1.6208-2.8948-3.1364C199.6564,97.9377,184.8556,84,168,84
		c-16.8536,0-31.6564,13.9377-35.1972,33.1409c-0.2792,1.5156-1.4064,2.734-2.8944,3.1364C126.4296,121.2109,124,124.3909,124,128
		c0,3.8673,2.754,7.1757,6.5488,7.8713c1.5156,0.2732,2.7364,1.3944,3.1428,2.8788C138.4728,156.2461,152.2596,168,168,168
		C183.7404,168,197.5272,156.2461,202.3084,138.7501z"/>
	<path fill="none" d="M12.1992,136h79.6016C89.7872,115.8165,72.7052,100,52,100C31.2948,100,14.2128,115.8165,12.1992,136z"/>
	<path fill="none" d="M168,176c-20.7052,0-37.7872,15.8165-39.8008,36h79.6016C205.7872,191.8165,188.7052,176,168,176z"/>
	<path d="M93.3712,67.0781C99.6584,64.8477,104,58.8633,104,52c0-6.3475-3.7616-12.0271-9.4044-14.5779
		C89.6192,15.6017,72.0252,0,52,0C31.9748,0,14.3808,15.6017,9.4024,37.4221C3.7616,39.9729,0,45.6525,0,52
		c0,6.8633,4.3416,12.8477,10.6288,15.0781c4.132,12.9899,12.6208,23.0796,23.2464,28.5012C16.3724,102.7477,4,119.9453,4,140
		c0,2.2109,1.7912,4,4,4h88c2.2088,0,4-1.7891,4-4c0-20.0547-12.3724-37.2523-29.8752-44.4207
		C80.7504,90.1577,89.2392,80.068,93.3712,67.0781z M91.8008,136H12.1992C14.2128,115.8165,31.2948,100,52,100
		C72.7052,100,89.7872,115.8165,91.8008,136z M52,92c-15.7404,0-29.5272-11.7539-34.3084-29.2499
		c-0.4064-1.4844-1.6272-2.6056-3.1428-2.8788C10.754,59.1757,8,55.8673,8,52c0-3.6091,2.4296-6.7891,5.9084-7.7227
		c1.488-0.4024,2.6152-1.6208,2.8944-3.1364C20.3436,21.9377,35.1464,8,52,8c16.8556,0,31.6564,13.9377,35.1952,33.1409
		c0.2796,1.5156,1.4064,2.734,2.8948,3.1364C93.5704,45.2109,96,48.3909,96,52c0,3.8673-2.754,7.1757-6.5488,7.8713
		c-1.5156,0.2732-2.7364,1.3944-3.1428,2.8788C81.5272,80.2461,67.7404,92,52,92z"/>
	<path d="M186.1248,171.5793c10.6256-5.4216,19.1144-15.5113,23.2464-28.5012C215.6584,140.8477,220,134.8633,220,128
		c0-6.3475-3.7616-12.0271-9.4044-14.5779C205.6192,91.6017,188.0252,76,168,76c-20.0252,0-37.6192,15.6017-42.5976,37.4221
		C119.7616,115.9729,116,121.6525,116,128c0,6.8633,4.3416,12.8477,10.6288,15.0781c4.132,12.9899,12.6208,23.0796,23.2464,28.5012
		C132.3724,178.7477,120,195.9453,120,216c0,2.2109,1.7912,4,4,4h88c2.2088,0,4-1.7891,4-4
		C216,195.9453,203.6276,178.7477,186.1248,171.5793z M133.6916,138.7501c-0.4064-1.4844-1.6272-2.6056-3.1428-2.8788
		C126.754,135.1757,124,131.8673,124,128c0-3.6091,2.4296-6.7891,5.9084-7.7227c1.488-0.4024,2.6152-1.6208,2.8944-3.1364
		C136.3436,97.9377,151.1464,84,168,84c16.8556,0,31.6564,13.9377,35.1952,33.1409c0.2796,1.5156,1.4064,2.734,2.8948,3.1364
		c3.4804,0.9336,5.91,4.1136,5.91,7.7227c0,3.8673-2.754,7.1757-6.5488,7.8713c-1.5156,0.2732-2.7364,1.3944-3.1428,2.8788
		C197.5272,156.2461,183.7404,168,168,168C152.2596,168,138.4728,156.2461,133.6916,138.7501z M128.1992,212
		c2.0136-20.1835,19.0956-36,39.8008-36c20.7052,0,37.7872,15.8165,39.8008,36H128.1992z"/>
	<polygon points="164,64.1797 172,64.1797 172,20 172.1328,20 172.1328,12 172,12 164,12 104,12 104,20 164,20 	"/>
</g>
</svg>
