<?xml version="1.0" encoding="UTF-8" standalone="no"?>
<svg width="16px" height="13px" viewBox="0 0 16 13" version="1.1" xmlns="http://www.w3.org/2000/svg" xmlns:xlink="http://www.w3.org/1999/xlink">
    <!-- Generator: Sketch 43.2 (39069) - http://www.bohemiancoding.com/sketch -->
    <title>empthydrawer</title>
    <desc>Created with Sketch.</desc>
    <defs></defs>
    <g id="Page-1" stroke="none" stroke-width="1" fill="none" fill-rule="evenodd">
        <g id="empthydrawer">
            <path d="M10.7414462,9.32181538 C10.7016308,9.45070769 10.5824923,9.53846154 10.4475692,9.53846154 L5.55243077,9.53846154 C5.41750769,9.53846154 5.29836923,9.45070769 5.25855385,9.32181538 L4.65821538,7.38461538 L0.615384615,7.38461538 L0.615384615,11.6923077 L15.3846154,11.6923077 L15.3846154,7.38461538 L11.3417846,7.38461538 L10.7414462,9.32181538 Z" id="Shape"></path>
            <path d="M4.88492308,6.76923077 C5.01984615,6.76923077 5.13898462,6.85698462 5.1788,6.98587692 L5.77913846,8.92307692 L10.2208615,8.92307692 L10.8212,6.98587692 C10.8610154,6.85698462 10.9801538,6.76923077 11.1150769,6.76923077 L15.1622462,6.76923077 L11.6473846,0.615384615 L4.35261538,0.615384615 L0.837753846,6.76923077 L4.88492308,6.76923077 Z" id="Shape"></path>
            <path d="M15.9964615,7.05932308 C15.9953231,7.03901538 15.9896923,7.01975385 15.9844,6.99966154 C15.9789846,6.97929231 15.9742462,6.95950769 15.9649846,6.94101538 C15.9622769,6.9356 15.9624923,6.9296 15.9594462,6.92427692 L12.0931385,0.155046154 C12.0384615,0.0592 11.9364615,0 11.8260308,0 L4.17396923,0 C4.06353846,0 3.96153846,0.0592 3.90686154,0.155046154 L0.0405538462,6.92427692 C0.0375076923,6.9296 0.0377230769,6.9356 0.0350153846,6.94101538 C0.0257538462,6.95950769 0.0210153846,6.97929231 0.0156,6.99966154 C0.0103076923,7.01975385 0.00467692308,7.03901538 0.00353846154,7.05932308 C0.00316923077,7.06547692 0,7.07067692 0,7.07692308 L0,12 C0,12.1700615 0.137784615,12.3076923 0.307692308,12.3076923 L15.6923077,12.3076923 C15.8622154,12.3076923 16,12.1700615 16,12 L16,7.07692308 C16,7.07067692 15.9968308,7.06547692 15.9964615,7.05932308 Z M4.35261538,0.615384615 L11.6473846,0.615384615 L15.1622462,6.76923077 L11.1150769,6.76923077 C10.9801538,6.76923077 10.8610154,6.85698462 10.8212,6.98587692 L10.2208615,8.92307692 L5.77913846,8.92307692 L5.1788,6.98587692 C5.13898462,6.85698462 5.01984615,6.76923077 4.88492308,6.76923077 L0.837753846,6.76923077 L4.35261538,0.615384615 Z M15.3846154,11.6923077 L0.615384615,11.6923077 L0.615384615,7.38461538 L4.65821538,7.38461538 L5.25855385,9.32181538 C5.29836923,9.45070769 5.41750769,9.53846154 5.55243077,9.53846154 L10.4475692,9.53846154 C10.5824923,9.53846154 10.7016308,9.45070769 10.7414462,9.32181538 L11.3417846,7.38461538 L15.3846154,7.38461538 L15.3846154,11.6923077 Z" id="Shape" fill="#FFFFFF" fill-rule="nonzero"></path>
        </g>
    </g>
</svg>