<?xml version="1.0" encoding="UTF-8"?>
<svg version="1.1" viewBox="0 0 2691 807" xmlns="http://www.w3.org/2000/svg">
<title>Group 3</title>
<g fill="none" fill-rule="evenodd">
<g id="e" transform="translate(875 208)" fill="#3A5291" fill-rule="nonzero">
<path id="Shape" d="m53.095 0c-29.338 0-53.095 23.757-53.095 53.095 0 25.96 18.763 48.102 44.356 52.361l0.69766 0.11016c6.3891 1.0648 12.448-3.268 13.512-9.657 1.0648-6.3891-3.268-12.448-9.657-13.512l-0.69766-0.11016c-14.247-2.3867-24.712-14.724-24.712-29.191 0-16.34 13.255-29.595 29.595-29.595h58.309c16.34 0 29.595 13.255 29.595 29.595 0 14.467-10.465 26.805-24.748 29.191l-0.69766 0.11016c-6.3891 1.0648-10.722 7.1234-9.657 13.512 1.0648 6.3891 7.1234 10.722 13.512 9.657l0.69766-0.11016c25.593-4.2594 44.356-26.438 44.356-52.361 0.036676-29.338-23.72-53.095-53.059-53.095h-58.309zm128.81 141c29.338 0 53.095-23.757 53.095-53.095 0-25.96-18.763-48.102-44.356-52.361l-0.69766-0.11016c-6.3891-1.0648-12.448 3.268-13.512 9.657s3.268 12.448 9.657 13.512l0.69766 0.11016c14.284 2.3867 24.748 14.724 24.748 29.191 0 16.34-13.255 29.595-29.595 29.595h-58.346c-16.34 0-29.595-13.255-29.595-29.595 0-14.467 10.465-26.805 24.748-29.191l0.69766-0.11016c6.3891-1.0648 10.722-7.1234 9.657-13.512s-7.1234-10.722-13.512-9.657l-0.69766 0.11016c-25.63 4.2594-44.393 26.401-44.393 52.361 0 29.338 23.757 53.095 53.095 53.095h58.309z"/>
</g>
<g transform="translate(1822 208)" fill="#3A5291" fill-rule="nonzero">
<path id="Shape" d="m53.095 0c-29.338 0-53.095 23.757-53.095 53.095 0 25.96 18.763 48.102 44.356 52.361l0.69766 0.11016c6.3891 1.0648 12.448-3.268 13.512-9.657 1.0648-6.3891-3.268-12.448-9.657-13.512l-0.69766-0.11016c-14.247-2.3867-24.712-14.724-24.712-29.191 0-16.34 13.255-29.595 29.595-29.595h58.309c16.34 0 29.595 13.255 29.595 29.595 0 14.467-10.465 26.805-24.748 29.191l-0.69766 0.11016c-6.3891 1.0648-10.722 7.1234-9.657 13.512 1.0648 6.3891 7.1234 10.722 13.512 9.657l0.69766-0.11016c25.593-4.2594 44.356-26.438 44.356-52.361 0.036676-29.338-23.72-53.095-53.059-53.095h-58.309zm128.81 141c29.338 0 53.095-23.757 53.095-53.095 0-25.96-18.763-48.102-44.356-52.361l-0.69766-0.11016c-6.3891-1.0648-12.448 3.268-13.512 9.657s3.268 12.448 9.657 13.512l0.69766 0.11016c14.284 2.3867 24.748 14.724 24.748 29.191 0 16.34-13.255 29.595-29.595 29.595h-58.346c-16.34 0-29.595-13.255-29.595-29.595 0-14.467 10.465-26.805 24.748-29.191l0.69766-0.11016c6.3891-1.0648 10.722-7.1234 9.657-13.512s-7.1234-10.722-13.512-9.657l-0.69766 0.11016c-25.63 4.2594-44.393 26.401-44.393 52.361 0 29.338 23.757 53.095 53.095 53.095h58.309z"/>
</g>
<g id="cube-thin" transform="translate(263)" fill="#10172A" fill-rule="nonzero">
<path id="Shape" d="m242.6 2.3032c8.7-3.071 18.1-3.071 26.8 0l216 76.642c15.9 5.67 26.6 20.8 26.6 37.7v274.8c0 16.9-10.7 32-26.6 37.7l-216 76.6c-8.7 3.1-18.1 3.1-26.8 0l-215.98-76.6c-15.96-5.7-26.62-20.8-26.62-37.7v-274.8c0-16.9 10.66-32.03 26.62-37.7l215.98-76.642zm21.4 15.082c-5.2-1.85-10.8-1.85-16.9 0l-215.13 76.64c-4.91 1.74-8.98 4.12-11.78 9.12l235.81 94.3 235.8-94.3c-2.8-5-6.9-7.38-11.8-9.12l-216-76.64zm-232.03 396.66 216.03 76.7s-0.9 0 0 0v-279.3l-232-92.8v272.8c0 10.2 6.4 19.2 15.97 22.6zm232.03 76.7c-0.9 0 0 0 0 0l216-76.7c9.6-3.4 16-12.4 16-22.6v-272.8l-232 92.8v279.3z"/>
</g>
<rect id="Rectangle" x="384" y="108" width="269" height="200" fill="#10172A"/>
<text fill="#CFD9F4" font-family="ProximaNova-Regular, Proxima Nova" font-size="48"><tspan x="408" y="165">Eki € 200, </tspan> <tspan x="408" y="223">Dwi € 199, </tspan> <tspan x="408" y="281">Tri € 90</tspan></text>
<text id="Hash-of-prev-block" fill="#10172A" font-family="ProximaNova-Regular, Proxima Nova" font-size="48"><tspan x="56.1796875" y="597">Hash of prev</tspan> <tspan x="209.789062" y="655">block</tspan></text>
<text id="Hash-of-current-bloc" fill="#10172A" font-family="ProximaNova-Regular, Proxima Nova" font-size="48"><tspan x="0.5859375" y="735">Hash of current</tspan> <tspan x="209.789062" y="793">block</tspan></text>
<g id="fingerprint-light" transform="translate(346 571)" fill="#10172A" fill-rule="nonzero">
<path id="Shape" d="m42.499 28.208c-4.6815 0.083005-8.782 1.5937-11.853 4.6981-2.8388 2.8388-4.5852 6.9508-4.5238 11.184 0.12451 8.342-0.64329 16.684-2.1747 24.802-0.31127 1.4524 0.62254 2.8421 2.0536 3.0048 1.4111 0.26977 2.8421-0.64329 3.1326-2.0751 1.763-8.4864 2.5732-17.215 2.4487-25.964-0.18925-2.6346 0.87322-5.2575 2.8321-7.1999 3.0911-3.0911 7.014-3.1326 8.093-3.1326 6.1623 0.10374 11.018 5.0218 10.973 10.977 0.12451 8.3619-0.34862 16.75-1.846 24.752-0.24902 1.4524 0.7263 2.6728 2.1781 3.0712 0.16596 0.020751 0.29052 0.020751 0.45653 0.020751 1.2658 0 2.3856-0.91306 2.6147-2.2196 1.3903-8.3171 2.0336-17.182 1.9091-25.848-0.0083006-8.6666-7.2796-15.921-16.294-16.071zm-0.016601 14.293c-1.4526 0.020927-2.6346 1.2243-2.6147 2.6978 0.18676 12.18-1.3488 23.922-4.6068 35.709l-0.20751 0.70554c-0.30712 1.1123 0.29052 3.3866 2.5649 3.3866 1.0127 0 2.2196-0.7678 2.5516-1.929l0.20751-0.72629c3.3816-12.139 5.0002-24.52 4.7927-37.219-0.014941-1.4783-1.343-2.6404-2.6877-2.624zm-23.789-17.63c-4.1652 5.1463-6.4064 11.637-6.3034 18.294 0.10376 6.5574-0.43578 13.135-1.5979 19.506-0.26977 1.4524 0.68479 2.8421 2.1366 3.0911 0.016601 0.041503 0.31127 0.041503 0.47728 0.041503 1.2658 0 2.3856-0.8923 2.6147-2.1781 1.2285-6.7151 1.7929-13.638 1.6767-20.544-0.099606-5.4783 1.6933-10.625 5.1297-14.858 0.93381-1.1412 0.74705-2.6728-0.39428-3.7352-1.1164-0.92966-2.7931-0.76365-3.7394 0.38182zm66.288 17.116c-0.041503-2.7392-0.35792-5.4999-0.95971-8.1777-0.31127-1.4109-1.7166-2.3225-3.1492-2.0104-1.4318 0.31127-2.3491 1.7215-2.037 3.1525 0.51878 2.1747 0.79204 4.7313 0.83354 7.1185 0.020751 1.2657 0.020751 2.5317 0.020751 3.7966-0.020751 1.4732 1.0127 2.6761 2.6346 2.6761 1.4526 0 2.5068-1.1619 2.6761-2.6346-0.0024902-1.3148-0.0024902-2.6097-0.019091-3.9212zm-43.03-41.979c-11.621-0.2075-22.279 3.9964-30.252 12.113-7.6979 7.7045-11.843 17.898-11.677 28.771 0.020751 1.2451 0.020751 2.4902-0.020751 3.7518-0.041503 1.4524 1.1206 2.6761 2.5732 2.7176h0.083005c1.4318 0 2.6147-1.1412 2.5068-2.5732 0.041503-1.3279 0.041121-2.6545 0.02037-3.9826 0.0034696-9.426 3.5993-18.274 10.26-24.94 6.9343-6.9309 16.281-10.693 26.424-10.547 12.388 0.18676 24.022 6.3333 31.144 16.48 0.8508 1.2034 2.5167 1.513 3.6987 0.66221 1.2036-0.68064 1.4893-2.5068 0.63848-3.7103-8.089-11.538-21.303-18.535-35.398-18.743zm0.19921 14.113c-2.54-0.041502-5.0467 0.22743-7.4871 0.80847-1.4318 0.18261-2.1747 1.763-1.9705 3.1957 0.18261 1.4317 1.7846 2.3026 3.1957 1.9705 2.0121-0.47728 4.0009-0.70554 6.1839-0.51463 13.737 0.20751 25.084 11.204 25.3 24.553 0.10376 6.5773-0.22826 13.218-0.95456 19.705-0.016601 1.4524 0.87156 2.7591 2.1747 2.9251 0.10381 0.020751 0.20751 0.020751 0.31127 0.020751 1.1787 0 2.4686-0.84665 2.6346-2.3441 0.7678-6.7234 1.0998-13.591 0.84665-20.403 0.045653-16.328-13.65-29.668-30.235-29.917z"/>
</g>
<text fill="#10172A" font-family="ProximaNova-Regular, Proxima Nova" font-size="24"><tspan x="453" y="588">d23cb0551acdf8434489c59ef</tspan> <tspan x="453" y="617">2b766f202cf6df47c84b2468d</tspan> <tspan x="453" y="646">175cbbb271f7ec</tspan></text>
<g id="fingerprint-light" transform="translate(346 710)" fill="#10172A" fill-rule="nonzero">
<path id="Shape" d="m42.499 28.208c-4.6815 0.083005-8.782 1.5937-11.853 4.6981-2.8388 2.8388-4.5852 6.9508-4.5238 11.184 0.12451 8.342-0.64329 16.684-2.1747 24.802-0.31127 1.4524 0.62254 2.8421 2.0536 3.0048 1.4111 0.26977 2.8421-0.64329 3.1326-2.0751 1.763-8.4864 2.5732-17.215 2.4487-25.964-0.18925-2.6346 0.87322-5.2575 2.8321-7.1999 3.0911-3.0911 7.014-3.1326 8.093-3.1326 6.1623 0.10374 11.018 5.0218 10.973 10.977 0.12451 8.3619-0.34862 16.75-1.846 24.752-0.24902 1.4524 0.7263 2.6728 2.1781 3.0712 0.16596 0.020751 0.29052 0.020751 0.45653 0.020751 1.2658 0 2.3856-0.91306 2.6147-2.2196 1.3903-8.3171 2.0336-17.182 1.9091-25.848-0.0083006-8.6666-7.2796-15.921-16.294-16.071zm-0.016601 14.293c-1.4526 0.020927-2.6346 1.2243-2.6147 2.6978 0.18676 12.18-1.3488 23.922-4.6068 35.709l-0.20751 0.70554c-0.30712 1.1123 0.29052 3.3866 2.5649 3.3866 1.0127 0 2.2196-0.7678 2.5516-1.929l0.20751-0.72629c3.3816-12.139 5.0002-24.52 4.7927-37.219-0.014941-1.4783-1.343-2.6404-2.6877-2.624zm-23.789-17.63c-4.1652 5.1463-6.4064 11.637-6.3034 18.294 0.10376 6.5574-0.43578 13.135-1.5979 19.506-0.26977 1.4524 0.68479 2.8421 2.1366 3.0911 0.016601 0.041503 0.31127 0.041503 0.47728 0.041503 1.2658 0 2.3856-0.8923 2.6147-2.1781 1.2285-6.7151 1.7929-13.638 1.6767-20.544-0.099606-5.4783 1.6933-10.625 5.1297-14.858 0.93381-1.1412 0.74705-2.6728-0.39428-3.7352-1.1164-0.92966-2.7931-0.76365-3.7394 0.38182zm66.288 17.116c-0.041503-2.7392-0.35792-5.4999-0.95971-8.1777-0.31127-1.4109-1.7166-2.3225-3.1492-2.0104-1.4318 0.31127-2.3491 1.7215-2.037 3.1525 0.51878 2.1747 0.79204 4.7313 0.83354 7.1185 0.020751 1.2657 0.020751 2.5317 0.020751 3.7966-0.020751 1.4732 1.0127 2.6761 2.6346 2.6761 1.4526 0 2.5068-1.1619 2.6761-2.6346-0.0024902-1.3148-0.0024902-2.6097-0.019091-3.9212zm-43.03-41.979c-11.621-0.2075-22.279 3.9964-30.252 12.113-7.6979 7.7045-11.843 17.898-11.677 28.771 0.020751 1.2451 0.020751 2.4902-0.020751 3.7518-0.041503 1.4524 1.1206 2.6761 2.5732 2.7176h0.083005c1.4318 0 2.6147-1.1412 2.5068-2.5732 0.041503-1.3279 0.041121-2.6545 0.02037-3.9826 0.0034696-9.426 3.5993-18.274 10.26-24.94 6.9343-6.9309 16.281-10.693 26.424-10.547 12.388 0.18676 24.022 6.3333 31.144 16.48 0.8508 1.2034 2.5167 1.513 3.6987 0.66221 1.2036-0.68064 1.4893-2.5068 0.63848-3.7103-8.089-11.538-21.303-18.535-35.398-18.743zm0.19921 14.113c-2.54-0.041502-5.0467 0.22743-7.4871 0.80847-1.4318 0.18261-2.1747 1.763-1.9705 3.1957 0.18261 1.4317 1.7846 2.3026 3.1957 1.9705 2.0121-0.47728 4.0009-0.70554 6.1839-0.51463 13.737 0.20751 25.084 11.204 25.3 24.553 0.10376 6.5773-0.22826 13.218-0.95456 19.705-0.016601 1.4524 0.87156 2.7591 2.1747 2.9251 0.10381 0.020751 0.20751 0.020751 0.31127 0.020751 1.1787 0 2.4686-0.84665 2.6346-2.3441 0.7678-6.7234 1.0998-13.591 0.84665-20.403 0.045653-16.328-13.65-29.668-30.235-29.917z"/>
</g>
<text id="h" fill="#10172A" font-family="ProximaNova-Regular, Proxima Nova" font-size="24"><tspan x="453" y="727">00000d8f25735dfa0c6c0a95</tspan> <tspan x="453" y="756">cda7f612204fe5d2f2890f43b7</tspan> <tspan x="453" y="785">68bfbd1b8a4640</tspan></text>
<g id="d" transform="translate(1210)" fill="#10172A" fill-rule="nonzero">
<path id="Shape" d="m242.6 2.3032c8.7-3.071 18.1-3.071 26.8 0l216 76.642c15.9 5.67 26.6 20.8 26.6 37.7v274.8c0 16.9-10.7 32-26.6 37.7l-216 76.6c-8.7 3.1-18.1 3.1-26.8 0l-215.98-76.6c-15.96-5.7-26.62-20.8-26.62-37.7v-274.8c0-16.9 10.66-32.03 26.62-37.7l215.98-76.642zm21.4 15.082c-5.2-1.85-10.8-1.85-16.9 0l-215.13 76.64c-4.91 1.74-8.98 4.12-11.78 9.12l235.81 94.3 235.8-94.3c-2.8-5-6.9-7.38-11.8-9.12l-216-76.64zm-232.03 396.66 216.03 76.7s-0.9 0 0 0v-279.3l-232-92.8v272.8c0 10.2 6.4 19.2 15.97 22.6zm232.03 76.7c-0.9 0 0 0 0 0l216-76.7c9.6-3.4 16-12.4 16-22.6v-272.8l-232 92.8v279.3z"/>
</g>
<rect id="a" x="1331" y="108" width="269" height="200" fill="#10172A"/>
<text fill="#CFD9F4" font-family="ProximaNova-Regular, Proxima Nova" font-size="48"><tspan x="1346" y="165">Eki € 900, </tspan> <tspan x="1346" y="223">Dwi € 300, </tspan> <tspan x="1346" y="281">Tri € 400</tspan></text>
<text id="j" fill="#10172A" font-family="ProximaNova-Regular, Proxima Nova" font-size="48"><tspan x="1003.17969" y="597">Hash of prev</tspan> <tspan x="1156.78906" y="655">block</tspan></text>
<text id="c" fill="#10172A" font-family="ProximaNova-Regular, Proxima Nova" font-size="48"><tspan x="947.585938" y="735">Hash of current</tspan> <tspan x="1156.78906" y="793">block</tspan></text>
<g id="fingerprint-light" transform="translate(1293 571)" fill="#10172A" fill-rule="nonzero">
<path id="Shape" d="m42.499 28.208c-4.6815 0.083005-8.782 1.5937-11.853 4.6981-2.8388 2.8388-4.5852 6.9508-4.5238 11.184 0.12451 8.342-0.64329 16.684-2.1747 24.802-0.31127 1.4524 0.62254 2.8421 2.0536 3.0048 1.4111 0.26977 2.8421-0.64329 3.1326-2.0751 1.763-8.4864 2.5732-17.215 2.4487-25.964-0.18925-2.6346 0.87322-5.2575 2.8321-7.1999 3.0911-3.0911 7.014-3.1326 8.093-3.1326 6.1623 0.10374 11.018 5.0218 10.973 10.977 0.12451 8.3619-0.34862 16.75-1.846 24.752-0.24902 1.4524 0.7263 2.6728 2.1781 3.0712 0.16596 0.020751 0.29052 0.020751 0.45653 0.020751 1.2658 0 2.3856-0.91306 2.6147-2.2196 1.3903-8.3171 2.0336-17.182 1.9091-25.848-0.0083006-8.6666-7.2796-15.921-16.294-16.071zm-0.016601 14.293c-1.4526 0.020927-2.6346 1.2243-2.6147 2.6978 0.18676 12.18-1.3488 23.922-4.6068 35.709l-0.20751 0.70554c-0.30712 1.1123 0.29052 3.3866 2.5649 3.3866 1.0127 0 2.2196-0.7678 2.5516-1.929l0.20751-0.72629c3.3816-12.139 5.0002-24.52 4.7927-37.219-0.014941-1.4783-1.343-2.6404-2.6877-2.624zm-23.789-17.63c-4.1652 5.1463-6.4064 11.637-6.3034 18.294 0.10376 6.5574-0.43578 13.135-1.5979 19.506-0.26977 1.4524 0.68479 2.8421 2.1366 3.0911 0.016601 0.041503 0.31127 0.041503 0.47728 0.041503 1.2658 0 2.3856-0.8923 2.6147-2.1781 1.2285-6.7151 1.7929-13.638 1.6767-20.544-0.099606-5.4783 1.6933-10.625 5.1297-14.858 0.93381-1.1412 0.74705-2.6728-0.39428-3.7352-1.1164-0.92966-2.7931-0.76365-3.7394 0.38182zm66.288 17.116c-0.041503-2.7392-0.35792-5.4999-0.95971-8.1777-0.31127-1.4109-1.7166-2.3225-3.1492-2.0104-1.4318 0.31127-2.3491 1.7215-2.037 3.1525 0.51878 2.1747 0.79204 4.7313 0.83354 7.1185 0.020751 1.2657 0.020751 2.5317 0.020751 3.7966-0.020751 1.4732 1.0127 2.6761 2.6346 2.6761 1.4526 0 2.5068-1.1619 2.6761-2.6346-0.0024902-1.3148-0.0024902-2.6097-0.019091-3.9212zm-43.03-41.979c-11.621-0.2075-22.279 3.9964-30.252 12.113-7.6979 7.7045-11.843 17.898-11.677 28.771 0.020751 1.2451 0.020751 2.4902-0.020751 3.7518-0.041503 1.4524 1.1206 2.6761 2.5732 2.7176h0.083005c1.4318 0 2.6147-1.1412 2.5068-2.5732 0.041503-1.3279 0.041121-2.6545 0.02037-3.9826 0.0034696-9.426 3.5993-18.274 10.26-24.94 6.9343-6.9309 16.281-10.693 26.424-10.547 12.388 0.18676 24.022 6.3333 31.144 16.48 0.8508 1.2034 2.5167 1.513 3.6987 0.66221 1.2036-0.68064 1.4893-2.5068 0.63848-3.7103-8.089-11.538-21.303-18.535-35.398-18.743zm0.19921 14.113c-2.54-0.041502-5.0467 0.22743-7.4871 0.80847-1.4318 0.18261-2.1747 1.763-1.9705 3.1957 0.18261 1.4317 1.7846 2.3026 3.1957 1.9705 2.0121-0.47728 4.0009-0.70554 6.1839-0.51463 13.737 0.20751 25.084 11.204 25.3 24.553 0.10376 6.5773-0.22826 13.218-0.95456 19.705-0.016601 1.4524 0.87156 2.7591 2.1747 2.9251 0.10381 0.020751 0.20751 0.020751 0.31127 0.020751 1.1787 0 2.4686-0.84665 2.6346-2.3441 0.7678-6.7234 1.0998-13.591 0.84665-20.403 0.045653-16.328-13.65-29.668-30.235-29.917z"/>
</g>
<text fill="#10172A" font-family="ProximaNova-Regular, Proxima Nova" font-size="24"><tspan x="1400" y="588">00000d8f25735dfa0c6c0a95</tspan> <tspan x="1400" y="617">cda7f612204fe5d2f2890f43b7</tspan> <tspan x="1400" y="646">68bfbd1b8a4640</tspan></text>
<g id="fingerprint-light" transform="translate(1293 710)" fill="#10172A" fill-rule="nonzero">
<path id="Shape" d="m42.499 28.208c-4.6815 0.083005-8.782 1.5937-11.853 4.6981-2.8388 2.8388-4.5852 6.9508-4.5238 11.184 0.12451 8.342-0.64329 16.684-2.1747 24.802-0.31127 1.4524 0.62254 2.8421 2.0536 3.0048 1.4111 0.26977 2.8421-0.64329 3.1326-2.0751 1.763-8.4864 2.5732-17.215 2.4487-25.964-0.18925-2.6346 0.87322-5.2575 2.8321-7.1999 3.0911-3.0911 7.014-3.1326 8.093-3.1326 6.1623 0.10374 11.018 5.0218 10.973 10.977 0.12451 8.3619-0.34862 16.75-1.846 24.752-0.24902 1.4524 0.7263 2.6728 2.1781 3.0712 0.16596 0.020751 0.29052 0.020751 0.45653 0.020751 1.2658 0 2.3856-0.91306 2.6147-2.2196 1.3903-8.3171 2.0336-17.182 1.9091-25.848-0.0083006-8.6666-7.2796-15.921-16.294-16.071zm-0.016601 14.293c-1.4526 0.020927-2.6346 1.2243-2.6147 2.6978 0.18676 12.18-1.3488 23.922-4.6068 35.709l-0.20751 0.70554c-0.30712 1.1123 0.29052 3.3866 2.5649 3.3866 1.0127 0 2.2196-0.7678 2.5516-1.929l0.20751-0.72629c3.3816-12.139 5.0002-24.52 4.7927-37.219-0.014941-1.4783-1.343-2.6404-2.6877-2.624zm-23.789-17.63c-4.1652 5.1463-6.4064 11.637-6.3034 18.294 0.10376 6.5574-0.43578 13.135-1.5979 19.506-0.26977 1.4524 0.68479 2.8421 2.1366 3.0911 0.016601 0.041503 0.31127 0.041503 0.47728 0.041503 1.2658 0 2.3856-0.8923 2.6147-2.1781 1.2285-6.7151 1.7929-13.638 1.6767-20.544-0.099606-5.4783 1.6933-10.625 5.1297-14.858 0.93381-1.1412 0.74705-2.6728-0.39428-3.7352-1.1164-0.92966-2.7931-0.76365-3.7394 0.38182zm66.288 17.116c-0.041503-2.7392-0.35792-5.4999-0.95971-8.1777-0.31127-1.4109-1.7166-2.3225-3.1492-2.0104-1.4318 0.31127-2.3491 1.7215-2.037 3.1525 0.51878 2.1747 0.79204 4.7313 0.83354 7.1185 0.020751 1.2657 0.020751 2.5317 0.020751 3.7966-0.020751 1.4732 1.0127 2.6761 2.6346 2.6761 1.4526 0 2.5068-1.1619 2.6761-2.6346-0.0024902-1.3148-0.0024902-2.6097-0.019091-3.9212zm-43.03-41.979c-11.621-0.2075-22.279 3.9964-30.252 12.113-7.6979 7.7045-11.843 17.898-11.677 28.771 0.020751 1.2451 0.020751 2.4902-0.020751 3.7518-0.041503 1.4524 1.1206 2.6761 2.5732 2.7176h0.083005c1.4318 0 2.6147-1.1412 2.5068-2.5732 0.041503-1.3279 0.041121-2.6545 0.02037-3.9826 0.0034696-9.426 3.5993-18.274 10.26-24.94 6.9343-6.9309 16.281-10.693 26.424-10.547 12.388 0.18676 24.022 6.3333 31.144 16.48 0.8508 1.2034 2.5167 1.513 3.6987 0.66221 1.2036-0.68064 1.4893-2.5068 0.63848-3.7103-8.089-11.538-21.303-18.535-35.398-18.743zm0.19921 14.113c-2.54-0.041502-5.0467 0.22743-7.4871 0.80847-1.4318 0.18261-2.1747 1.763-1.9705 3.1957 0.18261 1.4317 1.7846 2.3026 3.1957 1.9705 2.0121-0.47728 4.0009-0.70554 6.1839-0.51463 13.737 0.20751 25.084 11.204 25.3 24.553 0.10376 6.5773-0.22826 13.218-0.95456 19.705-0.016601 1.4524 0.87156 2.7591 2.1747 2.9251 0.10381 0.020751 0.20751 0.020751 0.31127 0.020751 1.1787 0 2.4686-0.84665 2.6346-2.3441 0.7678-6.7234 1.0998-13.591 0.84665-20.403 0.045653-16.328-13.65-29.668-30.235-29.917z"/>
</g>
<text id="f" fill="#10172A" font-family="ProximaNova-Regular, Proxima Nova" font-size="24"><tspan x="1400" y="727">d9b3c912abd7612abc9b3966b</tspan> <tspan x="1400" y="756">acca4c4ccef79ac6cfb5ff2b505</tspan> <tspan x="1400" y="785">df779b67f5b4</tspan></text>
<g transform="translate(2161)" fill="#10172A" fill-rule="nonzero">
<path id="Shape" d="m242.6 2.3032c8.7-3.071 18.1-3.071 26.8 0l216 76.642c15.9 5.67 26.6 20.8 26.6 37.7v274.8c0 16.9-10.7 32-26.6 37.7l-216 76.6c-8.7 3.1-18.1 3.1-26.8 0l-215.98-76.6c-15.96-5.7-26.62-20.8-26.62-37.7v-274.8c0-16.9 10.66-32.03 26.62-37.7l215.98-76.642zm21.4 15.082c-5.2-1.85-10.8-1.85-16.9 0l-215.13 76.64c-4.91 1.74-8.98 4.12-11.78 9.12l235.81 94.3 235.8-94.3c-2.8-5-6.9-7.38-11.8-9.12l-216-76.64zm-232.03 396.66 216.03 76.7s-0.9 0 0 0v-279.3l-232-92.8v272.8c0 10.2 6.4 19.2 15.97 22.6zm232.03 76.7c-0.9 0 0 0 0 0l216-76.7c9.6-3.4 16-12.4 16-22.6v-272.8l-232 92.8v279.3z"/>
</g>
<rect x="2282" y="108" width="269" height="200" fill="#10172A"/>
<text fill="#CFD9F4" font-family="ProximaNova-Regular, Proxima Nova" font-size="48"><tspan x="2298" y="165">Eki € 400, </tspan> <tspan x="2298" y="223">Dwi € 700, </tspan> <tspan x="2298" y="281">Tri € 430</tspan></text>
<text fill="#10172A" font-family="ProximaNova-Regular, Proxima Nova" font-size="48"><tspan x="1954.17969" y="597">Hash of prev</tspan> <tspan x="2107.78906" y="655">block</tspan></text>
<text fill="#10172A" font-family="ProximaNova-Regular, Proxima Nova" font-size="48"><tspan x="1898.58594" y="735">Hash of current</tspan> <tspan x="2107.78906" y="793">block</tspan></text>
<g id="i" transform="translate(2244 571)" fill="#10172A" fill-rule="nonzero">
<path id="g" d="m42.499 28.208c-4.6815 0.083005-8.782 1.5937-11.853 4.6981-2.8388 2.8388-4.5852 6.9508-4.5238 11.184 0.12451 8.342-0.64329 16.684-2.1747 24.802-0.31127 1.4524 0.62254 2.8421 2.0536 3.0048 1.4111 0.26977 2.8421-0.64329 3.1326-2.0751 1.763-8.4864 2.5732-17.215 2.4487-25.964-0.18925-2.6346 0.87322-5.2575 2.8321-7.1999 3.0911-3.0911 7.014-3.1326 8.093-3.1326 6.1623 0.10374 11.018 5.0218 10.973 10.977 0.12451 8.3619-0.34862 16.75-1.846 24.752-0.24902 1.4524 0.7263 2.6728 2.1781 3.0712 0.16596 0.020751 0.29052 0.020751 0.45653 0.020751 1.2658 0 2.3856-0.91306 2.6147-2.2196 1.3903-8.3171 2.0336-17.182 1.9091-25.848-0.0083006-8.6666-7.2796-15.921-16.294-16.071zm-0.016601 14.293c-1.4526 0.020927-2.6346 1.2243-2.6147 2.6978 0.18676 12.18-1.3488 23.922-4.6068 35.709l-0.20751 0.70554c-0.30712 1.1123 0.29052 3.3866 2.5649 3.3866 1.0127 0 2.2196-0.7678 2.5516-1.929l0.20751-0.72629c3.3816-12.139 5.0002-24.52 4.7927-37.219-0.014941-1.4783-1.343-2.6404-2.6877-2.624zm-23.789-17.63c-4.1652 5.1463-6.4064 11.637-6.3034 18.294 0.10376 6.5574-0.43578 13.135-1.5979 19.506-0.26977 1.4524 0.68479 2.8421 2.1366 3.0911 0.016601 0.041503 0.31127 0.041503 0.47728 0.041503 1.2658 0 2.3856-0.8923 2.6147-2.1781 1.2285-6.7151 1.7929-13.638 1.6767-20.544-0.099606-5.4783 1.6933-10.625 5.1297-14.858 0.93381-1.1412 0.74705-2.6728-0.39428-3.7352-1.1164-0.92966-2.7931-0.76365-3.7394 0.38182zm66.288 17.116c-0.041503-2.7392-0.35792-5.4999-0.95971-8.1777-0.31127-1.4109-1.7166-2.3225-3.1492-2.0104-1.4318 0.31127-2.3491 1.7215-2.037 3.1525 0.51878 2.1747 0.79204 4.7313 0.83354 7.1185 0.020751 1.2657 0.020751 2.5317 0.020751 3.7966-0.020751 1.4732 1.0127 2.6761 2.6346 2.6761 1.4526 0 2.5068-1.1619 2.6761-2.6346-0.0024902-1.3148-0.0024902-2.6097-0.019091-3.9212zm-43.03-41.979c-11.621-0.2075-22.279 3.9964-30.252 12.113-7.6979 7.7045-11.843 17.898-11.677 28.771 0.020751 1.2451 0.020751 2.4902-0.020751 3.7518-0.041503 1.4524 1.1206 2.6761 2.5732 2.7176h0.083005c1.4318 0 2.6147-1.1412 2.5068-2.5732 0.041503-1.3279 0.041121-2.6545 0.02037-3.9826 0.0034696-9.426 3.5993-18.274 10.26-24.94 6.9343-6.9309 16.281-10.693 26.424-10.547 12.388 0.18676 24.022 6.3333 31.144 16.48 0.8508 1.2034 2.5167 1.513 3.6987 0.66221 1.2036-0.68064 1.4893-2.5068 0.63848-3.7103-8.089-11.538-21.303-18.535-35.398-18.743zm0.19921 14.113c-2.54-0.041502-5.0467 0.22743-7.4871 0.80847-1.4318 0.18261-2.1747 1.763-1.9705 3.1957 0.18261 1.4317 1.7846 2.3026 3.1957 1.9705 2.0121-0.47728 4.0009-0.70554 6.1839-0.51463 13.737 0.20751 25.084 11.204 25.3 24.553 0.10376 6.5773-0.22826 13.218-0.95456 19.705-0.016601 1.4524 0.87156 2.7591 2.1747 2.9251 0.10381 0.020751 0.20751 0.020751 0.31127 0.020751 1.1787 0 2.4686-0.84665 2.6346-2.3441 0.7678-6.7234 1.0998-13.591 0.84665-20.403 0.045653-16.328-13.65-29.668-30.235-29.917z"/>
</g>
<text fill="#10172A" font-family="ProximaNova-Regular, Proxima Nova" font-size="24"><tspan x="2351" y="588">d9b3c912abd7612abc9b3966b</tspan> <tspan x="2351" y="617">acca4c4ccef79ac6cfb5ff2b505</tspan> <tspan x="2351" y="646">df779b67f5b4</tspan></text>
<g transform="translate(2244 710)" fill="#10172A" fill-rule="nonzero">
<path d="m42.499 28.208c-4.6815 0.083005-8.782 1.5937-11.853 4.6981-2.8388 2.8388-4.5852 6.9508-4.5238 11.184 0.12451 8.342-0.64329 16.684-2.1747 24.802-0.31127 1.4524 0.62254 2.8421 2.0536 3.0048 1.4111 0.26977 2.8421-0.64329 3.1326-2.0751 1.763-8.4864 2.5732-17.215 2.4487-25.964-0.18925-2.6346 0.87322-5.2575 2.8321-7.1999 3.0911-3.0911 7.014-3.1326 8.093-3.1326 6.1623 0.10374 11.018 5.0218 10.973 10.977 0.12451 8.3619-0.34862 16.75-1.846 24.752-0.24902 1.4524 0.7263 2.6728 2.1781 3.0712 0.16596 0.020751 0.29052 0.020751 0.45653 0.020751 1.2658 0 2.3856-0.91306 2.6147-2.2196 1.3903-8.3171 2.0336-17.182 1.9091-25.848-0.0083006-8.6666-7.2796-15.921-16.294-16.071zm-0.016601 14.293c-1.4526 0.020927-2.6346 1.2243-2.6147 2.6978 0.18676 12.18-1.3488 23.922-4.6068 35.709l-0.20751 0.70554c-0.30712 1.1123 0.29052 3.3866 2.5649 3.3866 1.0127 0 2.2196-0.7678 2.5516-1.929l0.20751-0.72629c3.3816-12.139 5.0002-24.52 4.7927-37.219-0.014941-1.4783-1.343-2.6404-2.6877-2.624zm-23.789-17.63c-4.1652 5.1463-6.4064 11.637-6.3034 18.294 0.10376 6.5574-0.43578 13.135-1.5979 19.506-0.26977 1.4524 0.68479 2.8421 2.1366 3.0911 0.016601 0.041503 0.31127 0.041503 0.47728 0.041503 1.2658 0 2.3856-0.8923 2.6147-2.1781 1.2285-6.7151 1.7929-13.638 1.6767-20.544-0.099606-5.4783 1.6933-10.625 5.1297-14.858 0.93381-1.1412 0.74705-2.6728-0.39428-3.7352-1.1164-0.92966-2.7931-0.76365-3.7394 0.38182zm66.288 17.116c-0.041503-2.7392-0.35792-5.4999-0.95971-8.1777-0.31127-1.4109-1.7166-2.3225-3.1492-2.0104-1.4318 0.31127-2.3491 1.7215-2.037 3.1525 0.51878 2.1747 0.79204 4.7313 0.83354 7.1185 0.020751 1.2657 0.020751 2.5317 0.020751 3.7966-0.020751 1.4732 1.0127 2.6761 2.6346 2.6761 1.4526 0 2.5068-1.1619 2.6761-2.6346-0.0024902-1.3148-0.0024902-2.6097-0.019091-3.9212zm-43.03-41.979c-11.621-0.2075-22.279 3.9964-30.252 12.113-7.6979 7.7045-11.843 17.898-11.677 28.771 0.020751 1.2451 0.020751 2.4902-0.020751 3.7518-0.041503 1.4524 1.1206 2.6761 2.5732 2.7176h0.083005c1.4318 0 2.6147-1.1412 2.5068-2.5732 0.041503-1.3279 0.041121-2.6545 0.02037-3.9826 0.0034696-9.426 3.5993-18.274 10.26-24.94 6.9343-6.9309 16.281-10.693 26.424-10.547 12.388 0.18676 24.022 6.3333 31.144 16.48 0.8508 1.2034 2.5167 1.513 3.6987 0.66221 1.2036-0.68064 1.4893-2.5068 0.63848-3.7103-8.089-11.538-21.303-18.535-35.398-18.743zm0.19921 14.113c-2.54-0.041502-5.0467 0.22743-7.4871 0.80847-1.4318 0.18261-2.1747 1.763-1.9705 3.1957 0.18261 1.4317 1.7846 2.3026 3.1957 1.9705 2.0121-0.47728 4.0009-0.70554 6.1839-0.51463 13.737 0.20751 25.084 11.204 25.3 24.553 0.10376 6.5773-0.22826 13.218-0.95456 19.705-0.016601 1.4524 0.87156 2.7591 2.1747 2.9251 0.10381 0.020751 0.20751 0.020751 0.31127 0.020751 1.1787 0 2.4686-0.84665 2.6346-2.3441 0.7678-6.7234 1.0998-13.591 0.84665-20.403 0.045653-16.328-13.65-29.668-30.235-29.917z"/>
</g>
<text fill="#10172A" font-family="ProximaNova-Regular, Proxima Nova" font-size="24"><tspan x="2351" y="727">d58a5ef7b13716f84f8d7af05dbf</tspan> <tspan x="2351" y="756">8818e81accccf29b4b1d419a90f7</tspan> <tspan x="2351" y="785">b9de2a19</tspan></text>
<path id="b" d="m977 588-13.657 23.097-5.4238-8.4022-160.33 103.49-1.6804 1.0846-2.1691-3.3608 162.01-104.57-5.4221-8.4015 26.672-2.9325z" fill="#10172A" fill-rule="nonzero"/>
<path d="m1932 588-13.657 23.097-5.4238-8.4022-160.33 103.49-1.6804 1.0846-2.1691-3.3608 162.01-104.57-5.4221-8.4015 26.672-2.9325z" fill="#10172A" fill-rule="nonzero"/>
</g>
</svg>
