<?xml version="1.0" encoding="UTF-8"?>
<svg width="748px" height="623px" viewBox="0 0 748 623" version="1.1" xmlns="http://www.w3.org/2000/svg" xmlns:xlink="http://www.w3.org/1999/xlink">
    <title>Group</title>
    <g id="Page-1" stroke="none" stroke-width="1" fill="none" fill-rule="evenodd">
        <g id="Group" transform="translate(3.000000, 3.000000)" stroke="#417158" stroke-width="6">
            <line x1="323.5" y1="61.5" x2="338.5" y2="292.5" id="Line" stroke-linecap="square"></line>
            <line x1="349.5" y1="405.5" x2="361.5" y2="556.5" id="Line" stroke-linecap="square"></line>
            <line x1="313.5" y1="388.5" x2="174.5" y2="563.5" id="Line" stroke-linecap="square"></line>
            <circle id="Oval" fill="#ABCFBC" cx="126.5" cy="171.5" r="30.5"></circle>
            <circle id="Oval" fill="#ABCFBC" cx="157.5" cy="586.5" r="30.5"></circle>
            <circle id="Oval" fill="#ABCFBC" cx="323.5" cy="30.5" r="30.5"></circle>
            <circle id="Oval" fill="#ABCFBC" cx="361.5" cy="586.5" r="30.5"></circle>
            <line x1="146.5" y1="196.5" x2="292.5" y2="341.5" id="Line" stroke-linecap="square"></line>
            <line x1="60.5" y1="388.5" x2="298.5" y2="363.5" id="Line" stroke-linecap="square"></line>
            <line x1="381.5" y1="396.5" x2="545.5" y2="570.5" id="Line" stroke-linecap="square"></line>
            <line x1="406.5" y1="348.5" x2="568.5" y2="274.5" id="Line" stroke-linecap="square"></line>
            <line x1="381.5" y1="378.5" x2="681.5" y2="445.5" id="Line" stroke-linecap="square"></line>
            <circle id="Oval" fill="#ABCFBC" cx="567.5" cy="586.5" r="30.5"></circle>
            <circle id="Oval" fill="#ABCFBC" cx="598.5" cy="260.5" r="30.5"></circle>
            <circle id="Oval" fill="#ABCFBC" cx="30.5" cy="388.5" r="30.5"></circle>
            <circle id="Oval" fill="#ABCFBC" cx="711.5" cy="445.5" r="30.5"></circle>
            <circle id="Oval" fill="#ABCFBC" cx="349" cy="348" r="57"></circle>
        </g>
    </g>
</svg>