<?xml version="1.0" encoding="UTF-8"?>
<svg width="7850px" height="2229px" viewBox="0 0 7850 2229" version="1.1" xmlns="http://www.w3.org/2000/svg" xmlns:xlink="http://www.w3.org/1999/xlink">
    <title>Group 10</title>
    <g id="Page-1" stroke="none" stroke-width="1" fill="none" fill-rule="evenodd">
        <g id="Group-10" transform="translate(0.500000, 0.000000)">
            <g id="TWO" transform="translate(1050.500000, 356.000000)">
                <path id="Line-3" d="M422.089212,928.499878 C425.874663,928.502122 428.956528,931.508733 429.081145,935.263374 L429.085061,935.504026 L429.041,1009.115 L454.627241,1009.13044 C456.993423,1009.13184 458.923666,1010.99474 459.033841,1013.33336 L459.038805,1013.54724 C459.038399,1014.23252 458.878447,1014.90829 458.571617,1015.52104 L458.571617,1015.52104 L425.947656,1080.67239 C424.856109,1082.85225 422.204106,1083.7345 420.024242,1082.64296 C419.17023,1082.21532 418.477957,1081.52222 418.051331,1080.6677 L418.051331,1080.6677 L385.504632,1015.47773 C384.415669,1013.29657 385.301068,1010.64562 387.482224,1009.55666 C388.095339,1009.25055 388.771302,1009.0914 389.456582,1009.09181 L389.456582,1009.09181 L415.041,1009.106 L415.085064,935.495728 C415.087355,931.629735 418.223219,928.497587 422.089212,928.499878 Z M422.172199,788.499903 C425.95765,788.502147 429.039516,791.508757 429.164132,795.263399 L429.168049,795.504051 L429.108772,895.504033 C429.10648,899.370026 425.970616,902.502174 422.104624,902.499883 C418.319173,902.497639 415.237307,899.491028 415.112691,895.736387 L415.108774,895.495735 L415.168051,795.495752 C415.170343,791.62976 418.306207,788.497611 422.172199,788.499903 Z M422.255187,648.499927 C426.040638,648.502171 429.122503,651.508782 429.24712,655.263423 L429.251036,655.504076 L429.191759,755.504058 C429.189468,759.370051 426.053604,762.502199 422.187611,762.499907 C418.40216,762.497664 415.320295,759.491053 415.195678,755.736411 L415.191762,755.495759 L415.251039,655.495777 C415.25333,651.629784 418.389194,648.497636 422.255187,648.499927 Z M422.338174,508.499952 C426.123625,508.502196 429.205491,511.508807 429.330107,515.263448 L429.334024,515.5041 L429.274747,615.504083 C429.272455,619.370075 426.136591,622.502224 422.270599,622.499932 C418.485148,622.497688 415.403282,619.491077 415.278666,615.736436 L415.274749,615.495784 L415.334026,515.495801 C415.336318,511.629809 418.472182,508.49766 422.338174,508.499952 Z M422.421162,368.499977 C426.206613,368.502221 429.288478,371.508831 429.413095,375.263473 L429.417011,375.504125 L429.357734,475.504107 C429.355443,479.3701 426.219579,482.502248 422.353586,482.499957 C418.568135,482.497713 415.48627,479.491102 415.361653,475.736461 L415.357737,475.495808 L415.417014,375.495826 C415.419305,371.629833 418.555169,368.497685 422.421162,368.499977 Z M422.504149,228.500001 C426.2896,228.502245 429.371466,231.508856 429.496082,235.263497 L429.499999,235.504149 L429.440722,335.504132 C429.43843,339.370124 426.302566,342.502273 422.436574,342.499981 C418.651123,342.497737 415.569257,339.491127 415.444641,335.736485 L415.440724,335.495833 L415.500001,235.495851 C415.502293,231.629858 418.638157,228.49771 422.504149,228.500001 Z" transform="translate(422.000000, 657.000000) scale(1, -1) rotate(270.000000) translate(-422.000000, -657.000000) " fill="#10172A" fill-rule="nonzero"></path>
                <g id="Group-8" transform="translate(966.500000, 0.000000)">
                    <rect id="Rectangle" fill="#DFEFFF" x="0.5" y="0" width="1311" height="1040" rx="14"></rect>
                    <g id="signature-lock-light" transform="translate(487.500000, 104.000000)" fill="#10172A" fill-rule="nonzero">
                        <path d="M33.7,75.9 C33.7,80.5383333 29.9298125,84.3333333 25.275,84.3333333 C20.6201875,84.3333333 16.85,80.5383333 16.85,75.9 L16.85,50.6 C16.85,22.6540417 39.4816563,0 67.4,0 C95.3078125,0 117.95,22.6540417 117.95,50.6 L117.95,52.3920833 C117.95,64.515 117.054844,76.6379167 115.211875,88.6027083 L191.563438,67.7829167 C194.775469,66.886875 198.198125,67.519375 200.304375,70.5764583 C202.410625,73.1064583 202.779219,76.690625 201.304844,79.695 L173.712969,134.933333 L219.05,134.933333 L219.05,139.46625 C213.942344,142.417917 209.677188,146.687292 206.728438,151.8 L160.075,151.8 C157.178906,151.8 154.440781,150.271458 152.91375,147.794167 C151.386719,145.316875 151.22875,142.207083 152.545156,139.571667 L177.820156,89.024375 L111.736563,107.050625 C110.946719,110.476667 109.577656,113.955417 109.10375,117.381458 L105.3125,130.9275 C99.3623438,152.537917 90.779375,173.357708 79.7742188,192.438125 L65.504375,218.265208 C59.2909375,229.28125 47.6539063,236.133333 35.005875,236.133333 C15.6705,236.133333 0,220.42625 0,201.082292 L0,152.274375 C0,133.246667 12.7164844,116.590833 31.0408594,111.583542 L97.30875,93.5045833 C99.83625,79.9585417 101.1,66.2016667 101.1,52.3920833 L101.1,50.6 C101.1,31.9676042 85.9876563,16.8666667 67.4,16.8666667 C48.7860156,16.8666667 33.7,31.9676042 33.7,50.6 L33.7,75.9 Z M16.85,152.274375 L16.85,201.082292 C16.85,211.149583 24.980125,219.266667 35.005875,219.266667 C41.5668438,219.266667 47.6117813,215.735208 50.8290781,209.99 L65.083125,184.637292 C75.40375,166.294792 83.4601563,146.74 89.094375,126.447292 L92.885625,112.848542 L93.0435938,112.110625 L35.4745156,127.870417 C24.4798906,130.874792 16.85,140.836667 16.85,152.274375 L16.85,152.274375 Z M126.375,185.533333 L202.2,185.533333 L202.2,202.4 L126.375,202.4 C121.74125,202.4 117.95,198.605 117.95,193.966667 C117.95,189.328333 121.74125,185.533333 126.375,185.533333 Z M278.025,84.3333333 C301.299062,84.3333333 320.15,103.202917 320.15,126.5 L320.15,151.8 C329.470156,151.8 337,159.337292 337,168.666667 L337,236.133333 C337,245.462708 329.470156,253 320.15,253 L235.9,253 C226.579844,253 219.05,245.462708 219.05,236.133333 L219.05,168.666667 C219.05,159.337292 226.579844,151.8 235.9,151.8 L235.9,126.5 C235.9,103.202917 254.750937,84.3333333 278.025,84.3333333 Z M278.025,101.2 C264.071094,101.2 252.75,112.532292 252.75,126.5 L252.75,151.8 L303.3,151.8 L303.3,126.5 C303.3,112.532292 291.978906,101.2 278.025,101.2 Z M320.15,168.666667 L235.9,168.666667 L235.9,236.133333 L320.15,236.133333 L320.15,168.666667 Z" id="Shape"></path>
                    </g>
                    <text id="Transaction" font-family="ProximaNova-Bold, Proxima Nova" font-size="144" font-weight="bold" fill="#10172A">
                        <tspan x="272.384" y="1282">Transaction</tspan>
                    </text>
                    <text id="Eki-€-2000,-Dwi-€-19" font-family="ProximaNova-Bold, Proxima Nova" font-size="144" font-weight="bold" fill="#10172A">
                        <tspan x="274.18" y="560">Eki € 2000, </tspan>
                        <tspan x="262.084" y="733">Dwi € 1900, </tspan>
                        <tspan x="349.348" y="906">Tri € 900</tspan>
                    </text>
                </g>
            </g>
            <g id="tower-broadcast-light" transform="translate(4058.000000, 561.000000)">
                <text id="Broadcast" font-family="ProximaNova-Bold, Proxima Nova" font-size="144" font-weight="bold" fill="#10172A">
                    <tspan x="84.952" y="1077">Broadcast</tspan>
                </text>
                <circle id="Oval" fill="#DFEFFF" cx="415" cy="414.5" r="414.5"></circle>
                <path d="M274.472389,253 C268.698184,253 263.336422,256.657512 261.785635,262.296351 C257.768438,277.051801 255.5,291.874131 255.5,306.50418 C255.5,321.134229 257.768438,336.700602 261.789759,350.703649 C263.439532,356.346668 268.595073,360 274.369278,360 C283.236808,360 289.423456,351.430971 286.948797,342.861942 C283.628629,332.002266 281.896367,319.880225 281.896367,306.50418 C281.896367,293.128135 283.649251,281.741777 286.948797,270.146418 C289.402834,262.321431 283.381163,253 274.472389,253 Z M208.257887,200 C203.156695,200 198.363909,202.936103 195.421554,207.654841 C182.418517,238.06029 174.5,271.82548 174.5,306.622501 C174.5,341.419522 182.418517,376.669541 195.421554,407.121129 C198.363909,411.818895 203.156695,414 208.257887,414 C218.051841,414 224.303302,403.832693 220.24402,394.915327 C208.049505,368.700118 201.172898,338.835751 201.172898,306.622501 C201.172898,274.409251 208.049505,245.283105 220.24402,218.371619 C224.303302,210.167307 218.051841,200 208.257887,200 Z M557.03109,253 C547.891755,253 541.515474,261.568359 544.065986,270.136719 C547.509178,282.483516 549.294536,294.629687 549.294536,306.5 C549.294536,318.370313 547.487924,331.268828 544.087241,342.863281 C541.536728,351.431641 547.806738,360 556.941822,360 C562.893017,360 568.419127,356.342773 570.017448,350.704375 C574.204539,337.429688 576.5,322.633594 576.5,306.5 C576.5,290.366406 574.16203,276.305938 570.017448,262.303984 C568.423378,257.405391 562.982285,253 557.03109,253 Z M634.087039,207.62942 C632.670607,202.926353 627.838073,200 622.75558,200 C612.965532,200 606.716565,210.133542 610.774228,219.021293 C623.005538,245.876851 629.837742,275.658761 629.837742,306.268412 C629.837742,336.878062 623.005538,368.139871 610.757564,394.978707 C606.695735,403.858097 612.944702,414 622.738916,414 C627.842239,414 632.637279,411.073647 634.820251,406.37058 C648.584642,376.082829 656.5,342.471576 656.5,306.268412 C656.5,270.065247 648.584642,237.933893 634.087039,207.62942 Z M403.194752,255.476818 C383.963722,259.927254 368.328059,275.579066 363.980173,294.802939 C356.956667,325.169631 375.769631,352.19013 402.60946,359.217134 L402.60946,615.368125 C402.60946,622.759863 408.599508,628 415.987568,628 C423.375628,628 429.365676,622.008643 429.365676,615.368125 L429.365676,359.217134 C452.409467,353.246691 469.5,332.48106 469.5,307.568661 C469.5,273.797219 438.312286,247.362303 403.194752,255.476818 Z M415.5,334 C400.61625,334 388.5,321.93851 388.5,307.122029 C388.5,292.305547 400.61625,281 415.5,281 C430.38375,281 442.5,293.06149 442.5,307.122029 C442.5,321.182567 430.35,334 415.5,334 Z" id="Shape" fill="#000000" fill-rule="nonzero"></path>
            </g>
            <g id="tower-broadcast-light" transform="translate(0.000000, 561.000000)">
                <text id="Eki’s-computer" font-family="ProximaNova-Bold, Proxima Nova" font-size="144" font-weight="bold" fill="#10172A">
                    <tspan x="12.528" y="1077">Eki’s computer</tspan>
                </text>
                <circle id="Oval" fill="#DFEFFF" cx="495" cy="414.5" r="414.5"></circle>
                <g id="computer-thin" transform="translate(225.500000, 225.000000)" fill="#10172A" fill-rule="nonzero">
                    <path d="M40.5,60.75 C40.5,49.5703125 49.5703125,40.5 60.75,40.5 L317.25,40.5 C328.471875,40.5 337.5,49.5703125 337.5,60.75 L337.5,236.25 C337.5,247.471875 328.471875,256.5 317.25,256.5 L60.75,256.5 C49.5703125,256.5 40.5,247.471875 40.5,236.25 L40.5,60.75 Z M54,60.75 L54,236.25 C54,239.9625 57.020625,243 60.75,243 L317.25,243 C320.9625,243 324,239.9625 324,236.25 L324,60.75 C324,57.020625 320.9625,54 317.25,54 L60.75,54 C57.020625,54 54,57.020625 54,60.75 Z M145.884375,297 L54,297 C24.1734375,297 0,272.784375 0,243 L0,54 C0,24.1734375 24.1734375,0 54,0 L324,0 C353.784375,0 378,24.1734375 378,54 L378,243 C378,272.784375 353.784375,297 324,297 L232.115625,297 L254.64375,364.5 L317.25,364.5 C320.9625,364.5 324,367.5375 324,371.25 C324,374.9625 320.9625,378 317.25,378 L60.75,378 C57.020625,378 54,374.9625 54,371.25 C54,367.5375 57.020625,364.5 60.75,364.5 L123.35625,364.5 L145.884375,297 Z M13.5,54 L13.5,243 C13.5,265.359375 31.6321875,283.5 54,283.5 L324,283.5 C346.359375,283.5 364.5,265.359375 364.5,243 L364.5,54 C364.5,31.6321875 346.359375,13.5 324,13.5 L54,13.5 C31.6321875,13.5 13.5,31.6321875 13.5,54 Z M160.14375,297 L137.615625,364.5 L240.384375,364.5 L217.85625,297 L160.14375,297 Z M438.75,87.75 C438.75,84.0375 441.7875,81 445.5,81 L499.5,81 C503.2125,81 506.25,84.0375 506.25,87.75 C506.25,91.4625 503.2125,94.5 499.5,94.5 L445.5,94.5 C441.7875,94.5 438.75,91.4625 438.75,87.75 Z M499.5,135 C503.2125,135 506.25,138.0375 506.25,141.75 C506.25,145.4625 503.2125,148.5 499.5,148.5 L445.5,148.5 C441.7875,148.5 438.75,145.4625 438.75,141.75 C438.75,138.0375 441.7875,135 445.5,135 L499.5,135 Z M486,256.5 C486,263.925 479.925,270 472.5,270 C465.075,270 459,263.925 459,256.5 C459,249.075 465.075,243 472.5,243 C479.925,243 486,249.075 486,256.5 Z M499.5,0 C521.859375,0 540,18.1321875 540,40.5 L540,337.5 C540,359.859375 521.859375,378 499.5,378 L445.5,378 C423.140625,378 405,359.859375 405,337.5 L405,40.5 C405,18.1321875 423.140625,0 445.5,0 L499.5,0 Z M499.5,13.5 L445.5,13.5 C430.565625,13.5 418.5,25.5909375 418.5,40.5 L418.5,337.5 C418.5,352.434375 430.565625,364.5 445.5,364.5 L499.5,364.5 C514.434375,364.5 526.5,352.434375 526.5,337.5 L526.5,40.5 C526.5,25.5909375 514.434375,13.5 499.5,13.5 Z" id="Shape"></path>
                </g>
            </g>
            <path id="Line-3" d="M3715.82932,1176.49917 C3719.61476,1176.49157 3722.70443,1179.49015 3722.83882,1183.24446 L3722.84336,1183.4851 L3722.859,1191.596 L3748.44541,1191.54582 C3750.81159,1191.54107 3752.74667,1193.39894 3752.86293,1195.73727 L3752.86845,1195.95113 C3752.86983,1196.63641 3752.71163,1197.31259 3752.4064,1197.92614 L3752.4064,1197.92614 L3719.95199,1263.16211 C3718.86612,1265.34481 3716.21642,1266.23396 3714.03372,1265.14808 C3713.1786,1264.72267 3712.48453,1264.03137 3712.05568,1263.17797 L3712.05568,1263.17797 L3679.33955,1198.07286 C3678.24492,1195.89454 3679.12342,1193.2413 3681.30173,1192.14666 C3681.91405,1191.83897 3682.5896,1191.67806 3683.27487,1191.67668 L3683.27487,1191.67668 L3708.859,1191.625 L3708.84339,1183.51321 C3708.83562,1179.64722 3711.96333,1176.50693 3715.82932,1176.49917 Z M3715.54819,1036.49945 C3719.33364,1036.49185 3722.42331,1039.49043 3722.55769,1043.24474 L3722.56223,1043.48538 L3722.76304,1143.48518 C3722.7708,1147.35116 3719.64309,1150.49146 3715.77711,1150.49922 C3711.99166,1150.50682 3708.90199,1147.50824 3708.76761,1143.75393 L3708.76306,1143.51329 L3708.56226,1043.51349 C3708.5545,1039.64751 3711.68221,1036.50721 3715.54819,1036.49945 Z M3715.26707,896.499732 C3719.05251,896.492131 3722.14219,899.490716 3722.27657,903.24502 L3722.28111,903.485662 L3722.48191,1003.48546 C3722.48968,1007.35145 3719.36197,1010.49174 3715.49598,1010.4995 C3711.71054,1010.5071 3708.62086,1007.50852 3708.48648,1003.75421 L3708.48194,1003.51357 L3708.28114,903.513774 C3708.27338,899.647788 3711.40108,896.507495 3715.26707,896.499732 Z M3714.98594,756.500014 C3718.77139,756.492413 3721.86106,759.490998 3721.99544,763.245303 L3721.99999,763.485944 L3722.20079,863.485742 C3722.20855,867.351728 3719.08084,870.492021 3715.21486,870.499784 C3711.42941,870.507386 3708.33974,867.5088 3708.20536,863.754496 L3708.20082,863.513855 L3708.00001,763.514056 C3707.99225,759.648071 3711.11996,756.507777 3714.98594,756.500014 Z" transform="translate(3715.500000, 1012.500000) scale(1, -1) rotate(270.000000) translate(-3715.500000, -1012.500000) " fill="#10172A" fill-rule="nonzero"></path>
            <path id="Line-3" d="M5277.82932,1176.49917 C5281.61476,1176.49157 5284.70443,1179.49015 5284.83882,1183.24446 L5284.84336,1183.4851 L5284.859,1191.596 L5310.44541,1191.54582 C5312.81159,1191.54107 5314.74667,1193.39894 5314.86293,1195.73727 L5314.86845,1195.95113 C5314.86983,1196.63641 5314.71163,1197.31259 5314.4064,1197.92614 L5314.4064,1197.92614 L5281.95199,1263.16211 C5280.86612,1265.34481 5278.21642,1266.23396 5276.03372,1265.14808 C5275.1786,1264.72267 5274.48453,1264.03137 5274.05568,1263.17797 L5274.05568,1263.17797 L5241.33955,1198.07286 C5240.24492,1195.89454 5241.12342,1193.2413 5243.30173,1192.14666 C5243.91405,1191.83897 5244.5896,1191.67806 5245.27487,1191.67668 L5245.27487,1191.67668 L5270.859,1191.625 L5270.84339,1183.51321 C5270.83562,1179.64722 5273.96333,1176.50693 5277.82932,1176.49917 Z M5277.54819,1036.49945 C5281.33364,1036.49185 5284.42331,1039.49043 5284.55769,1043.24474 L5284.56223,1043.48538 L5284.76304,1143.48518 C5284.7708,1147.35116 5281.64309,1150.49146 5277.77711,1150.49922 C5273.99166,1150.50682 5270.90199,1147.50824 5270.76761,1143.75393 L5270.76306,1143.51329 L5270.56226,1043.51349 C5270.5545,1039.64751 5273.68221,1036.50721 5277.54819,1036.49945 Z M5277.26707,896.499732 C5281.05251,896.492131 5284.14219,899.490716 5284.27657,903.24502 L5284.28111,903.485662 L5284.48191,1003.48546 C5284.48968,1007.35145 5281.36197,1010.49174 5277.49598,1010.4995 C5273.71054,1010.5071 5270.62086,1007.50852 5270.48648,1003.75421 L5270.48194,1003.51357 L5270.28114,903.513774 C5270.27338,899.647788 5273.40108,896.507495 5277.26707,896.499732 Z M5276.98594,756.500014 C5280.77139,756.492413 5283.86106,759.490998 5283.99544,763.245303 L5283.99999,763.485944 L5284.20079,863.485742 C5284.20855,867.351728 5281.08084,870.492021 5277.21486,870.499784 C5273.42941,870.507386 5270.33974,867.5088 5270.20536,863.754496 L5270.20082,863.513855 L5270.00001,763.514056 C5269.99225,759.648071 5273.11996,756.507777 5276.98594,756.500014 Z" transform="translate(5277.500000, 1012.500000) scale(1, -1) rotate(270.000000) translate(-5277.500000, -1012.500000) " fill="#10172A" fill-rule="nonzero"></path>
            <g id="Group-9" transform="translate(5620.500000, 0.000000)">
                <circle id="Oval" stroke="#10172A" stroke-width="20" fill="#DFEFFF" cx="1115" cy="1114" r="823"></circle>
                <g id="user-hair-long-solid" transform="translate(0.000000, 823.000000)">
                    <circle id="Oval" fill="#F8FAFC" cx="291" cy="291" r="291"></circle>
                    <path d="M354.742857,190.040816 C354.742857,181.013878 352.842449,172.462041 349.437551,164.702041 L348.408163,164.702041 C332.17551,164.702041 317.764082,157.100408 308.499592,145.302041 C297.651429,164.46449 276.98449,177.371429 253.387755,177.371429 L229.315918,177.371429 C228.524082,181.48898 228.04898,185.685714 228.04898,190.040816 L228.04898,202.710204 C228.04898,237.709388 256.396735,266.057143 291.395918,266.057143 C326.395102,266.057143 354.742857,237.709388 354.742857,202.710204 L354.742857,190.040816 Z M190.040816,190.040816 C190.040816,134.057959 235.413061,88.6857143 291.395918,88.6857143 C347.378776,88.6857143 392.75102,134.057959 392.75102,190.040816 L392.75102,198.75102 C392.75102,225.594286 403.440816,251.408163 422.444898,270.412245 L425.533061,273.500408 C428.858776,276.826122 430.759184,281.418776 430.759184,286.169796 C430.759184,296.067755 422.761633,304.065306 412.863673,304.065306 L291.395918,304.065306 L169.928163,304.065306 C160.030204,304.065306 152.032653,296.067755 152.032653,286.169796 C152.032653,281.418776 153.933061,276.826122 157.258776,273.500408 L160.346939,270.412245 C179.35102,251.408163 190.040816,225.594286 190.040816,198.75102 L190.040816,190.040816 Z M241.747755,342.073469 L341.044082,342.073469 C411.596735,342.073469 468.767347,399.244082 468.767347,469.796735 C468.767347,483.257959 457.84,494.106122 444.457959,494.106122 L138.333878,494.106122 C124.951837,494.106122 114.02449,483.178776 114.02449,469.796735 C114.02449,399.244082 171.195102,342.073469 241.747755,342.073469 Z" id="Shape" fill="#10172A" fill-rule="nonzero"></path>
                </g>
                <g id="user-hair-buns-solid" transform="translate(824.000000, 1647.000000)">
                    <circle id="Oval" fill="#F8FAFC" cx="291" cy="291" r="291"></circle>
                    <path d="M353.95102,189.24898 L353.95102,201.918367 C353.95102,236.917551 325.603265,265.265306 290.604082,265.265306 C255.604898,265.265306 227.257143,236.917551 227.257143,201.918367 L227.257143,189.24898 C227.257143,184.893878 227.732245,180.697143 228.524082,176.579592 L239.926531,176.579592 C260.672653,176.579592 279.043265,166.602449 290.604082,151.240816 C302.164898,166.602449 320.53551,176.579592 341.281633,176.579592 L352.684082,176.579592 C353.475918,180.697143 353.95102,184.893878 353.95102,189.24898 Z M179.746939,239.926531 C185.289796,239.926531 190.595102,238.659592 195.266939,236.284082 C209.361633,275.321633 246.736327,303.273469 290.604082,303.273469 C334.471837,303.273469 371.925714,275.321633 385.941224,236.284082 C390.613061,238.580408 395.839184,239.926531 401.461224,239.926531 C420.702857,239.926531 436.302041,224.327347 436.302041,205.085714 L436.302041,173.412245 C436.302041,154.170612 420.702857,138.571429 401.461224,138.571429 C394.097143,138.571429 387.287347,140.867755 381.665306,144.747755 C365.195102,111.094694 330.591837,87.8938776 290.604082,87.8938776 C250.616327,87.8938776 216.013061,111.094694 199.542857,144.747755 C193.920816,140.867755 187.11102,138.571429 179.746939,138.571429 C160.505306,138.571429 144.906122,154.170612 144.906122,173.412245 L144.906122,205.085714 C144.906122,224.327347 160.505306,239.926531 179.746939,239.926531 Z M240.955918,341.281633 C170.403265,341.281633 113.232653,398.452245 113.232653,469.004898 C113.232653,482.466122 124.16,493.314286 137.542041,493.314286 L443.666122,493.314286 C457.127347,493.314286 467.97551,482.386939 467.97551,469.004898 C467.97551,398.452245 410.804898,341.281633 340.252245,341.281633 L240.955918,341.281633 Z" id="Shape" fill="#10172A" fill-rule="nonzero"></path>
                </g>
                <g id="user-shakespeare-solid" transform="translate(1647.000000, 823.000000)">
                    <circle id="Oval" fill="#F8FAFC" cx="291" cy="291" r="291"></circle>
                    <path d="M290.604082,126.693878 C255.604898,126.693878 227.257143,155.041633 227.257143,190.040816 L227.257143,215.379592 C227.257143,247.132245 250.616327,273.421224 281.102041,278.013878 L281.102041,266.057143 C281.102041,260.83102 285.377959,256.555102 290.604082,256.555102 C295.830204,256.555102 300.106122,260.83102 300.106122,266.057143 L300.106122,278.013878 C330.591837,273.421224 353.95102,247.132245 353.95102,215.379592 L353.95102,190.040816 C353.95102,155.041633 325.603265,126.693878 290.604082,126.693878 Z M189.24898,190.040816 C189.24898,134.057959 234.621224,88.6857143 290.604082,88.6857143 C346.586939,88.6857143 391.959184,134.057959 391.959184,190.040816 L391.959184,208.411429 C391.959184,217.042449 394.88898,225.435918 400.273469,232.166531 L409.062857,243.093878 C414.368163,249.745306 417.297959,257.980408 417.297959,266.532245 C417.297959,287.278367 400.51102,304.065306 379.764898,304.065306 L339.697959,304.065306 C325.128163,312.142041 308.420408,316.734694 290.604082,316.734694 C272.787755,316.734694 256.08,312.142041 241.510204,304.065306 L201.443265,304.065306 C180.697143,304.065306 163.910204,287.278367 163.910204,266.532245 C163.910204,257.980408 166.84,249.745306 172.145306,243.093878 L180.934694,232.087347 C186.319184,225.356735 189.24898,216.963265 189.24898,208.332245 L189.24898,190.040816 Z M265.265306,202.710204 C258.297143,202.710204 252.595918,197.00898 252.595918,190.040816 C252.595918,183.072653 258.297143,177.371429 265.265306,177.371429 C272.233469,177.371429 277.934694,183.072653 277.934694,190.040816 C277.934694,197.00898 272.233469,202.710204 265.265306,202.710204 Z M328.612245,190.040816 C328.612245,197.00898 322.91102,202.710204 315.942857,202.710204 C308.974694,202.710204 303.273469,197.00898 303.273469,190.040816 C303.273469,183.072653 308.974694,177.371429 315.942857,177.371429 C322.91102,177.371429 328.612245,183.072653 328.612245,190.040816 Z M297.334694,221.318367 C298.918367,222.902041 302.085714,225.515102 305.807347,227.732245 C309.687347,230.028571 313.250612,231.216327 315.942857,231.216327 C321.16898,231.216327 325.444898,235.492245 325.444898,240.718367 C325.444898,245.94449 321.16898,250.220408 315.942857,250.220408 C308.420408,250.220408 301.452245,247.211429 296.305306,244.202449 C294.325714,243.014694 292.425306,241.747755 290.683265,240.56 C280.785306,247.844898 270.808163,250.220408 265.265306,250.220408 C260.039184,250.220408 255.763265,245.94449 255.763265,240.718367 C255.763265,235.492245 260.039184,231.216327 265.265306,231.216327 C266.928163,231.216327 275.48,229.711837 283.873469,221.318367 C287.595102,217.596735 293.613061,217.596735 297.334694,221.318367 Z M328.612245,329.404082 C347.537143,329.404082 364.878367,336.372245 378.181224,347.774694 C430.204898,363.928163 467.97551,412.467755 467.97551,469.717551 C467.97551,483.178776 457.048163,494.027366 443.666122,494.027366 L303.273469,494.027366 C303.273469,487.058776 297.572245,481.357551 290.604082,481.357551 C283.635918,481.357551 277.934694,487.058776 277.934694,494.027366 L137.542041,494.027366 C124.16,494.106122 113.232653,483.178776 113.232653,469.796735 C113.232653,412.467755 151.003265,364.007347 203.026939,347.853878 C216.329796,336.372245 233.67102,329.404082 252.595918,329.404082 L328.612245,329.404082 Z M277.934694,443.428571 C277.934694,450.396735 283.635918,456.097959 290.604082,456.097959 C297.572245,456.097959 303.273469,450.396735 303.273469,443.428571 C303.273469,436.460408 297.572245,430.759184 290.604082,430.759184 C283.635918,430.759184 277.934694,436.460408 277.934694,443.428571 Z M214.587755,405.420408 C235.492245,397.026939 257.822041,392.75102 280.389388,392.75102 L300.818776,392.75102 C323.386122,392.75102 345.715918,397.026939 366.620408,405.420408 C366.620408,384.436735 349.595918,367.412245 328.612245,367.412245 L252.595918,367.412245 C231.612245,367.412245 214.587755,384.436735 214.587755,405.420408 Z" id="Shape" fill="#10172A" fill-rule="nonzero"></path>
                </g>
                <g id="user-robot-solid" transform="translate(823.000000, 0.000000)">
                    <circle id="Oval" fill="#F8FAFC" cx="291" cy="291" r="291"></circle>
                    <path d="M291.395918,88.6857143 C298.364082,88.6857143 304.065306,94.3869388 304.065306,101.355102 L304.065306,139.363265 L354.742857,139.363265 C382.694694,139.363265 405.420408,162.08898 405.420408,190.040816 L405.420408,291.395918 C405.420408,319.347755 382.694694,342.073469 354.742857,342.073469 L228.04898,342.073469 C200.097143,342.073469 177.371429,319.347755 177.371429,291.395918 L177.371429,190.040816 C177.371429,162.08898 200.097143,139.363265 228.04898,139.363265 L278.726531,139.363265 L278.726531,101.355102 C278.726531,94.3869388 284.427755,88.6857143 291.395918,88.6857143 Z M126.693878,202.710204 C126.693878,195.742041 132.395102,190.040816 139.363265,190.040816 C146.331429,190.040816 152.032653,195.742041 152.032653,202.710204 L152.032653,278.726531 C152.032653,285.694694 146.331429,291.395918 139.363265,291.395918 C132.395102,291.395918 126.693878,285.694694 126.693878,278.726531 L126.693878,202.710204 Z M443.428571,190.040816 C450.396735,190.040816 456.097959,195.742041 456.097959,202.710204 L456.097959,278.726531 C456.097959,285.694694 450.396735,291.395918 443.428571,291.395918 C436.460408,291.395918 430.759184,285.694694 430.759184,278.726531 L430.759184,202.710204 C430.759184,195.742041 436.460408,190.040816 443.428571,190.040816 Z M240.718367,240.718367 C254.733878,240.718367 266.057143,229.395102 266.057143,215.379592 C266.057143,201.364082 254.733878,190.040816 240.718367,190.040816 C226.702857,190.040816 215.379592,201.364082 215.379592,215.379592 C215.379592,229.395102 226.702857,240.718367 240.718367,240.718367 Z M367.412245,215.379592 C367.412245,201.364082 356.08898,190.040816 342.073469,190.040816 C328.057959,190.040816 316.734694,201.364082 316.734694,215.379592 C316.734694,229.395102 328.057959,240.718367 342.073469,240.718367 C356.08898,240.718367 367.412245,229.395102 367.412245,215.379592 Z M240.718367,278.726531 C233.750204,278.726531 228.04898,284.427755 228.04898,291.395918 C228.04898,298.364082 233.750204,304.065306 240.718367,304.065306 C247.686531,304.065306 253.387755,298.364082 253.387755,291.395918 C253.387755,284.427755 247.686531,278.726531 240.718367,278.726531 Z M278.726531,291.395918 C278.726531,298.364082 284.427755,304.065306 291.395918,304.065306 C298.364082,304.065306 304.065306,298.364082 304.065306,291.395918 C304.065306,284.427755 298.364082,278.726531 291.395918,278.726531 C284.427755,278.726531 278.726531,284.427755 278.726531,291.395918 Z M342.073469,278.726531 C335.105306,278.726531 329.404082,284.427755 329.404082,291.395918 C329.404082,298.364082 335.105306,304.065306 342.073469,304.065306 C349.041633,304.065306 354.742857,298.364082 354.742857,291.395918 C354.742857,284.427755 349.041633,278.726531 342.073469,278.726531 Z M190.040816,367.412245 L392.75102,367.412245 C434.718367,367.412245 468.767347,401.461224 468.767347,443.428571 L468.767347,468.767347 C468.767347,482.782857 457.444082,494.106122 443.428571,494.106122 L392.75102,494.106122 L392.75102,443.428571 C392.75102,429.413061 381.427755,418.089796 367.412245,418.089796 L215.379592,418.089796 C201.364082,418.089796 190.040816,429.413061 190.040816,443.428571 L190.040816,494.106122 L139.363265,494.106122 C125.347755,494.106122 114.02449,482.782857 114.02449,468.767347 L114.02449,443.428571 C114.02449,401.461224 148.073469,367.412245 190.040816,367.412245 Z M253.387755,456.097959 L253.387755,494.106122 L228.04898,494.106122 L228.04898,456.097959 C228.04898,449.129796 233.750204,443.428571 240.718367,443.428571 C247.686531,443.428571 253.387755,449.129796 253.387755,456.097959 Z M291.395918,443.428571 C298.364082,443.428571 304.065306,449.129796 304.065306,456.097959 L304.065306,494.106122 L278.726531,494.106122 L278.726531,456.097959 C278.726531,449.129796 284.427755,443.428571 291.395918,443.428571 Z M354.742857,456.097959 L354.742857,494.106122 L329.404082,494.106122 L329.404082,456.097959 C329.404082,449.129796 335.105306,443.428571 342.073469,443.428571 C349.041633,443.428571 354.742857,449.129796 354.742857,456.097959 Z" id="Shape" fill="#10172A" fill-rule="nonzero"></path>
                </g>
                <text id="Peer-to-peer-network" font-family="ProximaNova-Bold, Proxima Nova" font-size="138" font-weight="bold" fill="#10172A">
                    <tspan x="730.877" y="1083">Peer to peer</tspan>
                    <tspan x="858.941" y="1249">network</tspan>
                </text>
            </g>
        </g>
    </g>
</svg>