<?xml version="1.0" encoding="UTF-8"?>
<svg width="7692px" height="1312px" viewBox="0 0 7692 1312" version="1.1" xmlns="http://www.w3.org/2000/svg" xmlns:xlink="http://www.w3.org/1999/xlink">
    <title>ONE</title>
    <g id="Page-1" stroke="none" stroke-width="1" fill="none" fill-rule="evenodd">
        <g id="ONE">
            <g id="Group-7">
                <g id="Group-5" transform="translate(0.000000, 313.000000)">
                    <circle id="Oval" fill="#DFEFFF" cx="363.5" cy="363.5" r="363.5"></circle>
                    <g id="key-light" transform="translate(142.000000, 141.000000)" fill="#10172A" fill-rule="nonzero">
                        <path d="M298.3125,124.875 C298.3125,113.341406 307.591406,104.0625 319.125,104.0625 C330.658594,104.0625 339.9375,113.341406 339.9375,124.875 C339.9375,136.408594 330.658594,145.6875 319.125,145.6875 C307.591406,145.6875 298.3125,136.408594 298.3125,124.875 Z M291.375,305.25 C283.136719,305.25 275.071875,304.642969 267.180469,303.342188 L242.899219,326.149219 C239.777344,330.832031 234.4875,333 228.9375,333 L194.25,333 L194.25,367.6875 C194.25,379.221094 184.971094,388.5 173.4375,388.5 L138.75,388.5 L138.75,423.1875 C138.75,434.721094 129.471094,444 117.9375,444 L20.8125,444 C9.32226562,444 0,434.721094 0,423.1875 L0,339.9375 C0,334.3875 2.19311719,329.097656 6.09546094,325.195312 L142.999219,188.353125 C140.224219,176.125781 138.75,164.939062 138.75,152.625 C138.75,68.334375 207.084375,0 291.375,0 C375.665625,0 444,68.334375 444,152.625 C444,236.915625 375.665625,305.25 291.375,305.25 Z M291.375,277.5 C360.316406,277.5 416.25,221.566406 416.25,152.625 C416.25,83.6575781 360.316406,27.75 291.375,27.75 C222.433594,27.75 166.5,83.6575781 166.5,152.625 C166.5,162.771094 167.714063,171.789844 169.188281,181.849219 L173.524219,197.025 L27.75,342.799219 L27.75,416.25 L111,416.25 L111,360.75 L166.5,360.75 L166.5,305.25 L226.075781,305.25 L257.554688,273.684375 L271.603125,275.939062 C278.020313,276.979688 284.610937,277.5 291.375,277.5 L291.375,277.5 Z" id="Shape"></path>
                    </g>
                    <text id="Private-key" font-family="ProximaNova-Bold, Proxima Nova" font-size="144" font-weight="bold" fill="#10172A">
                        <tspan x="0.832" y="969">Private key</tspan>
                    </text>
                </g>
                <g id="Group-60" transform="translate(4278.500000, 313.000000)">
                    <circle id="Oval" fill="#DFEFFF" cx="546" cy="363.5" r="363.5"></circle>
                    <text id="Digital-Signature" font-family="ProximaNova-Bold, Proxima Nova" font-size="144" font-weight="bold" fill="#10172A">
                        <tspan x="0.02" y="969">Digital Signature</tspan>
                    </text>
                    <g id="signature-lock-light" transform="translate(289.500000, 171.000000)" fill="#10172A" fill-rule="nonzero">
                        <path d="M51.2,115.2 C51.2,122.24 45.472,128 38.4,128 C31.328,128 25.6,122.24 25.6,115.2 L25.6,76.8 C25.6,34.384 59.984,0 102.4,0 C144.8,0 179.2,34.384 179.2,76.8 L179.2,79.52 C179.2,97.92 177.84,116.32 175.04,134.48 L291.04,102.88 C295.92,101.52 301.12,102.48 304.32,107.12 C307.52,110.96 308.08,116.4 305.84,120.96 L263.92,204.8 L332.8,204.8 L332.8,211.68 C325.04,216.16 318.56,222.64 314.08,230.4 L243.2,230.4 C238.8,230.4 234.64,228.08 232.32,224.32 C230,220.56 229.76,215.84 231.76,211.84 L270.16,135.12 L169.76,162.48 C168.56,167.68 166.48,172.96 165.76,178.16 L160,198.72 C150.96,231.52 137.92,263.12 121.2,292.08 L99.52,331.28 C90.08,348 72.4,358.4 53.184,358.4 C23.808,358.4 0,334.56 0,305.2 L0,231.12 C0,202.24 19.32,176.96 47.16,169.36 L147.84,141.92 C151.68,121.36 153.6,100.48 153.6,79.52 L153.6,76.8 C153.6,48.52 130.64,25.6 102.4,25.6 C74.12,25.6 51.2,48.52 51.2,76.8 L51.2,115.2 Z M25.6,231.12 L25.6,305.2 C25.6,320.48 37.952,332.8 53.184,332.8 C63.152,332.8 72.336,327.44 77.224,318.72 L98.88,280.24 C114.56,252.4 126.8,222.72 135.36,191.92 L141.12,171.28 L141.36,170.16 L53.896,194.08 C37.192,198.64 25.6,213.76 25.6,231.12 L25.6,231.12 Z M192,281.6 L307.2,281.6 L307.2,307.2 L192,307.2 C184.96,307.2 179.2,301.44 179.2,294.4 C179.2,287.36 184.96,281.6 192,281.6 Z M422.4,128 C457.76,128 486.4,156.64 486.4,192 L486.4,230.4 C500.56,230.4 512,241.84 512,256 L512,358.4 C512,372.56 500.56,384 486.4,384 L358.4,384 C344.24,384 332.8,372.56 332.8,358.4 L332.8,256 C332.8,241.84 344.24,230.4 358.4,230.4 L358.4,192 C358.4,156.64 387.04,128 422.4,128 Z M422.4,153.6 C401.2,153.6 384,170.8 384,192 L384,230.4 L460.8,230.4 L460.8,192 C460.8,170.8 443.6,153.6 422.4,153.6 Z M486.4,256 L358.4,256 L358.4,358.4 L486.4,358.4 L486.4,256 Z" id="Shape"></path>
                    </g>
                </g>
                <rect id="Rectangle" fill="#DFEFFF" x="1865" y="313" width="1311" height="727" rx="14"></rect>
                <text id="Data" font-family="ProximaNova-Bold, Proxima Nova" font-size="144" font-weight="bold" fill="#10172A">
                    <tspan x="2366.276" y="1282">Data</tspan>
                </text>
                <text id="Eki-€-2000,-Dwi-€-19" font-family="ProximaNova-Bold, Proxima Nova" font-size="144" font-weight="bold" fill="#10172A">
                    <tspan x="2138.68" y="560">Eki € 2000, </tspan>
                    <tspan x="2126.584" y="733">Dwi € 1900, </tspan>
                    <tspan x="2213.848" y="906">Tri € 900</tspan>
                </text>
                <rect id="Rectangle" fill="#DFEFFF" x="6380" y="0" width="1311" height="1040" rx="14"></rect>
                <g id="signature-lock-light" transform="translate(6867.000000, 104.000000)" fill="#10172A" fill-rule="nonzero">
                    <path d="M33.7,75.9 C33.7,80.5383333 29.9298125,84.3333333 25.275,84.3333333 C20.6201875,84.3333333 16.85,80.5383333 16.85,75.9 L16.85,50.6 C16.85,22.6540417 39.4816563,0 67.4,0 C95.3078125,0 117.95,22.6540417 117.95,50.6 L117.95,52.3920833 C117.95,64.515 117.054844,76.6379167 115.211875,88.6027083 L191.563438,67.7829167 C194.775469,66.886875 198.198125,67.519375 200.304375,70.5764583 C202.410625,73.1064583 202.779219,76.690625 201.304844,79.695 L173.712969,134.933333 L219.05,134.933333 L219.05,139.46625 C213.942344,142.417917 209.677188,146.687292 206.728438,151.8 L160.075,151.8 C157.178906,151.8 154.440781,150.271458 152.91375,147.794167 C151.386719,145.316875 151.22875,142.207083 152.545156,139.571667 L177.820156,89.024375 L111.736563,107.050625 C110.946719,110.476667 109.577656,113.955417 109.10375,117.381458 L105.3125,130.9275 C99.3623438,152.537917 90.779375,173.357708 79.7742188,192.438125 L65.504375,218.265208 C59.2909375,229.28125 47.6539063,236.133333 35.005875,236.133333 C15.6705,236.133333 0,220.42625 0,201.082292 L0,152.274375 C0,133.246667 12.7164844,116.590833 31.0408594,111.583542 L97.30875,93.5045833 C99.83625,79.9585417 101.1,66.2016667 101.1,52.3920833 L101.1,50.6 C101.1,31.9676042 85.9876563,16.8666667 67.4,16.8666667 C48.7860156,16.8666667 33.7,31.9676042 33.7,50.6 L33.7,75.9 Z M16.85,152.274375 L16.85,201.082292 C16.85,211.149583 24.980125,219.266667 35.005875,219.266667 C41.5668438,219.266667 47.6117813,215.735208 50.8290781,209.99 L65.083125,184.637292 C75.40375,166.294792 83.4601563,146.74 89.094375,126.447292 L92.885625,112.848542 L93.0435938,112.110625 L35.4745156,127.870417 C24.4798906,130.874792 16.85,140.836667 16.85,152.274375 L16.85,152.274375 Z M126.375,185.533333 L202.2,185.533333 L202.2,202.4 L126.375,202.4 C121.74125,202.4 117.95,198.605 117.95,193.966667 C117.95,189.328333 121.74125,185.533333 126.375,185.533333 Z M278.025,84.3333333 C301.299062,84.3333333 320.15,103.202917 320.15,126.5 L320.15,151.8 C329.470156,151.8 337,159.337292 337,168.666667 L337,236.133333 C337,245.462708 329.470156,253 320.15,253 L235.9,253 C226.579844,253 219.05,245.462708 219.05,236.133333 L219.05,168.666667 C219.05,159.337292 226.579844,151.8 235.9,151.8 L235.9,126.5 C235.9,103.202917 254.750937,84.3333333 278.025,84.3333333 Z M278.025,101.2 C264.071094,101.2 252.75,112.532292 252.75,126.5 L252.75,151.8 L303.3,151.8 L303.3,126.5 C303.3,112.532292 291.978906,101.2 278.025,101.2 Z M320.15,168.666667 L235.9,168.666667 L235.9,236.133333 L320.15,236.133333 L320.15,168.666667 Z" id="Shape"></path>
                </g>
                <text id="Transaction" font-family="ProximaNova-Bold, Proxima Nova" font-size="144" font-weight="bold" fill="#10172A">
                    <tspan x="6651.884" y="1282">Transaction</tspan>
                </text>
                <text id="Eki-€-2000,-Dwi-€-19" font-family="ProximaNova-Bold, Proxima Nova" font-size="144" font-weight="bold" fill="#10172A">
                    <tspan x="6653.68" y="560">Eki € 2000, </tspan>
                    <tspan x="6641.584" y="733">Dwi € 1900, </tspan>
                    <tspan x="6728.848" y="906">Tri € 900</tspan>
                </text>
                <path id="Line-3" d="M1331.08921,1083.49988 C1334.87466,1083.50212 1337.95653,1086.50873 1338.08114,1090.26337 L1338.08506,1090.50403 L1338.041,1164.115 L1363.62724,1164.13044 C1365.99342,1164.13184 1367.92367,1165.99474 1368.03384,1168.33336 L1368.0388,1168.54724 C1368.0384,1169.23252 1367.87845,1169.90829 1367.57162,1170.52104 L1367.57162,1170.52104 L1334.94766,1235.67239 C1333.85611,1237.85225 1331.20411,1238.7345 1329.02424,1237.64296 C1328.17023,1237.21532 1327.47796,1236.52222 1327.05133,1235.6677 L1327.05133,1235.6677 L1294.50463,1170.47773 C1293.41567,1168.29657 1294.30107,1165.64562 1296.48222,1164.55666 C1297.09534,1164.25055 1297.7713,1164.0914 1298.45658,1164.09181 L1298.45658,1164.09181 L1324.041,1164.106 L1324.08506,1090.49573 C1324.08736,1086.62974 1327.22322,1083.49759 1331.08921,1083.49988 Z M1331.1722,943.499903 C1334.95765,943.502147 1338.03952,946.508757 1338.16413,950.263399 L1338.16805,950.504051 L1338.10877,1050.50403 C1338.10648,1054.37003 1334.97062,1057.50217 1331.10462,1057.49988 C1327.31917,1057.49764 1324.23731,1054.49103 1324.11269,1050.73639 L1324.10877,1050.49573 L1324.16805,950.495752 C1324.17034,946.62976 1327.30621,943.497611 1331.1722,943.499903 Z M1331.25519,803.499927 C1335.04064,803.502171 1338.1225,806.508782 1338.24712,810.263423 L1338.25104,810.504076 L1338.19176,910.504058 C1338.18947,914.370051 1335.0536,917.502199 1331.18761,917.499907 C1327.40216,917.497664 1324.32029,914.491053 1324.19568,910.736411 L1324.19176,910.495759 L1324.25104,810.495777 C1324.25333,806.629784 1327.38919,803.497636 1331.25519,803.499927 Z M1331.33817,663.499952 C1335.12363,663.502196 1338.20549,666.508807 1338.33011,670.263448 L1338.33402,670.5041 L1338.27475,770.504083 C1338.27246,774.370075 1335.13659,777.502224 1331.2706,777.499932 C1327.48515,777.497688 1324.40328,774.491077 1324.27867,770.736436 L1324.27475,770.495784 L1324.33403,670.495801 C1324.33632,666.629809 1327.47218,663.49766 1331.33817,663.499952 Z M1331.42116,523.499977 C1335.20661,523.502221 1338.28848,526.508831 1338.41309,530.263473 L1338.41701,530.504125 L1338.35773,630.504107 C1338.35544,634.3701 1335.21958,637.502248 1331.35359,637.499957 C1327.56814,637.497713 1324.48627,634.491102 1324.36165,630.736461 L1324.35774,630.495808 L1324.41701,530.495826 C1324.41931,526.629833 1327.55517,523.497685 1331.42116,523.499977 Z M1331.50415,383.500001 C1335.2896,383.502245 1338.37147,386.508856 1338.49608,390.263497 L1338.5,390.504149 L1338.44072,490.504132 C1338.43843,494.370124 1335.30257,497.502273 1331.43657,497.499981 C1327.65112,497.497737 1324.56926,494.491127 1324.44464,490.736485 L1324.44072,490.495833 L1324.5,390.495851 C1324.50229,386.629858 1327.63816,383.49771 1331.50415,383.500001 Z" transform="translate(1331.000000, 812.000000) scale(1, -1) rotate(270.000000) translate(-1331.000000, -812.000000) " fill="#10172A" fill-rule="nonzero"></path>
            </g>
            <g id="Group-6" transform="translate(3299.000000, 712.000000)">
                <path id="Line-3" d="M422.089212,370.499878 C425.874663,370.502122 428.956528,373.508733 429.081145,377.263374 L429.085061,377.504026 L429.041,451.115 L454.627241,451.130439 C456.993423,451.131842 458.923666,452.994739 459.033841,455.333362 L459.038805,455.547236 C459.038399,456.232516 458.878447,456.90829 458.571617,457.521041 L458.571617,457.521041 L425.947656,522.672385 C424.856109,524.852249 422.204106,525.734504 420.024242,524.642956 C419.17023,524.215317 418.477957,523.522223 418.051331,522.667704 L418.051331,522.667704 L385.504632,457.47773 C384.415669,455.296573 385.301068,452.645618 387.482224,451.556655 C388.095339,451.250552 388.771302,451.091402 389.456582,451.091808 L389.456582,451.091808 L415.041,451.106 L415.085064,377.495728 C415.087355,373.629735 418.223219,370.497587 422.089212,370.499878 Z M422.172199,230.499903 C425.95765,230.502147 429.039516,233.508757 429.164132,237.263399 L429.168049,237.504051 L429.108772,337.504033 C429.10648,341.370026 425.970616,344.502174 422.104624,344.499883 C418.319173,344.497639 415.237307,341.491028 415.112691,337.736387 L415.108774,337.495735 L415.168051,237.495752 C415.170343,233.62976 418.306207,230.497611 422.172199,230.499903 Z M422.255187,90.4999274 C426.040638,90.5021713 429.122503,93.5087821 429.24712,97.2634235 L429.251036,97.5040756 L429.191759,197.504058 C429.189468,201.370051 426.053604,204.502199 422.187611,204.499907 C418.40216,204.497664 415.320295,201.491053 415.195678,197.736411 L415.191762,197.495759 L415.251039,97.4957768 C415.25333,93.6297843 418.389194,90.4976358 422.255187,90.4999274 Z M422.338174,-49.500048 C426.123625,-49.4978041 429.205491,-46.4911933 429.330107,-42.7365519 L429.334024,-42.4958998 L429.274747,57.5040826 C429.272455,61.3700752 426.136591,64.5022236 422.270599,64.499932 C418.485148,64.4976881 415.403282,61.4910774 415.278666,57.736436 L415.274749,57.4957839 L415.334026,-42.5041986 C415.336318,-46.3701911 418.472182,-49.5023396 422.338174,-49.500048 Z M422.421162,-189.500023 C426.206613,-189.497779 429.288478,-186.491169 429.413095,-182.736527 L429.417011,-182.495875 L429.357734,-82.4958928 C429.355443,-78.6299002 426.219579,-75.4977518 422.353586,-75.5000434 C418.568135,-75.5022873 415.48627,-78.508898 415.361653,-82.2635394 L415.357737,-82.5041915 L415.417014,-182.504174 C415.419305,-186.370167 418.555169,-189.502315 422.421162,-189.500023 Z M422.504149,-329.499999 C426.2896,-329.497755 429.371466,-326.491144 429.496082,-322.736503 L429.499999,-322.495851 L429.440722,-222.495868 C429.43843,-218.629876 426.302566,-215.497727 422.436574,-215.500019 C418.651123,-215.502263 415.569257,-218.508873 415.444641,-222.263515 L415.440724,-222.504167 L415.500001,-322.504149 C415.502293,-326.370142 418.638157,-329.50229 422.504149,-329.499999 Z" transform="translate(422.000000, 99.000000) scale(1, -1) rotate(270.000000) translate(-422.000000, -99.000000) " fill="#10172A" fill-rule="nonzero"></path>
                <rect id="Rectangle" fill="#DFEFFF" x="109" y="13" width="569" height="187" rx="8"></rect>
                <text id="Sign" font-family="ProximaNova-Bold, Proxima Nova" font-size="144" font-weight="bold" fill="#10172A">
                    <tspan x="249.276" y="143">Sign</tspan>
                </text>
            </g>
            <g id="Group-6" transform="translate(5371.000000, 811.000000)" fill="#10172A" fill-rule="nonzero">
                <path id="Line-3" d="M422.089212,272.499878 C425.874663,272.502122 428.956528,275.508733 429.081145,279.263374 L429.085061,279.504026 L429.041,353.115 L454.627241,353.130439 C456.993423,353.131842 458.923666,354.994739 459.033841,357.333362 L459.038805,357.547236 C459.038399,358.232516 458.878447,358.90829 458.571617,359.521041 L458.571617,359.521041 L425.947656,424.672385 C424.856109,426.852249 422.204106,427.734504 420.024242,426.642956 C419.17023,426.215317 418.477957,425.522223 418.051331,424.667704 L418.051331,424.667704 L385.504632,359.47773 C384.415669,357.296573 385.301068,354.645618 387.482224,353.556655 C388.095339,353.250552 388.771302,353.091402 389.456582,353.091808 L389.456582,353.091808 L415.041,353.106 L415.085064,279.495728 C415.087355,275.629735 418.223219,272.497587 422.089212,272.499878 Z M422.172199,132.499903 C425.95765,132.502147 429.039516,135.508757 429.164132,139.263399 L429.168049,139.504051 L429.108772,239.504033 C429.10648,243.370026 425.970616,246.502174 422.104624,246.499883 C418.319173,246.497639 415.237307,243.491028 415.112691,239.736387 L415.108774,239.495735 L415.168051,139.495752 C415.170343,135.62976 418.306207,132.497611 422.172199,132.499903 Z M422.255187,-7.50007256 C426.040638,-7.49782866 429.122503,-4.49121792 429.24712,-0.736576526 L429.251036,-0.495924412 L429.191759,99.504058 C429.189468,103.370051 426.053604,106.502199 422.187611,106.499907 C418.40216,106.497664 415.320295,103.491053 415.195678,99.7364114 L415.191762,99.4957593 L415.251039,-0.504223165 C415.25333,-4.37021574 418.389194,-7.5023642 422.255187,-7.50007256 Z M422.338174,-147.500048 C426.123625,-147.497804 429.205491,-144.491193 429.330107,-140.736552 L429.334024,-140.4959 L429.274747,-40.4959174 C429.272455,-36.6299248 426.136591,-33.4977764 422.270599,-33.500068 C418.485148,-33.5023119 415.403282,-36.5089226 415.278666,-40.263564 L415.274749,-40.5042161 L415.334026,-140.504199 C415.336318,-144.370191 418.472182,-147.50234 422.338174,-147.500048 Z M422.421162,-287.500023 C426.206613,-287.497779 429.288478,-284.491169 429.413095,-280.736527 L429.417011,-280.495875 L429.357734,-180.495893 C429.355443,-176.6299 426.219579,-173.497752 422.353586,-173.500043 C418.568135,-173.502287 415.48627,-176.508898 415.361653,-180.263539 L415.357737,-180.504192 L415.417014,-280.504174 C415.419305,-284.370167 418.555169,-287.502315 422.421162,-287.500023 Z M422.504149,-427.499999 C426.2896,-427.497755 429.371466,-424.491144 429.496082,-420.736503 L429.499999,-420.495851 L429.440722,-320.495868 C429.43843,-316.629876 426.302566,-313.497727 422.436574,-313.500019 C418.651123,-313.502263 415.569257,-316.508873 415.444641,-320.263515 L415.440724,-320.504167 L415.500001,-420.504149 C415.502293,-424.370142 418.638157,-427.50229 422.504149,-427.499999 Z" transform="translate(422.000000, 1.000000) scale(1, -1) rotate(270.000000) translate(-422.000000, -1.000000) "></path>
            </g>
        </g>
    </g>
</svg>