<?xml version="1.0" encoding="UTF-8"?>
<svg width="2695px" height="2892px" viewBox="0 0 2695 2892" version="1.1" xmlns="http://www.w3.org/2000/svg" xmlns:xlink="http://www.w3.org/1999/xlink">
    <title>Group 7</title>
    <g id="Page-1" stroke="none" stroke-width="1" fill="none" fill-rule="evenodd">
        <g id="Group-7">
            <g id="Group-5">
                <circle id="Oval" fill="#DFEFFF" cx="363.5" cy="363.5" r="363.5"></circle>
                <g id="key-light" transform="translate(142.000000, 141.000000)" fill="#10172A" fill-rule="nonzero">
                    <path d="M298.3125,124.875 C298.3125,113.341406 307.591406,104.0625 319.125,104.0625 C330.658594,104.0625 339.9375,113.341406 339.9375,124.875 C339.9375,136.408594 330.658594,145.6875 319.125,145.6875 C307.591406,145.6875 298.3125,136.408594 298.3125,124.875 Z M291.375,305.25 C283.136719,305.25 275.071875,304.642969 267.180469,303.342188 L242.899219,326.149219 C239.777344,330.832031 234.4875,333 228.9375,333 L194.25,333 L194.25,367.6875 C194.25,379.221094 184.971094,388.5 173.4375,388.5 L138.75,388.5 L138.75,423.1875 C138.75,434.721094 129.471094,444 117.9375,444 L20.8125,444 C9.32226562,444 0,434.721094 0,423.1875 L0,339.9375 C0,334.3875 2.19311719,329.097656 6.09546094,325.195312 L142.999219,188.353125 C140.224219,176.125781 138.75,164.939062 138.75,152.625 C138.75,68.334375 207.084375,0 291.375,0 C375.665625,0 444,68.334375 444,152.625 C444,236.915625 375.665625,305.25 291.375,305.25 Z M291.375,277.5 C360.316406,277.5 416.25,221.566406 416.25,152.625 C416.25,83.6575781 360.316406,27.75 291.375,27.75 C222.433594,27.75 166.5,83.6575781 166.5,152.625 C166.5,162.771094 167.714063,171.789844 169.188281,181.849219 L173.524219,197.025 L27.75,342.799219 L27.75,416.25 L111,416.25 L111,360.75 L166.5,360.75 L166.5,305.25 L226.075781,305.25 L257.554688,273.684375 L271.603125,275.939062 C278.020313,276.979688 284.610937,277.5 291.375,277.5 L291.375,277.5 Z" id="Shape"></path>
                </g>
                <text id="Private-key" font-family="ProximaNova-Bold, Proxima Nova" font-size="144" font-weight="bold" fill="#10172A">
                    <tspan x="0.832" y="969">Private key</tspan>
                </text>
            </g>
            <g id="Group-60" transform="translate(1601.500000, 0.000000)">
                <circle id="Oval" fill="#DFEFFF" cx="546" cy="363.5" r="363.5"></circle>
                <text id="Digital-Signature" font-family="ProximaNova-Bold, Proxima Nova" font-size="144" font-weight="bold" fill="#10172A">
                    <tspan x="0.02" y="969">Digital Signature</tspan>
                </text>
                <g id="signature-lock-light" transform="translate(289.500000, 171.000000)" fill="#10172A" fill-rule="nonzero">
                    <path d="M51.2,115.2 C51.2,122.24 45.472,128 38.4,128 C31.328,128 25.6,122.24 25.6,115.2 L25.6,76.8 C25.6,34.384 59.984,0 102.4,0 C144.8,0 179.2,34.384 179.2,76.8 L179.2,79.52 C179.2,97.92 177.84,116.32 175.04,134.48 L291.04,102.88 C295.92,101.52 301.12,102.48 304.32,107.12 C307.52,110.96 308.08,116.4 305.84,120.96 L263.92,204.8 L332.8,204.8 L332.8,211.68 C325.04,216.16 318.56,222.64 314.08,230.4 L243.2,230.4 C238.8,230.4 234.64,228.08 232.32,224.32 C230,220.56 229.76,215.84 231.76,211.84 L270.16,135.12 L169.76,162.48 C168.56,167.68 166.48,172.96 165.76,178.16 L160,198.72 C150.96,231.52 137.92,263.12 121.2,292.08 L99.52,331.28 C90.08,348 72.4,358.4 53.184,358.4 C23.808,358.4 0,334.56 0,305.2 L0,231.12 C0,202.24 19.32,176.96 47.16,169.36 L147.84,141.92 C151.68,121.36 153.6,100.48 153.6,79.52 L153.6,76.8 C153.6,48.52 130.64,25.6 102.4,25.6 C74.12,25.6 51.2,48.52 51.2,76.8 L51.2,115.2 Z M25.6,231.12 L25.6,305.2 C25.6,320.48 37.952,332.8 53.184,332.8 C63.152,332.8 72.336,327.44 77.224,318.72 L98.88,280.24 C114.56,252.4 126.8,222.72 135.36,191.92 L141.12,171.28 L141.36,170.16 L53.896,194.08 C37.192,198.64 25.6,213.76 25.6,231.12 L25.6,231.12 Z M192,281.6 L307.2,281.6 L307.2,307.2 L192,307.2 C184.96,307.2 179.2,301.44 179.2,294.4 C179.2,287.36 184.96,281.6 192,281.6 Z M422.4,128 C457.76,128 486.4,156.64 486.4,192 L486.4,230.4 C500.56,230.4 512,241.84 512,256 L512,358.4 C512,372.56 500.56,384 486.4,384 L358.4,384 C344.24,384 332.8,372.56 332.8,358.4 L332.8,256 C332.8,241.84 344.24,230.4 358.4,230.4 L358.4,192 C358.4,156.64 387.04,128 422.4,128 Z M422.4,153.6 C401.2,153.6 384,170.8 384,192 L384,230.4 L460.8,230.4 L460.8,192 C460.8,170.8 443.6,153.6 422.4,153.6 Z M486.4,256 L358.4,256 L358.4,358.4 L486.4,358.4 L486.4,256 Z" id="Shape"></path>
                </g>
            </g>
            <g id="Group-60" transform="translate(1783.500000, 1893.000000)">
                <circle id="Oval" fill="#DFEFFF" cx="364" cy="363.5" r="363.5"></circle>
                <text id="Public-Key" font-family="ProximaNova-Bold, Proxima Nova" font-size="144" font-weight="bold" fill="#10172A">
                    <tspan x="21.712" y="969">Public Key</tspan>
                </text>
                <g id="lock-keyhole-light" transform="translate(166.500000, 137.000000)" fill="#10172A" fill-rule="nonzero">
                    <path d="M212.142857,346.0625 C212.142857,353.83125 205.778571,360.1875 198,360.1875 C190.221429,360.1875 183.857143,353.83125 183.857143,346.0625 L183.857143,275.4375 C183.857143,267.66875 190.221429,261.3125 198,261.3125 C205.778571,261.3125 212.142857,267.66875 212.142857,275.4375 L212.142857,346.0625 Z M198,0 C260.49375,0 311.142857,50.5939844 311.142857,113 L311.142857,169.5 L325.285714,169.5 C364.355357,169.5 396,201.104688 396,240.125 L396,381.375 C396,420.395312 364.355357,452 325.285714,452 L70.7142857,452 C31.6623214,452 0,420.395312 0,381.375 L0,240.125 C0,201.104688 31.6623214,169.5 70.7142857,169.5 L84.8571429,169.5 L84.8571429,113 C84.8571429,50.5939844 135.50625,0 198,0 Z M198,28.25 C150.35625,28.25 113.142857,66.1932812 113.142857,113 L113.142857,169.5 L282.857143,169.5 L282.857143,113 C282.857143,66.1932812 244.848214,28.25 198,28.25 Z M70.7142857,197.75 C47.2813393,197.75 28.2857143,216.730469 28.2857143,240.125 L28.2857143,381.375 C28.2857143,404.769531 47.2813393,423.75 70.7142857,423.75 L325.285714,423.75 C348.709821,423.75 367.714286,404.769531 367.714286,381.375 L367.714286,240.125 C367.714286,216.730469 348.709821,197.75 325.285714,197.75 L70.7142857,197.75 Z" id="Shape"></path>
                </g>
            </g>
            <g id="Group-60" transform="translate(0.000000, 1893.000000)">
                <circle id="Oval" fill="#DFEFFF" cx="363.5" cy="363.5" r="363.5"></circle>
                <g id="lock-keyhole-open-light" transform="translate(122.000000, 149.000000)" fill="#000000" fill-rule="nonzero">
                    <path d="M154.291667,308.34375 C146.9125,308.34375 140.875,302.310938 140.875,294.9375 C140.875,287.564062 146.9125,281.53125 154.291667,281.53125 L221.375,281.53125 C228.754167,281.53125 234.791667,287.564062 234.791667,294.9375 C234.791667,302.310938 228.754167,308.34375 221.375,308.34375 L154.291667,308.34375 Z M375.666667,26.8125 C330.469271,26.8125 295.166667,62.8250391 295.166667,107.25 L295.166667,160.875 L308.583333,160.875 C345.646875,160.875 375.666667,190.871484 375.666667,227.90625 L375.666667,361.96875 C375.666667,399.003516 345.646875,429 308.583333,429 L67.0833333,429 C30.0365625,429 0,399.003516 0,361.96875 L0,227.90625 C0,190.871484 30.0365625,160.875 67.0833333,160.875 L268.333333,160.875 L268.333333,107.25 C268.333333,48.0195117 316.381771,0 375.666667,0 C434.951563,0 483,48.0195117 483,107.25 L483,174.28125 C483,181.654688 476.9625,187.6875 469.583333,187.6875 C462.204167,187.6875 456.166667,181.654688 456.166667,174.28125 L456.166667,107.25 C456.166667,62.8250391 420.109375,26.8125 375.666667,26.8125 Z M26.8333333,227.90625 L26.8333333,361.96875 C26.8333333,384.172852 44.8535938,402.1875 67.0833333,402.1875 L308.583333,402.1875 C330.804688,402.1875 348.833333,384.172852 348.833333,361.96875 L348.833333,227.90625 C348.833333,205.702148 330.804688,187.6875 308.583333,187.6875 L67.0833333,187.6875 C44.8535938,187.6875 26.8333333,205.702148 26.8333333,227.90625 Z" id="Shape"></path>
                </g>
            </g>
            <g id="Group-6" transform="translate(1912.000000, 1074.000000)">
                <path id="Line-3" d="M250.5,616.388889 C254.285452,616.388889 257.369099,619.393672 257.495941,623.148239 L257.5,623.388889 L257.5,700.611 L283.085819,700.611111 C285.452001,700.611111 287.383348,702.472864 287.49491,704.811421 L287.5,705.025292 C287.5,705.710572 287.340449,706.386441 287.033982,706.999374 L287.033982,706.999374 L254.448647,772.170045 C253.358392,774.350555 250.706912,775.234382 248.526402,774.144127 C247.672137,773.716994 246.979452,773.02431 246.55232,772.170045 L246.55232,772.170045 L213.966984,706.999374 C212.876729,704.818864 213.760556,702.167384 215.941066,701.077129 C216.553999,700.770662 217.229868,700.611111 217.915148,700.611111 L217.915148,700.611111 L243.5,700.611 L243.5,623.388889 C243.5,619.522896 246.634007,616.388889 250.5,616.388889 Z M250.5,476.388889 C254.285452,476.388889 257.369099,479.393672 257.495941,483.148239 L257.5,483.388889 L257.5,583.388889 C257.5,587.254882 254.365993,590.388889 250.5,590.388889 C246.714548,590.388889 243.630901,587.384106 243.504059,583.629539 L243.5,583.388889 L243.5,483.388889 C243.5,479.522896 246.634007,476.388889 250.5,476.388889 Z M250.5,336.388889 C254.285452,336.388889 257.369099,339.393672 257.495941,343.148239 L257.5,343.388889 L257.5,443.388889 C257.5,447.254882 254.365993,450.388889 250.5,450.388889 C246.714548,450.388889 243.630901,447.384106 243.504059,443.629539 L243.5,443.388889 L243.5,343.388889 C243.5,339.522896 246.634007,336.388889 250.5,336.388889 Z M250.5,196.388889 C254.285452,196.388889 257.369099,199.393672 257.495941,203.148239 L257.5,203.388889 L257.5,303.388889 C257.5,307.254882 254.365993,310.388889 250.5,310.388889 C246.714548,310.388889 243.630901,307.384106 243.504059,303.629539 L243.5,303.388889 L243.5,203.388889 C243.5,199.522896 246.634007,196.388889 250.5,196.388889 Z M254.345289,-1.36468207 L254.448647,-1.17004482 L287.033982,64.0006259 C287.340449,64.6135589 287.5,65.2894277 287.5,65.9747077 C287.5,68.3408902 285.638247,70.2722369 283.29969,70.3837986 L283.085819,70.3888889 L257.5,70.388 L257.5,163.388889 C257.5,167.254882 254.365993,170.388889 250.5,170.388889 C246.714548,170.388889 243.630901,167.384106 243.504059,163.629539 L243.5,163.388889 L243.5,70.388 L217.915148,70.3888889 C217.315528,70.3888889 216.723114,70.2667327 216.173762,70.030885 L215.941066,69.9228714 C213.826632,68.8656541 212.931485,66.3403986 213.87329,64.200095 L213.966984,64.0006259 L246.55232,-1.17004482 C246.979452,-2.02430983 247.672137,-2.71699414 248.526402,-3.14412665 C250.640836,-4.2013439 253.198129,-3.4023079 254.345289,-1.36468207 Z" fill="#10172A" fill-rule="nonzero"></path>
                <rect id="Rectangle" fill="#DFEFFF" x="0" y="292" width="501" height="187" rx="8"></rect>
                <text id="Verify" font-family="ProximaNova-Bold, Proxima Nova" font-size="144" font-weight="bold" fill="#10172A">
                    <tspan x="57.32" y="422">Verify</tspan>
                </text>
            </g>
            <g id="Group-6" transform="translate(113.000000, 1074.000000)">
                <path id="Line-3" d="M250.5,616.388889 C254.285452,616.388889 257.369099,619.393672 257.495941,623.148239 L257.5,623.388889 L257.5,700.611 L283.085819,700.611111 C285.452001,700.611111 287.383348,702.472864 287.49491,704.811421 L287.5,705.025292 C287.5,705.710572 287.340449,706.386441 287.033982,706.999374 L287.033982,706.999374 L254.448647,772.170045 C253.358392,774.350555 250.706912,775.234382 248.526402,774.144127 C247.672137,773.716994 246.979452,773.02431 246.55232,772.170045 L246.55232,772.170045 L213.966984,706.999374 C212.876729,704.818864 213.760556,702.167384 215.941066,701.077129 C216.553999,700.770662 217.229868,700.611111 217.915148,700.611111 L217.915148,700.611111 L243.5,700.611 L243.5,623.388889 C243.5,619.522896 246.634007,616.388889 250.5,616.388889 Z M250.5,476.388889 C254.285452,476.388889 257.369099,479.393672 257.495941,483.148239 L257.5,483.388889 L257.5,583.388889 C257.5,587.254882 254.365993,590.388889 250.5,590.388889 C246.714548,590.388889 243.630901,587.384106 243.504059,583.629539 L243.5,583.388889 L243.5,483.388889 C243.5,479.522896 246.634007,476.388889 250.5,476.388889 Z M250.5,336.388889 C254.285452,336.388889 257.369099,339.393672 257.495941,343.148239 L257.5,343.388889 L257.5,443.388889 C257.5,447.254882 254.365993,450.388889 250.5,450.388889 C246.714548,450.388889 243.630901,447.384106 243.504059,443.629539 L243.5,443.388889 L243.5,343.388889 C243.5,339.522896 246.634007,336.388889 250.5,336.388889 Z M250.5,196.388889 C254.285452,196.388889 257.369099,199.393672 257.495941,203.148239 L257.5,203.388889 L257.5,303.388889 C257.5,307.254882 254.365993,310.388889 250.5,310.388889 C246.714548,310.388889 243.630901,307.384106 243.504059,303.629539 L243.5,303.388889 L243.5,203.388889 C243.5,199.522896 246.634007,196.388889 250.5,196.388889 Z M254.345289,-1.36468207 L254.448647,-1.17004482 L287.033982,64.0006259 C287.340449,64.6135589 287.5,65.2894277 287.5,65.9747077 C287.5,68.3408902 285.638247,70.2722369 283.29969,70.3837986 L283.085819,70.3888889 L257.5,70.388 L257.5,163.388889 C257.5,167.254882 254.365993,170.388889 250.5,170.388889 C246.714548,170.388889 243.630901,167.384106 243.504059,163.629539 L243.5,163.388889 L243.5,70.388 L217.915148,70.3888889 C217.315528,70.3888889 216.723114,70.2667327 216.173762,70.030885 L215.941066,69.9228714 C213.826632,68.8656541 212.931485,66.3403986 213.87329,64.200095 L213.966984,64.0006259 L246.55232,-1.17004482 C246.979452,-2.02430983 247.672137,-2.71699414 248.526402,-3.14412665 C250.640836,-4.2013439 253.198129,-3.4023079 254.345289,-1.36468207 Z" fill="#10172A" fill-rule="nonzero"></path>
                <rect id="Rectangle" fill="#DFEFFF" x="0" y="292" width="501" height="187" rx="8"></rect>
                <text id="Verify" font-family="ProximaNova-Bold, Proxima Nova" font-size="144" font-weight="bold" fill="#10172A">
                    <tspan x="57.32" y="422">Verify</tspan>
                </text>
            </g>
            <path id="Line-3" d="M1262.08921,626.499878 C1265.87466,626.502122 1268.95653,629.508733 1269.08114,633.263374 L1269.08506,633.504026 L1269.041,707.115 L1294.62724,707.130439 C1296.99342,707.131842 1298.92367,708.994739 1299.03384,711.333362 L1299.0388,711.547236 C1299.0384,712.232516 1298.87845,712.90829 1298.57162,713.521041 L1298.57162,713.521041 L1265.94766,778.672385 C1264.85611,780.852249 1262.20411,781.734504 1260.02424,780.642956 C1259.17023,780.215317 1258.47796,779.522223 1258.05133,778.667704 L1258.05133,778.667704 L1225.50463,713.47773 C1224.41567,711.296573 1225.30107,708.645618 1227.48222,707.556655 C1228.09534,707.250552 1228.7713,707.091402 1229.45658,707.091808 L1229.45658,707.091808 L1255.041,707.106 L1255.08506,633.495728 C1255.08736,629.629735 1258.22322,626.497587 1262.08921,626.499878 Z M1262.1722,486.499903 C1265.95765,486.502147 1269.03952,489.508757 1269.16413,493.263399 L1269.16805,493.504051 L1269.10877,593.504033 C1269.10648,597.370026 1265.97062,600.502174 1262.10462,600.499883 C1258.31917,600.497639 1255.23731,597.491028 1255.11269,593.736387 L1255.10877,593.495735 L1255.16805,493.495752 C1255.17034,489.62976 1258.30621,486.497611 1262.1722,486.499903 Z M1262.25519,346.499927 C1266.04064,346.502171 1269.1225,349.508782 1269.24712,353.263423 L1269.25104,353.504076 L1269.19176,453.504058 C1269.18947,457.370051 1266.0536,460.502199 1262.18761,460.499907 C1258.40216,460.497664 1255.32029,457.491053 1255.19568,453.736411 L1255.19176,453.495759 L1255.25104,353.495777 C1255.25333,349.629784 1258.38919,346.497636 1262.25519,346.499927 Z M1262.33817,206.499952 C1266.12363,206.502196 1269.20549,209.508807 1269.33011,213.263448 L1269.33402,213.5041 L1269.27475,313.504083 C1269.27246,317.370075 1266.13659,320.502224 1262.2706,320.499932 C1258.48515,320.497688 1255.40328,317.491077 1255.27867,313.736436 L1255.27475,313.495784 L1255.33403,213.495801 C1255.33632,209.629809 1258.47218,206.49766 1262.33817,206.499952 Z M1262.42116,66.4999766 C1266.20661,66.5022205 1269.28848,69.5088313 1269.41309,73.2634727 L1269.41701,73.5041248 L1269.35773,173.504107 C1269.35544,177.3701 1266.21958,180.502248 1262.35359,180.499957 C1258.56814,180.497713 1255.48627,177.491102 1255.36165,173.736461 L1255.35774,173.495808 L1255.41701,73.495826 C1255.41931,69.6298335 1258.55517,66.497685 1262.42116,66.4999766 Z M1262.50415,-73.4999988 C1266.2896,-73.4977549 1269.37147,-70.4911441 1269.49608,-66.7365027 L1269.5,-66.4958506 L1269.44072,33.5041318 C1269.43843,37.3701244 1266.30257,40.5022728 1262.43657,40.4999812 C1258.65112,40.4977373 1255.56926,37.4911266 1255.44464,33.7364852 L1255.44072,33.4958331 L1255.5,-66.5041494 C1255.50229,-70.3701419 1258.63816,-73.5022904 1262.50415,-73.4999988 Z" transform="translate(1262.000000, 355.000000) scale(1, -1) rotate(270.000000) translate(-1262.000000, -355.000000) " fill="#10172A" fill-rule="nonzero"></path>
            <path id="Line-3" d="M1262.08921,2586.49988 C1265.87466,2586.50212 1268.95653,2589.50873 1269.08114,2593.26337 L1269.08506,2593.50403 L1269.041,2667.115 L1294.62724,2667.13044 C1296.99342,2667.13184 1298.92367,2668.99474 1299.03384,2671.33336 L1299.0388,2671.54724 C1299.0384,2672.23252 1298.87845,2672.90829 1298.57162,2673.52104 L1298.57162,2673.52104 L1265.94766,2738.67239 C1264.85611,2740.85225 1262.20411,2741.7345 1260.02424,2740.64296 C1259.17023,2740.21532 1258.47796,2739.52222 1258.05133,2738.6677 L1258.05133,2738.6677 L1225.50463,2673.47773 C1224.41567,2671.29657 1225.30107,2668.64562 1227.48222,2667.55666 C1228.09534,2667.25055 1228.7713,2667.0914 1229.45658,2667.09181 L1229.45658,2667.09181 L1255.041,2667.106 L1255.08506,2593.49573 C1255.08736,2589.62974 1258.22322,2586.49759 1262.08921,2586.49988 Z M1262.1722,2446.4999 C1265.95765,2446.50215 1269.03952,2449.50876 1269.16413,2453.2634 L1269.16805,2453.50405 L1269.10877,2553.50403 C1269.10648,2557.37003 1265.97062,2560.50217 1262.10462,2560.49988 C1258.31917,2560.49764 1255.23731,2557.49103 1255.11269,2553.73639 L1255.10877,2553.49573 L1255.16805,2453.49575 C1255.17034,2449.62976 1258.30621,2446.49761 1262.1722,2446.4999 Z M1262.25519,2306.49993 C1266.04064,2306.50217 1269.1225,2309.50878 1269.24712,2313.26342 L1269.25104,2313.50408 L1269.19176,2413.50406 C1269.18947,2417.37005 1266.0536,2420.5022 1262.18761,2420.49991 C1258.40216,2420.49766 1255.32029,2417.49105 1255.19568,2413.73641 L1255.19176,2413.49576 L1255.25104,2313.49578 C1255.25333,2309.62978 1258.38919,2306.49764 1262.25519,2306.49993 Z M1262.33817,2166.49995 C1266.12363,2166.5022 1269.20549,2169.50881 1269.33011,2173.26345 L1269.33402,2173.5041 L1269.27475,2273.50408 C1269.27246,2277.37008 1266.13659,2280.50222 1262.2706,2280.49993 C1258.48515,2280.49769 1255.40328,2277.49108 1255.27867,2273.73644 L1255.27475,2273.49578 L1255.33403,2173.4958 C1255.33632,2169.62981 1258.47218,2166.49766 1262.33817,2166.49995 Z M1262.42116,2026.49998 C1266.20661,2026.50222 1269.28848,2029.50883 1269.41309,2033.26347 L1269.41701,2033.50412 L1269.35773,2133.50411 C1269.35544,2137.3701 1266.21958,2140.50225 1262.35359,2140.49996 C1258.56814,2140.49771 1255.48627,2137.4911 1255.36165,2133.73646 L1255.35774,2133.49581 L1255.41701,2033.49583 C1255.41931,2029.62983 1258.55517,2026.49768 1262.42116,2026.49998 Z M1262.50415,1886.5 C1266.2896,1886.50225 1269.37147,1889.50886 1269.49608,1893.2635 L1269.5,1893.50415 L1269.44072,1993.50413 C1269.43843,1997.37012 1266.30257,2000.50227 1262.43657,2000.49998 C1258.65112,2000.49774 1255.56926,1997.49113 1255.44464,1993.73649 L1255.44072,1993.49583 L1255.5,1893.49585 C1255.50229,1889.62986 1258.63816,1886.49771 1262.50415,1886.5 Z" transform="translate(1262.000000, 2315.000000) scale(1, -1) rotate(89.966037) translate(-1262.000000, -2315.000000) " fill="#10172A" fill-rule="nonzero"></path>
            <g id="Group-6" transform="translate(1032.000000, 2215.000000)">
                <rect id="Rectangle" fill="#DFEFFF" x="0" y="13" width="569" height="187" rx="8"></rect>
                <text id="Access" font-family="ProximaNova-Bold, Proxima Nova" font-size="144" font-weight="bold" fill="#10172A">
                    <tspan x="55.892" y="143">Access</tspan>
                </text>
            </g>
        </g>
    </g>
</svg>