<?xml version="1.0" encoding="UTF-8"?>
<svg width="5805px" height="1319px" viewBox="0 0 5805 1319" version="1.1" xmlns="http://www.w3.org/2000/svg" xmlns:xlink="http://www.w3.org/1999/xlink">
    <title>THREE</title>
    <g id="Page-1" stroke="none" stroke-width="1" fill="none" fill-rule="evenodd">
        <g id="THREE" transform="translate(0.500000, 0.000000)">
            <g id="TWO">
                <path id="Line-3" d="M1917.57143,956.497537 C1921.35688,956.499781 1924.43875,959.506392 1924.56336,963.261033 L1924.56728,963.501685 L1924.52213,1040.66551 C1941.60736,1043.94784 1954.51069,1058.98081 1954.49999,1077.02193 C1954.48788,1097.45646 1937.9126,1114.01211 1917.47807,1113.99999 C1897.04354,1113.98788 1880.48789,1097.4126 1880.50001,1076.97807 C1880.5107,1058.93694 1893.43184,1043.91929 1910.52095,1040.65721 L1910.56728,963.493387 C1910.56957,959.627394 1913.70544,956.495246 1917.57143,956.497537 Z M1917.65442,816.497562 C1921.43987,816.499806 1924.52173,819.506416 1924.64635,823.261058 L1924.65027,823.50171 L1924.59099,923.501692 C1924.5887,927.367685 1921.45283,930.499833 1917.58684,930.497542 C1913.80139,930.495298 1910.71953,927.488687 1910.59491,923.734046 L1910.59099,923.493394 L1910.65027,823.493411 C1910.65256,819.627419 1913.78842,816.49527 1917.65442,816.497562 Z M1917.73741,676.497586 C1921.52286,676.49983 1924.60472,679.506441 1924.72934,683.261082 L1924.73325,683.501735 L1924.67398,783.501717 C1924.67169,787.36771 1921.53582,790.499858 1917.66983,790.497566 C1913.88438,790.495323 1910.80251,787.488712 1910.6779,783.73407 L1910.67398,783.493418 L1910.73326,683.493436 C1910.73555,679.627443 1913.87141,676.495295 1917.73741,676.497586 Z M1917.82039,536.497611 C1921.60584,536.499855 1924.68771,539.506466 1924.81233,543.261107 L1924.81624,543.501759 L1924.75697,643.501742 C1924.75467,647.367734 1921.61881,650.499883 1917.75282,650.497591 C1913.96737,650.495347 1910.8855,647.488736 1910.76088,643.734095 L1910.75697,643.493443 L1910.81624,543.49346 C1910.81854,539.627468 1913.9544,536.495319 1917.82039,536.497611 Z M1917.90338,396.497636 C1921.68883,396.49988 1924.7707,399.50649 1924.89531,403.261132 L1924.89923,403.501784 L1924.83995,503.501766 C1924.83766,507.367759 1921.7018,510.499907 1917.8358,510.497616 C1914.05035,510.495372 1910.96849,507.488761 1910.84387,503.73412 L1910.83996,503.493467 L1910.89923,403.493485 C1910.90152,399.627492 1914.03739,396.495344 1917.90338,396.497636 Z M1918.02193,196.500007 C1938.45646,196.512119 1955.01211,213.0874 1954.99999,233.521932 C1954.9893,251.563057 1942.06816,266.580714 1924.97905,269.842788 L1924.92294,363.501791 C1924.92065,367.367783 1921.78478,370.499932 1917.91879,370.49764 C1914.13334,370.495396 1911.05148,367.488786 1910.92686,363.734144 L1910.92294,363.493492 L1910.97787,269.834488 C1893.89264,266.552157 1880.98931,251.519192 1881.00001,233.478068 C1881.01212,213.043535 1897.5874,196.487894 1918.02193,196.500007 Z" transform="translate(1917.500000, 655.000000) scale(1, -1) rotate(270.000000) translate(-1917.500000, -655.000000) " fill="#10172A" fill-rule="nonzero"></path>
                <g id="Group-8">
                    <rect id="Rectangle" fill="#DFEFFF" x="0.5" y="0" width="1311" height="1040" rx="14"></rect>
                    <g id="signature-lock-light" transform="translate(487.500000, 104.000000)" fill="#10172A" fill-rule="nonzero">
                        <path d="M33.7,75.9 C33.7,80.5383333 29.9298125,84.3333333 25.275,84.3333333 C20.6201875,84.3333333 16.85,80.5383333 16.85,75.9 L16.85,50.6 C16.85,22.6540417 39.4816563,0 67.4,0 C95.3078125,0 117.95,22.6540417 117.95,50.6 L117.95,52.3920833 C117.95,64.515 117.054844,76.6379167 115.211875,88.6027083 L191.563438,67.7829167 C194.775469,66.886875 198.198125,67.519375 200.304375,70.5764583 C202.410625,73.1064583 202.779219,76.690625 201.304844,79.695 L173.712969,134.933333 L219.05,134.933333 L219.05,139.46625 C213.942344,142.417917 209.677188,146.687292 206.728438,151.8 L160.075,151.8 C157.178906,151.8 154.440781,150.271458 152.91375,147.794167 C151.386719,145.316875 151.22875,142.207083 152.545156,139.571667 L177.820156,89.024375 L111.736563,107.050625 C110.946719,110.476667 109.577656,113.955417 109.10375,117.381458 L105.3125,130.9275 C99.3623438,152.537917 90.779375,173.357708 79.7742188,192.438125 L65.504375,218.265208 C59.2909375,229.28125 47.6539063,236.133333 35.005875,236.133333 C15.6705,236.133333 0,220.42625 0,201.082292 L0,152.274375 C0,133.246667 12.7164844,116.590833 31.0408594,111.583542 L97.30875,93.5045833 C99.83625,79.9585417 101.1,66.2016667 101.1,52.3920833 L101.1,50.6 C101.1,31.9676042 85.9876563,16.8666667 67.4,16.8666667 C48.7860156,16.8666667 33.7,31.9676042 33.7,50.6 L33.7,75.9 Z M16.85,152.274375 L16.85,201.082292 C16.85,211.149583 24.980125,219.266667 35.005875,219.266667 C41.5668438,219.266667 47.6117813,215.735208 50.8290781,209.99 L65.083125,184.637292 C75.40375,166.294792 83.4601563,146.74 89.094375,126.447292 L92.885625,112.848542 L93.0435938,112.110625 L35.4745156,127.870417 C24.4798906,130.874792 16.85,140.836667 16.85,152.274375 L16.85,152.274375 Z M126.375,185.533333 L202.2,185.533333 L202.2,202.4 L126.375,202.4 C121.74125,202.4 117.95,198.605 117.95,193.966667 C117.95,189.328333 121.74125,185.533333 126.375,185.533333 Z M278.025,84.3333333 C301.299062,84.3333333 320.15,103.202917 320.15,126.5 L320.15,151.8 C329.470156,151.8 337,159.337292 337,168.666667 L337,236.133333 C337,245.462708 329.470156,253 320.15,253 L235.9,253 C226.579844,253 219.05,245.462708 219.05,236.133333 L219.05,168.666667 C219.05,159.337292 226.579844,151.8 235.9,151.8 L235.9,126.5 C235.9,103.202917 254.750937,84.3333333 278.025,84.3333333 Z M278.025,101.2 C264.071094,101.2 252.75,112.532292 252.75,126.5 L252.75,151.8 L303.3,151.8 L303.3,126.5 C303.3,112.532292 291.978906,101.2 278.025,101.2 Z M320.15,168.666667 L235.9,168.666667 L235.9,236.133333 L320.15,236.133333 L320.15,168.666667 Z" id="Shape"></path>
                    </g>
                    <text id="Transaction" font-family="ProximaNova-Bold, Proxima Nova" font-size="144" font-weight="bold" fill="#10172A">
                        <tspan x="272.384" y="1282">Transaction</tspan>
                    </text>
                    <text id="Eki-€-2000,-Dwi-€-19" font-family="ProximaNova-Bold, Proxima Nova" font-size="144" font-weight="bold" fill="#10172A">
                        <tspan x="274.18" y="560">Eki € 2000, </tspan>
                        <tspan x="262.084" y="733">Dwi € 1900, </tspan>
                        <tspan x="349.348" y="906">Tri € 900</tspan>
                    </text>
                </g>
                <g id="Group-8" transform="translate(4492.000000, 0.000000)">
                    <rect id="Rectangle" fill="#DFEFFF" x="0.5" y="0" width="1311" height="1040" rx="14"></rect>
                    <g id="signature-lock-light" transform="translate(487.500000, 104.000000)" fill="#10172A" fill-rule="nonzero">
                        <path d="M33.7,75.9 C33.7,80.5383333 29.9298125,84.3333333 25.275,84.3333333 C20.6201875,84.3333333 16.85,80.5383333 16.85,75.9 L16.85,50.6 C16.85,22.6540417 39.4816563,0 67.4,0 C95.3078125,0 117.95,22.6540417 117.95,50.6 L117.95,52.3920833 C117.95,64.515 117.054844,76.6379167 115.211875,88.6027083 L191.563438,67.7829167 C194.775469,66.886875 198.198125,67.519375 200.304375,70.5764583 C202.410625,73.1064583 202.779219,76.690625 201.304844,79.695 L173.712969,134.933333 L219.05,134.933333 L219.05,139.46625 C213.942344,142.417917 209.677188,146.687292 206.728438,151.8 L160.075,151.8 C157.178906,151.8 154.440781,150.271458 152.91375,147.794167 C151.386719,145.316875 151.22875,142.207083 152.545156,139.571667 L177.820156,89.024375 L111.736563,107.050625 C110.946719,110.476667 109.577656,113.955417 109.10375,117.381458 L105.3125,130.9275 C99.3623438,152.537917 90.779375,173.357708 79.7742188,192.438125 L65.504375,218.265208 C59.2909375,229.28125 47.6539063,236.133333 35.005875,236.133333 C15.6705,236.133333 0,220.42625 0,201.082292 L0,152.274375 C0,133.246667 12.7164844,116.590833 31.0408594,111.583542 L97.30875,93.5045833 C99.83625,79.9585417 101.1,66.2016667 101.1,52.3920833 L101.1,50.6 C101.1,31.9676042 85.9876563,16.8666667 67.4,16.8666667 C48.7860156,16.8666667 33.7,31.9676042 33.7,50.6 L33.7,75.9 Z M16.85,152.274375 L16.85,201.082292 C16.85,211.149583 24.980125,219.266667 35.005875,219.266667 C41.5668438,219.266667 47.6117813,215.735208 50.8290781,209.99 L65.083125,184.637292 C75.40375,166.294792 83.4601563,146.74 89.094375,126.447292 L92.885625,112.848542 L93.0435938,112.110625 L35.4745156,127.870417 C24.4798906,130.874792 16.85,140.836667 16.85,152.274375 L16.85,152.274375 Z M126.375,185.533333 L202.2,185.533333 L202.2,202.4 L126.375,202.4 C121.74125,202.4 117.95,198.605 117.95,193.966667 C117.95,189.328333 121.74125,185.533333 126.375,185.533333 Z M278.025,84.3333333 C301.299062,84.3333333 320.15,103.202917 320.15,126.5 L320.15,151.8 C329.470156,151.8 337,159.337292 337,168.666667 L337,236.133333 C337,245.462708 329.470156,253 320.15,253 L235.9,253 C226.579844,253 219.05,245.462708 219.05,236.133333 L219.05,168.666667 C219.05,159.337292 226.579844,151.8 235.9,151.8 L235.9,126.5 C235.9,103.202917 254.750937,84.3333333 278.025,84.3333333 Z M278.025,101.2 C264.071094,101.2 252.75,112.532292 252.75,126.5 L252.75,151.8 L303.3,151.8 L303.3,126.5 C303.3,112.532292 291.978906,101.2 278.025,101.2 Z M320.15,168.666667 L235.9,168.666667 L235.9,236.133333 L320.15,236.133333 L320.15,168.666667 Z" id="Shape"></path>
                    </g>
                    <text id="Verified" font-family="ProximaNova-Bold, Proxima Nova" font-size="144" font-weight="bold" fill="#10172A">
                        <tspan x="399.032" y="1282">Verified</tspan>
                    </text>
                    <text id="Eki-€-2000,-Dwi-€-19" font-family="ProximaNova-Bold, Proxima Nova" font-size="144" font-weight="bold" fill="#10172A">
                        <tspan x="274.18" y="560">Eki € 2000, </tspan>
                        <tspan x="262.084" y="733">Dwi € 1900, </tspan>
                        <tspan x="349.348" y="906">Tri € 900</tspan>
                    </text>
                </g>
            </g>
            <g id="tower-broadcast-light" transform="translate(2407.000000, 212.000000)">
                <text id="Eki’s-public-key" font-family="ProximaNova-Bold, Proxima Nova" font-size="144" font-weight="bold" fill="#10172A">
                    <tspan x="25.444" y="1077">Eki’s public key</tspan>
                </text>
                <circle id="Oval" fill="#DFEFFF" cx="495" cy="414.5" r="414.5"></circle>
                <g id="lock-keyhole-light" transform="translate(297.500000, 189.000000)" fill="#10172A" fill-rule="nonzero">
                    <path d="M212.142857,346.0625 C212.142857,353.83125 205.778571,360.1875 198,360.1875 C190.221429,360.1875 183.857143,353.83125 183.857143,346.0625 L183.857143,275.4375 C183.857143,267.66875 190.221429,261.3125 198,261.3125 C205.778571,261.3125 212.142857,267.66875 212.142857,275.4375 L212.142857,346.0625 Z M198,0 C260.49375,0 311.142857,50.5939844 311.142857,113 L311.142857,169.5 L325.285714,169.5 C364.355357,169.5 396,201.104688 396,240.125 L396,381.375 C396,420.395312 364.355357,452 325.285714,452 L70.7142857,452 C31.6623214,452 0,420.395312 0,381.375 L0,240.125 C0,201.104688 31.6623214,169.5 70.7142857,169.5 L84.8571429,169.5 L84.8571429,113 C84.8571429,50.5939844 135.50625,0 198,0 Z M198,28.25 C150.35625,28.25 113.142857,66.1932812 113.142857,113 L113.142857,169.5 L282.857143,169.5 L282.857143,113 C282.857143,66.1932812 244.848214,28.25 198,28.25 Z M70.7142857,197.75 C47.2813393,197.75 28.2857143,216.730469 28.2857143,240.125 L28.2857143,381.375 C28.2857143,404.769531 47.2813393,423.75 70.7142857,423.75 L325.285714,423.75 C348.709821,423.75 367.714286,404.769531 367.714286,381.375 L367.714286,240.125 C367.714286,216.730469 348.709821,197.75 325.285714,197.75 L70.7142857,197.75 Z" id="Shape"></path>
                </g>
            </g>
            <g id="Group-6" transform="translate(3529.500000, 556.000000)">
                <path id="Line-3" d="M422.089212,370.499878 C425.874663,370.502122 428.956528,373.508733 429.081145,377.263374 L429.085061,377.504026 L429.041,451.115 L454.627241,451.130439 C456.993423,451.131842 458.923666,452.994739 459.033841,455.333362 L459.038805,455.547236 C459.038399,456.232516 458.878447,456.90829 458.571617,457.521041 L458.571617,457.521041 L425.947656,522.672385 C424.856109,524.852249 422.204106,525.734504 420.024242,524.642956 C419.17023,524.215317 418.477957,523.522223 418.051331,522.667704 L418.051331,522.667704 L385.504632,457.47773 C384.415669,455.296573 385.301068,452.645618 387.482224,451.556655 C388.095339,451.250552 388.771302,451.091402 389.456582,451.091808 L389.456582,451.091808 L415.041,451.106 L415.085064,377.495728 C415.087355,373.629735 418.223219,370.497587 422.089212,370.499878 Z M422.172199,230.499903 C425.95765,230.502147 429.039516,233.508757 429.164132,237.263399 L429.168049,237.504051 L429.108772,337.504033 C429.10648,341.370026 425.970616,344.502174 422.104624,344.499883 C418.319173,344.497639 415.237307,341.491028 415.112691,337.736387 L415.108774,337.495735 L415.168051,237.495752 C415.170343,233.62976 418.306207,230.497611 422.172199,230.499903 Z M422.255187,90.4999274 C426.040638,90.5021713 429.122503,93.5087821 429.24712,97.2634235 L429.251036,97.5040756 L429.191759,197.504058 C429.189468,201.370051 426.053604,204.502199 422.187611,204.499907 C418.40216,204.497664 415.320295,201.491053 415.195678,197.736411 L415.191762,197.495759 L415.251039,97.4957768 C415.25333,93.6297843 418.389194,90.4976358 422.255187,90.4999274 Z M422.338174,-49.500048 C426.123625,-49.4978041 429.205491,-46.4911933 429.330107,-42.7365519 L429.334024,-42.4958998 L429.274747,57.5040826 C429.272455,61.3700752 426.136591,64.5022236 422.270599,64.499932 C418.485148,64.4976881 415.403282,61.4910774 415.278666,57.736436 L415.274749,57.4957839 L415.334026,-42.5041986 C415.336318,-46.3701911 418.472182,-49.5023396 422.338174,-49.500048 Z M422.421162,-189.500023 C426.206613,-189.497779 429.288478,-186.491169 429.413095,-182.736527 L429.417011,-182.495875 L429.357734,-82.4958928 C429.355443,-78.6299002 426.219579,-75.4977518 422.353586,-75.5000434 C418.568135,-75.5022873 415.48627,-78.508898 415.361653,-82.2635394 L415.357737,-82.5041915 L415.417014,-182.504174 C415.419305,-186.370167 418.555169,-189.502315 422.421162,-189.500023 Z M422.504149,-329.499999 C426.2896,-329.497755 429.371466,-326.491144 429.496082,-322.736503 L429.499999,-322.495851 L429.440722,-222.495868 C429.43843,-218.629876 426.302566,-215.497727 422.436574,-215.500019 C418.651123,-215.502263 415.569257,-218.508873 415.444641,-222.263515 L415.440724,-222.504167 L415.500001,-322.504149 C415.502293,-326.370142 418.638157,-329.50229 422.504149,-329.499999 Z" transform="translate(422.000000, 99.000000) scale(1, -1) rotate(270.000000) translate(-422.000000, -99.000000) " fill="#10172A" fill-rule="nonzero"></path>
                <rect id="Rectangle" fill="#DFEFFF" x="109" y="13" width="569" height="187" rx="8"></rect>
                <text id="Verify" font-family="ProximaNova-Bold, Proxima Nova" font-size="144" font-weight="bold" fill="#10172A">
                    <tspan x="200.82" y="143">Verify</tspan>
                </text>
            </g>
            <g id="circle-check-duotone" transform="translate(5534.500000, 63.000000)" fill-rule="nonzero">
                <path d="M149.702964,69.2886654 C154.099012,73.6735526 154.099012,80.8341941 149.702964,85.2190813 L98.0796532,136.711335 C93.6836056,141.096222 86.5047389,141.096222 82.1086913,136.711335 L56.2970357,110.965208 C51.9009881,106.580321 51.9009881,99.4196793 56.2970357,95.0347921 C60.6930833,90.6499049 67.87195,90.6499049 72.2679976,95.0347921 L90.0941722,112.815711 L133.732002,69.2886654 C138.12805,64.9037782 145.306917,64.9037782 149.702964,69.2886654 L149.702964,69.2886654 Z" id="Path" fill="#00812B"></path>
                <path d="M0,103.5 C0,46.3324219 46.3324219,0 103.5,0 C160.667578,0 207,46.3324219 207,103.5 C207,160.667578 160.667578,207 103.5,207 C46.3324219,207 0,160.667578 0,103.5 Z M150.317578,85.6300781 C154.724414,81.2232422 154.724414,74.0267578 150.317578,69.6199219 C145.910742,65.2130859 138.714258,65.2130859 134.307422,69.6199219 L90.5625,113.364844 L72.6925781,95.4949219 C68.2857422,91.0880859 61.0892578,91.0880859 56.6824219,95.4949219 C52.2755859,99.9017578 52.2755859,107.098242 56.6824219,111.505078 L82.5574219,137.380078 C86.9642578,141.786914 94.1607422,141.786914 98.5675781,137.380078 L150.317578,85.6300781 Z" id="Shape" fill="#08FF51" opacity="0.4"></path>
            </g>
        </g>
    </g>
</svg>