<?xml version="1.0" encoding="UTF-8"?>
<svg width="3816px" height="4000px" viewBox="0 0 3816 4000" version="1.1" xmlns="http://www.w3.org/2000/svg" xmlns:xlink="http://www.w3.org/1999/xlink">
    <title>Group 4</title>
    <g id="Page-1" stroke="none" stroke-width="1" fill="none" fill-rule="evenodd">
        <g id="Group-4" transform="translate(0.269388, 0.057143)" fill-rule="nonzero">
            <g id="Group-3" transform="translate(1758.730612, 2494.942857)">
                <g id="link-horizontal-solid" transform="translate(437.527208, 149.301695)" fill="#3A5291">
                    <path d="M38.1492143,0 C17.0695309,0 0,17.0477189 0,38.1004661 C0,56.7291172 13.4814997,72.6174859 31.8701597,75.6739548 L32.3714287,75.7530014 C36.9619981,76.5171186 41.3151242,73.407952 42.0802191,68.8232486 C42.845314,64.2385452 39.7321693,59.8909816 35.1415999,59.1268644 L34.6403308,59.0478178 C24.4038888,57.3351412 16.8848528,48.4819209 16.8848528,38.1004661 C16.8848528,26.3752189 26.4089651,16.8632768 38.1492143,16.8632768 L80.0447554,16.8632768 C91.7850046,16.8632768 101.309117,26.3752189 101.309117,38.1004661 C101.309117,48.4819209 93.7900808,57.3351412 83.5272562,59.0478178 L83.0259872,59.1268644 C78.4354178,59.8909816 75.3222731,64.2385452 76.087368,68.8232486 C76.8524629,73.407952 81.205589,76.5171186 85.7961583,75.7530014 L86.2974274,75.6739548 C104.686087,72.6174859 118.167618,56.7027684 118.167618,38.1004661 C118.19397,17.0477189 101.124439,0 80.0447554,0 L38.1492143,0 Z M130.699314,101.179661 C151.778997,101.179661 168.848528,84.1319421 168.848528,63.0791949 C168.848528,44.4505438 155.367028,28.5621751 136.978368,25.5057062 L136.477099,25.4266596 C131.88653,24.6625424 127.533404,27.771709 126.768309,32.3564124 C126.003214,36.9411158 129.116359,41.2886794 133.706928,42.0527966 L134.208197,42.1318432 C144.471022,43.8445198 151.990058,52.6977401 151.990058,63.0791949 C151.990058,74.8044421 142.465946,84.3163842 130.725696,84.3163842 L88.8037727,84.3163842 C77.0635235,84.3163842 67.5394112,74.8044421 67.5394112,63.0791949 C67.5394112,52.6977401 75.0584473,43.8445198 85.3212719,42.1318432 L85.8225409,42.0527966 C90.4131103,41.2886794 93.526255,36.9411158 92.7611601,32.3564124 C91.9960652,27.771709 87.6429391,24.6625424 83.0523698,25.4266596 L82.5511007,25.5057062 C64.1360581,28.5621751 50.6545584,44.4505438 50.6545584,63.0791949 C50.6545584,84.1319421 67.7240893,101.179661 88.8037727,101.179661 L130.699314,101.179661 Z" id="Shape"></path>
                </g>
                <g id="link-horizontal-solid" transform="translate(1116.618733, 149.301695)" fill="#3A5291">
                    <path d="M38.1492143,0 C17.0695309,0 0,17.0477189 0,38.1004661 C0,56.7291172 13.4814997,72.6174859 31.8701597,75.6739548 L32.3714287,75.7530014 C36.9619981,76.5171186 41.3151242,73.407952 42.0802191,68.8232486 C42.845314,64.2385452 39.7321693,59.8909816 35.1415999,59.1268644 L34.6403308,59.0478178 C24.4038888,57.3351412 16.8848528,48.4819209 16.8848528,38.1004661 C16.8848528,26.3752189 26.4089651,16.8632768 38.1492143,16.8632768 L80.0447554,16.8632768 C91.7850046,16.8632768 101.309117,26.3752189 101.309117,38.1004661 C101.309117,48.4819209 93.7900808,57.3351412 83.5272562,59.0478178 L83.0259872,59.1268644 C78.4354178,59.8909816 75.3222731,64.2385452 76.087368,68.8232486 C76.8524629,73.407952 81.205589,76.5171186 85.7961583,75.7530014 L86.2974274,75.6739548 C104.686087,72.6174859 118.167618,56.7027684 118.167618,38.1004661 C118.19397,17.0477189 101.124439,0 80.0447554,0 L38.1492143,0 Z M130.699314,101.179661 C151.778997,101.179661 168.848528,84.1319421 168.848528,63.0791949 C168.848528,44.4505438 155.367028,28.5621751 136.978368,25.5057062 L136.477099,25.4266596 C131.88653,24.6625424 127.533404,27.771709 126.768309,32.3564124 C126.003214,36.9411158 129.116359,41.2886794 133.706928,42.0527966 L134.208197,42.1318432 C144.471022,43.8445198 151.990058,52.6977401 151.990058,63.0791949 C151.990058,74.8044421 142.465946,84.3163842 130.725696,84.3163842 L88.8037727,84.3163842 C77.0635235,84.3163842 67.5394112,74.8044421 67.5394112,63.0791949 C67.5394112,52.6977401 75.0584473,43.8445198 85.3212719,42.1318432 L85.8225409,42.0527966 C90.4131103,41.2886794 93.526255,36.9411158 92.7611601,32.3564124 C91.9960652,27.771709 87.6429391,24.6625424 83.0523698,25.4266596 L82.5511007,25.5057062 C64.1360581,28.5621751 50.6545584,44.4505438 50.6545584,63.0791949 C50.6545584,84.1319421 67.7240893,101.179661 88.8037727,101.179661 L130.699314,101.179661 Z" id="Shape"></path>
                </g>
                <g id="cube-thin" fill="#10172A">
                    <path d="M173.44189,1.65013204 C179.661776,-0.550044015 186.382113,-0.550044015 192.602,1.65013204 L347.026765,56.5592475 C358.394144,60.6214416 366.043889,71.4611237 366.043889,83.5688982 L366.043889,280.44561 C366.043889,292.553384 358.394144,303.371573 347.026765,307.45526 L192.602,362.334285 C186.382113,364.555238 179.661776,364.555238 173.44189,362.334285 L19.0314225,307.45526 C7.62114817,303.371573 0,292.553384 0,280.44561 L0,83.5688982 C0,71.4611237 7.62114817,60.6214416 19.0314225,56.5592475 L173.44189,1.65013204 Z M188.74138,12.4554252 C185.023747,11.1300179 181.020142,11.1300179 176.659072,12.4554252 L22.8562952,67.3631078 C19.3459915,68.609707 16.4362285,70.3148256 14.434426,73.8970074 L183.021945,141.456956 L351.602314,73.8970074 C349.600512,70.3148256 346.669301,68.609707 343.166146,67.3631078 L188.74138,12.4554252 Z M22.8562952,296.637071 L177.302509,351.58774 C177.302509,351.58774 176.659072,351.58774 177.302509,351.58774 L177.302509,151.487065 L11.4388715,85.0017709 L11.4388715,280.44561 C11.4388715,287.75326 16.0144202,294.201188 22.8562952,296.637071 Z M188.74138,351.58774 C188.097944,351.58774 188.74138,351.58774 188.74138,351.58774 L343.166146,296.637071 C350.029469,294.201188 354.605018,287.75326 354.605018,280.44561 L354.605018,85.0017709 L188.74138,151.487065 L188.74138,351.58774 Z" id="Shape"></path>
                </g>
                <g id="cube-thin" transform="translate(679.091525, 0.000000)" fill="#10172A">
                    <path d="M173.44189,1.65013204 C179.661776,-0.550044015 186.382113,-0.550044015 192.602,1.65013204 L347.026765,56.5592475 C358.394144,60.6214416 366.043889,71.4611237 366.043889,83.5688982 L366.043889,280.44561 C366.043889,292.553384 358.394144,303.371573 347.026765,307.45526 L192.602,362.334285 C186.382113,364.555238 179.661776,364.555238 173.44189,362.334285 L19.0314225,307.45526 C7.62114817,303.371573 0,292.553384 0,280.44561 L0,83.5688982 C0,71.4611237 7.62114817,60.6214416 19.0314225,56.5592475 L173.44189,1.65013204 Z M188.74138,12.4554252 C185.023747,11.1300179 181.020142,11.1300179 176.659072,12.4554252 L22.8562952,67.3631078 C19.3459915,68.609707 16.4362285,70.3148256 14.434426,73.8970074 L183.021945,141.456956 L351.602314,73.8970074 C349.600512,70.3148256 346.669301,68.609707 343.166146,67.3631078 L188.74138,12.4554252 Z M22.8562952,296.637071 L177.302509,351.58774 C177.302509,351.58774 176.659072,351.58774 177.302509,351.58774 L177.302509,151.487065 L11.4388715,85.0017709 L11.4388715,280.44561 C11.4388715,287.75326 16.0144202,294.201188 22.8562952,296.637071 Z M188.74138,351.58774 C188.097944,351.58774 188.74138,351.58774 188.74138,351.58774 L343.166146,296.637071 C350.029469,294.201188 354.605018,287.75326 354.605018,280.44561 L354.605018,85.0017709 L188.74138,151.487065 L188.74138,351.58774 Z" id="Shape"></path>
                </g>
                <g id="cube-thin" transform="translate(1360.647993, 0.000000)" fill="#10172A">
                    <path d="M173.44189,1.65013204 C179.661776,-0.550044015 186.382113,-0.550044015 192.602,1.65013204 L347.026765,56.5592475 C358.394144,60.6214416 366.043889,71.4611237 366.043889,83.5688982 L366.043889,280.44561 C366.043889,292.553384 358.394144,303.371573 347.026765,307.45526 L192.602,362.334285 C186.382113,364.555238 179.661776,364.555238 173.44189,362.334285 L19.0314225,307.45526 C7.62114817,303.371573 0,292.553384 0,280.44561 L0,83.5688982 C0,71.4611237 7.62114817,60.6214416 19.0314225,56.5592475 L173.44189,1.65013204 Z M188.74138,12.4554252 C185.023747,11.1300179 181.020142,11.1300179 176.659072,12.4554252 L22.8562952,67.3631078 C19.3459915,68.609707 16.4362285,70.3148256 14.434426,73.8970074 L183.021945,141.456956 L351.602314,73.8970074 C349.600512,70.3148256 346.669301,68.609707 343.166146,67.3631078 L188.74138,12.4554252 Z M22.8562952,296.637071 L177.302509,351.58774 C177.302509,351.58774 176.659072,351.58774 177.302509,351.58774 L177.302509,151.487065 L11.4388715,85.0017709 L11.4388715,280.44561 C11.4388715,287.75326 16.0144202,294.201188 22.8562952,296.637071 Z M188.74138,351.58774 C188.097944,351.58774 188.74138,351.58774 188.74138,351.58774 L343.166146,296.637071 C350.029469,294.201188 354.605018,287.75326 354.605018,280.44561 L354.605018,85.0017709 L188.74138,151.487065 L188.74138,351.58774 Z" id="Shape"></path>
                </g>
            </g>
            <g id="Group-3" transform="translate(1758.730612, 3520.942857)">
                <g id="link-horizontal-solid" transform="translate(437.527208, 149.301695)" fill="#3A5291">
                    <path d="M38.1492143,0 C17.0695309,0 0,17.0477189 0,38.1004661 C0,56.7291172 13.4814997,72.6174859 31.8701597,75.6739548 L32.3714287,75.7530014 C36.9619981,76.5171186 41.3151242,73.407952 42.0802191,68.8232486 C42.845314,64.2385452 39.7321693,59.8909816 35.1415999,59.1268644 L34.6403308,59.0478178 C24.4038888,57.3351412 16.8848528,48.4819209 16.8848528,38.1004661 C16.8848528,26.3752189 26.4089651,16.8632768 38.1492143,16.8632768 L80.0447554,16.8632768 C91.7850046,16.8632768 101.309117,26.3752189 101.309117,38.1004661 C101.309117,48.4819209 93.7900808,57.3351412 83.5272562,59.0478178 L83.0259872,59.1268644 C78.4354178,59.8909816 75.3222731,64.2385452 76.087368,68.8232486 C76.8524629,73.407952 81.205589,76.5171186 85.7961583,75.7530014 L86.2974274,75.6739548 C104.686087,72.6174859 118.167618,56.7027684 118.167618,38.1004661 C118.19397,17.0477189 101.124439,0 80.0447554,0 L38.1492143,0 Z M130.699314,101.179661 C151.778997,101.179661 168.848528,84.1319421 168.848528,63.0791949 C168.848528,44.4505438 155.367028,28.5621751 136.978368,25.5057062 L136.477099,25.4266596 C131.88653,24.6625424 127.533404,27.771709 126.768309,32.3564124 C126.003214,36.9411158 129.116359,41.2886794 133.706928,42.0527966 L134.208197,42.1318432 C144.471022,43.8445198 151.990058,52.6977401 151.990058,63.0791949 C151.990058,74.8044421 142.465946,84.3163842 130.725696,84.3163842 L88.8037727,84.3163842 C77.0635235,84.3163842 67.5394112,74.8044421 67.5394112,63.0791949 C67.5394112,52.6977401 75.0584473,43.8445198 85.3212719,42.1318432 L85.8225409,42.0527966 C90.4131103,41.2886794 93.526255,36.9411158 92.7611601,32.3564124 C91.9960652,27.771709 87.6429391,24.6625424 83.0523698,25.4266596 L82.5511007,25.5057062 C64.1360581,28.5621751 50.6545584,44.4505438 50.6545584,63.0791949 C50.6545584,84.1319421 67.7240893,101.179661 88.8037727,101.179661 L130.699314,101.179661 Z" id="Shape"></path>
                </g>
                <g id="link-horizontal-solid" transform="translate(1116.618733, 149.301695)" fill="#3A5291">
                    <path d="M38.1492143,0 C17.0695309,0 0,17.0477189 0,38.1004661 C0,56.7291172 13.4814997,72.6174859 31.8701597,75.6739548 L32.3714287,75.7530014 C36.9619981,76.5171186 41.3151242,73.407952 42.0802191,68.8232486 C42.845314,64.2385452 39.7321693,59.8909816 35.1415999,59.1268644 L34.6403308,59.0478178 C24.4038888,57.3351412 16.8848528,48.4819209 16.8848528,38.1004661 C16.8848528,26.3752189 26.4089651,16.8632768 38.1492143,16.8632768 L80.0447554,16.8632768 C91.7850046,16.8632768 101.309117,26.3752189 101.309117,38.1004661 C101.309117,48.4819209 93.7900808,57.3351412 83.5272562,59.0478178 L83.0259872,59.1268644 C78.4354178,59.8909816 75.3222731,64.2385452 76.087368,68.8232486 C76.8524629,73.407952 81.205589,76.5171186 85.7961583,75.7530014 L86.2974274,75.6739548 C104.686087,72.6174859 118.167618,56.7027684 118.167618,38.1004661 C118.19397,17.0477189 101.124439,0 80.0447554,0 L38.1492143,0 Z M130.699314,101.179661 C151.778997,101.179661 168.848528,84.1319421 168.848528,63.0791949 C168.848528,44.4505438 155.367028,28.5621751 136.978368,25.5057062 L136.477099,25.4266596 C131.88653,24.6625424 127.533404,27.771709 126.768309,32.3564124 C126.003214,36.9411158 129.116359,41.2886794 133.706928,42.0527966 L134.208197,42.1318432 C144.471022,43.8445198 151.990058,52.6977401 151.990058,63.0791949 C151.990058,74.8044421 142.465946,84.3163842 130.725696,84.3163842 L88.8037727,84.3163842 C77.0635235,84.3163842 67.5394112,74.8044421 67.5394112,63.0791949 C67.5394112,52.6977401 75.0584473,43.8445198 85.3212719,42.1318432 L85.8225409,42.0527966 C90.4131103,41.2886794 93.526255,36.9411158 92.7611601,32.3564124 C91.9960652,27.771709 87.6429391,24.6625424 83.0523698,25.4266596 L82.5511007,25.5057062 C64.1360581,28.5621751 50.6545584,44.4505438 50.6545584,63.0791949 C50.6545584,84.1319421 67.7240893,101.179661 88.8037727,101.179661 L130.699314,101.179661 Z" id="Shape"></path>
                </g>
                <g id="cube-thin" fill="#10172A">
                    <path d="M173.44189,1.65013204 C179.661776,-0.550044015 186.382113,-0.550044015 192.602,1.65013204 L347.026765,56.5592475 C358.394144,60.6214416 366.043889,71.4611237 366.043889,83.5688982 L366.043889,280.44561 C366.043889,292.553384 358.394144,303.371573 347.026765,307.45526 L192.602,362.334285 C186.382113,364.555238 179.661776,364.555238 173.44189,362.334285 L19.0314225,307.45526 C7.62114817,303.371573 0,292.553384 0,280.44561 L0,83.5688982 C0,71.4611237 7.62114817,60.6214416 19.0314225,56.5592475 L173.44189,1.65013204 Z M188.74138,12.4554252 C185.023747,11.1300179 181.020142,11.1300179 176.659072,12.4554252 L22.8562952,67.3631078 C19.3459915,68.609707 16.4362285,70.3148256 14.434426,73.8970074 L183.021945,141.456956 L351.602314,73.8970074 C349.600512,70.3148256 346.669301,68.609707 343.166146,67.3631078 L188.74138,12.4554252 Z M22.8562952,296.637071 L177.302509,351.58774 C177.302509,351.58774 176.659072,351.58774 177.302509,351.58774 L177.302509,151.487065 L11.4388715,85.0017709 L11.4388715,280.44561 C11.4388715,287.75326 16.0144202,294.201188 22.8562952,296.637071 Z M188.74138,351.58774 C188.097944,351.58774 188.74138,351.58774 188.74138,351.58774 L343.166146,296.637071 C350.029469,294.201188 354.605018,287.75326 354.605018,280.44561 L354.605018,85.0017709 L188.74138,151.487065 L188.74138,351.58774 Z" id="Shape"></path>
                </g>
                <g id="cube-thin" transform="translate(679.091525, 0.000000)" fill="#10172A">
                    <path d="M173.44189,1.65013204 C179.661776,-0.550044015 186.382113,-0.550044015 192.602,1.65013204 L347.026765,56.5592475 C358.394144,60.6214416 366.043889,71.4611237 366.043889,83.5688982 L366.043889,280.44561 C366.043889,292.553384 358.394144,303.371573 347.026765,307.45526 L192.602,362.334285 C186.382113,364.555238 179.661776,364.555238 173.44189,362.334285 L19.0314225,307.45526 C7.62114817,303.371573 0,292.553384 0,280.44561 L0,83.5688982 C0,71.4611237 7.62114817,60.6214416 19.0314225,56.5592475 L173.44189,1.65013204 Z M188.74138,12.4554252 C185.023747,11.1300179 181.020142,11.1300179 176.659072,12.4554252 L22.8562952,67.3631078 C19.3459915,68.609707 16.4362285,70.3148256 14.434426,73.8970074 L183.021945,141.456956 L351.602314,73.8970074 C349.600512,70.3148256 346.669301,68.609707 343.166146,67.3631078 L188.74138,12.4554252 Z M22.8562952,296.637071 L177.302509,351.58774 C177.302509,351.58774 176.659072,351.58774 177.302509,351.58774 L177.302509,151.487065 L11.4388715,85.0017709 L11.4388715,280.44561 C11.4388715,287.75326 16.0144202,294.201188 22.8562952,296.637071 Z M188.74138,351.58774 C188.097944,351.58774 188.74138,351.58774 188.74138,351.58774 L343.166146,296.637071 C350.029469,294.201188 354.605018,287.75326 354.605018,280.44561 L354.605018,85.0017709 L188.74138,151.487065 L188.74138,351.58774 Z" id="Shape"></path>
                </g>
                <g id="cube-thin" transform="translate(1360.647993, 0.000000)" fill="#10172A">
                    <path d="M173.44189,1.65013204 C179.661776,-0.550044015 186.382113,-0.550044015 192.602,1.65013204 L347.026765,56.5592475 C358.394144,60.6214416 366.043889,71.4611237 366.043889,83.5688982 L366.043889,280.44561 C366.043889,292.553384 358.394144,303.371573 347.026765,307.45526 L192.602,362.334285 C186.382113,364.555238 179.661776,364.555238 173.44189,362.334285 L19.0314225,307.45526 C7.62114817,303.371573 0,292.553384 0,280.44561 L0,83.5688982 C0,71.4611237 7.62114817,60.6214416 19.0314225,56.5592475 L173.44189,1.65013204 Z M188.74138,12.4554252 C185.023747,11.1300179 181.020142,11.1300179 176.659072,12.4554252 L22.8562952,67.3631078 C19.3459915,68.609707 16.4362285,70.3148256 14.434426,73.8970074 L183.021945,141.456956 L351.602314,73.8970074 C349.600512,70.3148256 346.669301,68.609707 343.166146,67.3631078 L188.74138,12.4554252 Z M22.8562952,296.637071 L177.302509,351.58774 C177.302509,351.58774 176.659072,351.58774 177.302509,351.58774 L177.302509,151.487065 L11.4388715,85.0017709 L11.4388715,280.44561 C11.4388715,287.75326 16.0144202,294.201188 22.8562952,296.637071 Z M188.74138,351.58774 C188.097944,351.58774 188.74138,351.58774 188.74138,351.58774 L343.166146,296.637071 C350.029469,294.201188 354.605018,287.75326 354.605018,280.44561 L354.605018,85.0017709 L188.74138,151.487065 L188.74138,351.58774 Z" id="Shape"></path>
                </g>
            </g>
            <g id="Group-3" transform="translate(1758.730612, 132.942857)">
                <g id="link-horizontal-solid" transform="translate(437.527208, 149.301695)" fill="#3A5291">
                    <path d="M38.1492143,0 C17.0695309,0 0,17.0477189 0,38.1004661 C0,56.7291172 13.4814997,72.6174859 31.8701597,75.6739548 L32.3714287,75.7530014 C36.9619981,76.5171186 41.3151242,73.407952 42.0802191,68.8232486 C42.845314,64.2385452 39.7321693,59.8909816 35.1415999,59.1268644 L34.6403308,59.0478178 C24.4038888,57.3351412 16.8848528,48.4819209 16.8848528,38.1004661 C16.8848528,26.3752189 26.4089651,16.8632768 38.1492143,16.8632768 L80.0447554,16.8632768 C91.7850046,16.8632768 101.309117,26.3752189 101.309117,38.1004661 C101.309117,48.4819209 93.7900808,57.3351412 83.5272562,59.0478178 L83.0259872,59.1268644 C78.4354178,59.8909816 75.3222731,64.2385452 76.087368,68.8232486 C76.8524629,73.407952 81.205589,76.5171186 85.7961583,75.7530014 L86.2974274,75.6739548 C104.686087,72.6174859 118.167618,56.7027684 118.167618,38.1004661 C118.19397,17.0477189 101.124439,0 80.0447554,0 L38.1492143,0 Z M130.699314,101.179661 C151.778997,101.179661 168.848528,84.1319421 168.848528,63.0791949 C168.848528,44.4505438 155.367028,28.5621751 136.978368,25.5057062 L136.477099,25.4266596 C131.88653,24.6625424 127.533404,27.771709 126.768309,32.3564124 C126.003214,36.9411158 129.116359,41.2886794 133.706928,42.0527966 L134.208197,42.1318432 C144.471022,43.8445198 151.990058,52.6977401 151.990058,63.0791949 C151.990058,74.8044421 142.465946,84.3163842 130.725696,84.3163842 L88.8037727,84.3163842 C77.0635235,84.3163842 67.5394112,74.8044421 67.5394112,63.0791949 C67.5394112,52.6977401 75.0584473,43.8445198 85.3212719,42.1318432 L85.8225409,42.0527966 C90.4131103,41.2886794 93.526255,36.9411158 92.7611601,32.3564124 C91.9960652,27.771709 87.6429391,24.6625424 83.0523698,25.4266596 L82.5511007,25.5057062 C64.1360581,28.5621751 50.6545584,44.4505438 50.6545584,63.0791949 C50.6545584,84.1319421 67.7240893,101.179661 88.8037727,101.179661 L130.699314,101.179661 Z" id="Shape"></path>
                </g>
                <g id="link-horizontal-solid" transform="translate(1116.618733, 149.301695)" fill="#3A5291">
                    <path d="M38.1492143,0 C17.0695309,0 0,17.0477189 0,38.1004661 C0,56.7291172 13.4814997,72.6174859 31.8701597,75.6739548 L32.3714287,75.7530014 C36.9619981,76.5171186 41.3151242,73.407952 42.0802191,68.8232486 C42.845314,64.2385452 39.7321693,59.8909816 35.1415999,59.1268644 L34.6403308,59.0478178 C24.4038888,57.3351412 16.8848528,48.4819209 16.8848528,38.1004661 C16.8848528,26.3752189 26.4089651,16.8632768 38.1492143,16.8632768 L80.0447554,16.8632768 C91.7850046,16.8632768 101.309117,26.3752189 101.309117,38.1004661 C101.309117,48.4819209 93.7900808,57.3351412 83.5272562,59.0478178 L83.0259872,59.1268644 C78.4354178,59.8909816 75.3222731,64.2385452 76.087368,68.8232486 C76.8524629,73.407952 81.205589,76.5171186 85.7961583,75.7530014 L86.2974274,75.6739548 C104.686087,72.6174859 118.167618,56.7027684 118.167618,38.1004661 C118.19397,17.0477189 101.124439,0 80.0447554,0 L38.1492143,0 Z M130.699314,101.179661 C151.778997,101.179661 168.848528,84.1319421 168.848528,63.0791949 C168.848528,44.4505438 155.367028,28.5621751 136.978368,25.5057062 L136.477099,25.4266596 C131.88653,24.6625424 127.533404,27.771709 126.768309,32.3564124 C126.003214,36.9411158 129.116359,41.2886794 133.706928,42.0527966 L134.208197,42.1318432 C144.471022,43.8445198 151.990058,52.6977401 151.990058,63.0791949 C151.990058,74.8044421 142.465946,84.3163842 130.725696,84.3163842 L88.8037727,84.3163842 C77.0635235,84.3163842 67.5394112,74.8044421 67.5394112,63.0791949 C67.5394112,52.6977401 75.0584473,43.8445198 85.3212719,42.1318432 L85.8225409,42.0527966 C90.4131103,41.2886794 93.526255,36.9411158 92.7611601,32.3564124 C91.9960652,27.771709 87.6429391,24.6625424 83.0523698,25.4266596 L82.5511007,25.5057062 C64.1360581,28.5621751 50.6545584,44.4505438 50.6545584,63.0791949 C50.6545584,84.1319421 67.7240893,101.179661 88.8037727,101.179661 L130.699314,101.179661 Z" id="Shape"></path>
                </g>
                <g id="cube-thin" fill="#10172A">
                    <path d="M173.44189,1.65013204 C179.661776,-0.550044015 186.382113,-0.550044015 192.602,1.65013204 L347.026765,56.5592475 C358.394144,60.6214416 366.043889,71.4611237 366.043889,83.5688982 L366.043889,280.44561 C366.043889,292.553384 358.394144,303.371573 347.026765,307.45526 L192.602,362.334285 C186.382113,364.555238 179.661776,364.555238 173.44189,362.334285 L19.0314225,307.45526 C7.62114817,303.371573 0,292.553384 0,280.44561 L0,83.5688982 C0,71.4611237 7.62114817,60.6214416 19.0314225,56.5592475 L173.44189,1.65013204 Z M188.74138,12.4554252 C185.023747,11.1300179 181.020142,11.1300179 176.659072,12.4554252 L22.8562952,67.3631078 C19.3459915,68.609707 16.4362285,70.3148256 14.434426,73.8970074 L183.021945,141.456956 L351.602314,73.8970074 C349.600512,70.3148256 346.669301,68.609707 343.166146,67.3631078 L188.74138,12.4554252 Z M22.8562952,296.637071 L177.302509,351.58774 C177.302509,351.58774 176.659072,351.58774 177.302509,351.58774 L177.302509,151.487065 L11.4388715,85.0017709 L11.4388715,280.44561 C11.4388715,287.75326 16.0144202,294.201188 22.8562952,296.637071 Z M188.74138,351.58774 C188.097944,351.58774 188.74138,351.58774 188.74138,351.58774 L343.166146,296.637071 C350.029469,294.201188 354.605018,287.75326 354.605018,280.44561 L354.605018,85.0017709 L188.74138,151.487065 L188.74138,351.58774 Z" id="Shape"></path>
                </g>
                <g id="cube-thin" transform="translate(679.091525, 0.000000)" fill="#10172A">
                    <path d="M173.44189,1.65013204 C179.661776,-0.550044015 186.382113,-0.550044015 192.602,1.65013204 L347.026765,56.5592475 C358.394144,60.6214416 366.043889,71.4611237 366.043889,83.5688982 L366.043889,280.44561 C366.043889,292.553384 358.394144,303.371573 347.026765,307.45526 L192.602,362.334285 C186.382113,364.555238 179.661776,364.555238 173.44189,362.334285 L19.0314225,307.45526 C7.62114817,303.371573 0,292.553384 0,280.44561 L0,83.5688982 C0,71.4611237 7.62114817,60.6214416 19.0314225,56.5592475 L173.44189,1.65013204 Z M188.74138,12.4554252 C185.023747,11.1300179 181.020142,11.1300179 176.659072,12.4554252 L22.8562952,67.3631078 C19.3459915,68.609707 16.4362285,70.3148256 14.434426,73.8970074 L183.021945,141.456956 L351.602314,73.8970074 C349.600512,70.3148256 346.669301,68.609707 343.166146,67.3631078 L188.74138,12.4554252 Z M22.8562952,296.637071 L177.302509,351.58774 C177.302509,351.58774 176.659072,351.58774 177.302509,351.58774 L177.302509,151.487065 L11.4388715,85.0017709 L11.4388715,280.44561 C11.4388715,287.75326 16.0144202,294.201188 22.8562952,296.637071 Z M188.74138,351.58774 C188.097944,351.58774 188.74138,351.58774 188.74138,351.58774 L343.166146,296.637071 C350.029469,294.201188 354.605018,287.75326 354.605018,280.44561 L354.605018,85.0017709 L188.74138,151.487065 L188.74138,351.58774 Z" id="Shape"></path>
                </g>
                <g id="cube-thin" transform="translate(1360.647993, 0.000000)" fill="#10172A">
                    <path d="M173.44189,1.65013204 C179.661776,-0.550044015 186.382113,-0.550044015 192.602,1.65013204 L347.026765,56.5592475 C358.394144,60.6214416 366.043889,71.4611237 366.043889,83.5688982 L366.043889,280.44561 C366.043889,292.553384 358.394144,303.371573 347.026765,307.45526 L192.602,362.334285 C186.382113,364.555238 179.661776,364.555238 173.44189,362.334285 L19.0314225,307.45526 C7.62114817,303.371573 0,292.553384 0,280.44561 L0,83.5688982 C0,71.4611237 7.62114817,60.6214416 19.0314225,56.5592475 L173.44189,1.65013204 Z M188.74138,12.4554252 C185.023747,11.1300179 181.020142,11.1300179 176.659072,12.4554252 L22.8562952,67.3631078 C19.3459915,68.609707 16.4362285,70.3148256 14.434426,73.8970074 L183.021945,141.456956 L351.602314,73.8970074 C349.600512,70.3148256 346.669301,68.609707 343.166146,67.3631078 L188.74138,12.4554252 Z M22.8562952,296.637071 L177.302509,351.58774 C177.302509,351.58774 176.659072,351.58774 177.302509,351.58774 L177.302509,151.487065 L11.4388715,85.0017709 L11.4388715,280.44561 C11.4388715,287.75326 16.0144202,294.201188 22.8562952,296.637071 Z M188.74138,351.58774 C188.097944,351.58774 188.74138,351.58774 188.74138,351.58774 L343.166146,296.637071 C350.029469,294.201188 354.605018,287.75326 354.605018,280.44561 L354.605018,85.0017709 L188.74138,151.487065 L188.74138,351.58774 Z" id="Shape"></path>
                </g>
            </g>
            <g id="Group-3" transform="translate(1758.730612, 1314.942857)">
                <g id="link-horizontal-solid" transform="translate(437.527208, 149.301695)" fill="#3A5291">
                    <path d="M38.1492143,0 C17.0695309,0 0,17.0477189 0,38.1004661 C0,56.7291172 13.4814997,72.6174859 31.8701597,75.6739548 L32.3714287,75.7530014 C36.9619981,76.5171186 41.3151242,73.407952 42.0802191,68.8232486 C42.845314,64.2385452 39.7321693,59.8909816 35.1415999,59.1268644 L34.6403308,59.0478178 C24.4038888,57.3351412 16.8848528,48.4819209 16.8848528,38.1004661 C16.8848528,26.3752189 26.4089651,16.8632768 38.1492143,16.8632768 L80.0447554,16.8632768 C91.7850046,16.8632768 101.309117,26.3752189 101.309117,38.1004661 C101.309117,48.4819209 93.7900808,57.3351412 83.5272562,59.0478178 L83.0259872,59.1268644 C78.4354178,59.8909816 75.3222731,64.2385452 76.087368,68.8232486 C76.8524629,73.407952 81.205589,76.5171186 85.7961583,75.7530014 L86.2974274,75.6739548 C104.686087,72.6174859 118.167618,56.7027684 118.167618,38.1004661 C118.19397,17.0477189 101.124439,0 80.0447554,0 L38.1492143,0 Z M130.699314,101.179661 C151.778997,101.179661 168.848528,84.1319421 168.848528,63.0791949 C168.848528,44.4505438 155.367028,28.5621751 136.978368,25.5057062 L136.477099,25.4266596 C131.88653,24.6625424 127.533404,27.771709 126.768309,32.3564124 C126.003214,36.9411158 129.116359,41.2886794 133.706928,42.0527966 L134.208197,42.1318432 C144.471022,43.8445198 151.990058,52.6977401 151.990058,63.0791949 C151.990058,74.8044421 142.465946,84.3163842 130.725696,84.3163842 L88.8037727,84.3163842 C77.0635235,84.3163842 67.5394112,74.8044421 67.5394112,63.0791949 C67.5394112,52.6977401 75.0584473,43.8445198 85.3212719,42.1318432 L85.8225409,42.0527966 C90.4131103,41.2886794 93.526255,36.9411158 92.7611601,32.3564124 C91.9960652,27.771709 87.6429391,24.6625424 83.0523698,25.4266596 L82.5511007,25.5057062 C64.1360581,28.5621751 50.6545584,44.4505438 50.6545584,63.0791949 C50.6545584,84.1319421 67.7240893,101.179661 88.8037727,101.179661 L130.699314,101.179661 Z" id="Shape"></path>
                </g>
                <g id="link-horizontal-solid" transform="translate(1116.618733, 149.301695)" fill="#3A5291">
                    <path d="M38.1492143,0 C17.0695309,0 0,17.0477189 0,38.1004661 C0,56.7291172 13.4814997,72.6174859 31.8701597,75.6739548 L32.3714287,75.7530014 C36.9619981,76.5171186 41.3151242,73.407952 42.0802191,68.8232486 C42.845314,64.2385452 39.7321693,59.8909816 35.1415999,59.1268644 L34.6403308,59.0478178 C24.4038888,57.3351412 16.8848528,48.4819209 16.8848528,38.1004661 C16.8848528,26.3752189 26.4089651,16.8632768 38.1492143,16.8632768 L80.0447554,16.8632768 C91.7850046,16.8632768 101.309117,26.3752189 101.309117,38.1004661 C101.309117,48.4819209 93.7900808,57.3351412 83.5272562,59.0478178 L83.0259872,59.1268644 C78.4354178,59.8909816 75.3222731,64.2385452 76.087368,68.8232486 C76.8524629,73.407952 81.205589,76.5171186 85.7961583,75.7530014 L86.2974274,75.6739548 C104.686087,72.6174859 118.167618,56.7027684 118.167618,38.1004661 C118.19397,17.0477189 101.124439,0 80.0447554,0 L38.1492143,0 Z M130.699314,101.179661 C151.778997,101.179661 168.848528,84.1319421 168.848528,63.0791949 C168.848528,44.4505438 155.367028,28.5621751 136.978368,25.5057062 L136.477099,25.4266596 C131.88653,24.6625424 127.533404,27.771709 126.768309,32.3564124 C126.003214,36.9411158 129.116359,41.2886794 133.706928,42.0527966 L134.208197,42.1318432 C144.471022,43.8445198 151.990058,52.6977401 151.990058,63.0791949 C151.990058,74.8044421 142.465946,84.3163842 130.725696,84.3163842 L88.8037727,84.3163842 C77.0635235,84.3163842 67.5394112,74.8044421 67.5394112,63.0791949 C67.5394112,52.6977401 75.0584473,43.8445198 85.3212719,42.1318432 L85.8225409,42.0527966 C90.4131103,41.2886794 93.526255,36.9411158 92.7611601,32.3564124 C91.9960652,27.771709 87.6429391,24.6625424 83.0523698,25.4266596 L82.5511007,25.5057062 C64.1360581,28.5621751 50.6545584,44.4505438 50.6545584,63.0791949 C50.6545584,84.1319421 67.7240893,101.179661 88.8037727,101.179661 L130.699314,101.179661 Z" id="Shape"></path>
                </g>
                <g id="cube-thin" fill="#10172A">
                    <path d="M173.44189,1.65013204 C179.661776,-0.550044015 186.382113,-0.550044015 192.602,1.65013204 L347.026765,56.5592475 C358.394144,60.6214416 366.043889,71.4611237 366.043889,83.5688982 L366.043889,280.44561 C366.043889,292.553384 358.394144,303.371573 347.026765,307.45526 L192.602,362.334285 C186.382113,364.555238 179.661776,364.555238 173.44189,362.334285 L19.0314225,307.45526 C7.62114817,303.371573 0,292.553384 0,280.44561 L0,83.5688982 C0,71.4611237 7.62114817,60.6214416 19.0314225,56.5592475 L173.44189,1.65013204 Z M188.74138,12.4554252 C185.023747,11.1300179 181.020142,11.1300179 176.659072,12.4554252 L22.8562952,67.3631078 C19.3459915,68.609707 16.4362285,70.3148256 14.434426,73.8970074 L183.021945,141.456956 L351.602314,73.8970074 C349.600512,70.3148256 346.669301,68.609707 343.166146,67.3631078 L188.74138,12.4554252 Z M22.8562952,296.637071 L177.302509,351.58774 C177.302509,351.58774 176.659072,351.58774 177.302509,351.58774 L177.302509,151.487065 L11.4388715,85.0017709 L11.4388715,280.44561 C11.4388715,287.75326 16.0144202,294.201188 22.8562952,296.637071 Z M188.74138,351.58774 C188.097944,351.58774 188.74138,351.58774 188.74138,351.58774 L343.166146,296.637071 C350.029469,294.201188 354.605018,287.75326 354.605018,280.44561 L354.605018,85.0017709 L188.74138,151.487065 L188.74138,351.58774 Z" id="Shape"></path>
                </g>
                <g id="cube-thin" transform="translate(679.091525, 0.000000)" fill="#10172A">
                    <path d="M173.44189,1.65013204 C179.661776,-0.550044015 186.382113,-0.550044015 192.602,1.65013204 L347.026765,56.5592475 C358.394144,60.6214416 366.043889,71.4611237 366.043889,83.5688982 L366.043889,280.44561 C366.043889,292.553384 358.394144,303.371573 347.026765,307.45526 L192.602,362.334285 C186.382113,364.555238 179.661776,364.555238 173.44189,362.334285 L19.0314225,307.45526 C7.62114817,303.371573 0,292.553384 0,280.44561 L0,83.5688982 C0,71.4611237 7.62114817,60.6214416 19.0314225,56.5592475 L173.44189,1.65013204 Z M188.74138,12.4554252 C185.023747,11.1300179 181.020142,11.1300179 176.659072,12.4554252 L22.8562952,67.3631078 C19.3459915,68.609707 16.4362285,70.3148256 14.434426,73.8970074 L183.021945,141.456956 L351.602314,73.8970074 C349.600512,70.3148256 346.669301,68.609707 343.166146,67.3631078 L188.74138,12.4554252 Z M22.8562952,296.637071 L177.302509,351.58774 C177.302509,351.58774 176.659072,351.58774 177.302509,351.58774 L177.302509,151.487065 L11.4388715,85.0017709 L11.4388715,280.44561 C11.4388715,287.75326 16.0144202,294.201188 22.8562952,296.637071 Z M188.74138,351.58774 C188.097944,351.58774 188.74138,351.58774 188.74138,351.58774 L343.166146,296.637071 C350.029469,294.201188 354.605018,287.75326 354.605018,280.44561 L354.605018,85.0017709 L188.74138,151.487065 L188.74138,351.58774 Z" id="Shape"></path>
                </g>
                <g id="cube-thin" transform="translate(1360.647993, 0.000000)" fill="#10172A">
                    <path d="M173.44189,1.65013204 C179.661776,-0.550044015 186.382113,-0.550044015 192.602,1.65013204 L347.026765,56.5592475 C358.394144,60.6214416 366.043889,71.4611237 366.043889,83.5688982 L366.043889,280.44561 C366.043889,292.553384 358.394144,303.371573 347.026765,307.45526 L192.602,362.334285 C186.382113,364.555238 179.661776,364.555238 173.44189,362.334285 L19.0314225,307.45526 C7.62114817,303.371573 0,292.553384 0,280.44561 L0,83.5688982 C0,71.4611237 7.62114817,60.6214416 19.0314225,56.5592475 L173.44189,1.65013204 Z M188.74138,12.4554252 C185.023747,11.1300179 181.020142,11.1300179 176.659072,12.4554252 L22.8562952,67.3631078 C19.3459915,68.609707 16.4362285,70.3148256 14.434426,73.8970074 L183.021945,141.456956 L351.602314,73.8970074 C349.600512,70.3148256 346.669301,68.609707 343.166146,67.3631078 L188.74138,12.4554252 Z M22.8562952,296.637071 L177.302509,351.58774 C177.302509,351.58774 176.659072,351.58774 177.302509,351.58774 L177.302509,151.487065 L11.4388715,85.0017709 L11.4388715,280.44561 C11.4388715,287.75326 16.0144202,294.201188 22.8562952,296.637071 Z M188.74138,351.58774 C188.097944,351.58774 188.74138,351.58774 188.74138,351.58774 L343.166146,296.637071 C350.029469,294.201188 354.605018,287.75326 354.605018,280.44561 L354.605018,85.0017709 L188.74138,151.487065 L188.74138,351.58774 Z" id="Shape"></path>
                </g>
            </g>
            <g id="user-hair-long-solid" transform="translate(1.232653, 3368.000000)" fill="#10172A">
                <path d="M374.726531,157.779592 C374.726531,143.727347 371.768163,130.414694 366.467755,118.334694 L364.865306,118.334694 C339.595918,118.334694 317.161633,106.501224 302.739592,88.1346939 C285.852245,117.964898 253.68,138.057143 216.946939,138.057143 L179.474286,138.057143 C178.241633,144.466939 177.502041,151 177.502041,157.779592 L177.502041,177.502041 C177.502041,231.985306 221.63102,276.114286 276.114286,276.114286 C330.597551,276.114286 374.726531,231.985306 374.726531,177.502041 L374.726531,157.779592 Z M118.334694,157.779592 C118.334694,70.6310204 188.965714,0 276.114286,0 C363.262857,0 433.893878,70.6310204 433.893878,157.779592 L433.893878,171.338776 C433.893878,213.125714 450.534694,253.310204 480.118367,282.893878 L484.925714,287.701224 C490.102857,292.878367 493.061224,300.027755 493.061224,307.423673 C493.061224,322.831837 480.611429,335.281633 465.203265,335.281633 L276.114286,335.281633 L87.0253061,335.281633 C71.6171429,335.281633 59.1673469,322.831837 59.1673469,307.423673 C59.1673469,300.027755 62.1257143,292.878367 67.3028571,287.701224 L72.1102041,282.893878 C101.693878,253.310204 118.334694,213.125714 118.334694,171.338776 L118.334694,157.779592 Z M198.826939,394.44898 L353.401633,394.44898 C463.23102,394.44898 552.228571,483.446531 552.228571,593.275918 C552.228571,614.23102 535.217959,631.118367 514.386122,631.118367 L37.842449,631.118367 C17.0106122,631.118367 0,614.107755 0,593.275918 C0,483.446531 88.997551,394.44898 198.826939,394.44898 Z" id="Shape"></path>
            </g>
            <g id="user-hair-buns-solid" transform="translate(0.000000, 2362.767347)" fill="#10172A">
                <path d="M374.726531,157.779592 L374.726531,177.502041 C374.726531,231.985306 330.597551,276.114286 276.114286,276.114286 C221.63102,276.114286 177.502041,231.985306 177.502041,177.502041 L177.502041,157.779592 C177.502041,151 178.241633,144.466939 179.474286,138.057143 L197.22449,138.057143 C229.52,138.057143 258.117551,122.525714 276.114286,98.6122449 C294.11102,122.525714 322.708571,138.057143 355.004082,138.057143 L372.754286,138.057143 C373.986939,144.466939 374.726531,151 374.726531,157.779592 Z M103.542857,236.669388 C112.171429,236.669388 120.430204,234.697143 127.702857,230.999184 C149.644082,291.76898 207.825306,335.281633 276.114286,335.281633 C344.403265,335.281633 402.707755,291.76898 424.525714,230.999184 C431.798367,234.573878 439.933878,236.669388 448.685714,236.669388 C478.639184,236.669388 502.922449,212.386122 502.922449,182.432653 L502.922449,133.126531 C502.922449,103.173061 478.639184,78.8897959 448.685714,78.8897959 C437.222041,78.8897959 426.621224,82.4644898 417.869388,88.5044898 C392.230204,36.1167347 338.363265,0 276.114286,0 C213.865306,0 159.998367,36.1167347 134.359184,88.5044898 C125.607347,82.4644898 115.006531,78.8897959 103.542857,78.8897959 C73.5893878,78.8897959 49.3061224,103.173061 49.3061224,133.126531 L49.3061224,182.432653 C49.3061224,212.386122 73.5893878,236.669388 103.542857,236.669388 Z M198.826939,394.44898 C88.997551,394.44898 0,483.446531 0,593.275918 C0,614.23102 17.0106122,631.118367 37.842449,631.118367 L514.386122,631.118367 C535.341224,631.118367 552.228571,614.107755 552.228571,593.275918 C552.228571,483.446531 463.23102,394.44898 353.401633,394.44898 L198.826939,394.44898 Z" id="Shape"></path>
            </g>
            <g id="user-shakespeare-solid" transform="translate(0.000000, 1182.000000)" fill="#10172A">
                <path d="M276.114286,59.1673469 C221.63102,59.1673469 177.502041,103.296327 177.502041,157.779592 L177.502041,197.22449 C177.502041,246.653878 213.865306,287.577959 261.322449,294.727347 L261.322449,276.114286 C261.322449,267.978776 267.978776,261.322449 276.114286,261.322449 C284.249796,261.322449 290.906122,267.978776 290.906122,276.114286 L290.906122,294.727347 C338.363265,287.577959 374.726531,246.653878 374.726531,197.22449 L374.726531,157.779592 C374.726531,103.296327 330.597551,59.1673469 276.114286,59.1673469 Z M118.334694,157.779592 C118.334694,70.6310204 188.965714,0 276.114286,0 C363.262857,0 433.893878,70.6310204 433.893878,157.779592 L433.893878,186.377143 C433.893878,199.813061 438.454694,212.879184 446.836735,223.356735 L460.519184,240.367347 C468.777959,250.721633 473.338776,263.541224 473.338776,276.853878 C473.338776,309.149388 447.206531,335.281633 414.91102,335.281633 L352.538776,335.281633 C329.857959,347.854694 303.84898,355.004082 276.114286,355.004082 C248.379592,355.004082 222.370612,347.854694 199.689796,335.281633 L137.317551,335.281633 C105.022041,335.281633 78.8897959,309.149388 78.8897959,276.853878 C78.8897959,263.541224 83.4506122,250.721633 91.7093878,240.367347 L105.391837,223.233469 C113.773878,212.755918 118.334694,199.689796 118.334694,186.253878 L118.334694,157.779592 Z M236.669388,177.502041 C225.822041,177.502041 216.946939,168.626939 216.946939,157.779592 C216.946939,146.932245 225.822041,138.057143 236.669388,138.057143 C247.516735,138.057143 256.391837,146.932245 256.391837,157.779592 C256.391837,168.626939 247.516735,177.502041 236.669388,177.502041 Z M335.281633,157.779592 C335.281633,168.626939 326.406531,177.502041 315.559184,177.502041 C304.711837,177.502041 295.836735,168.626939 295.836735,157.779592 C295.836735,146.932245 304.711837,138.057143 315.559184,138.057143 C326.406531,138.057143 335.281633,146.932245 335.281633,157.779592 Z M286.591837,206.469388 C289.057143,208.934694 293.987755,213.002449 299.781224,216.453878 C305.821224,220.028571 311.368163,221.877551 315.559184,221.877551 C323.694694,221.877551 330.35102,228.533878 330.35102,236.669388 C330.35102,244.804898 323.694694,251.461224 315.559184,251.461224 C303.84898,251.461224 293.001633,246.777143 284.989388,242.093061 C281.907755,240.244082 278.949388,238.271837 276.237551,236.422857 C260.829388,247.763265 245.297959,251.461224 236.669388,251.461224 C228.533878,251.461224 221.877551,244.804898 221.877551,236.669388 C221.877551,228.533878 228.533878,221.877551 236.669388,221.877551 C239.257959,221.877551 252.570612,219.53551 265.636735,206.469388 C271.430204,200.675918 280.798367,200.675918 286.591837,206.469388 Z M335.281633,374.726531 C364.742041,374.726531 391.737143,385.573878 412.445714,403.324082 C493.43102,428.470204 552.228571,504.031837 552.228571,593.152653 C552.228571,614.107755 535.217959,630.995768 514.386122,630.995768 L295.836735,630.995768 C295.836735,620.147755 286.961633,611.272653 276.114286,611.272653 C265.266939,611.272653 256.391837,620.147755 256.391837,630.995768 L37.842449,630.995768 C17.0106122,631.118367 0,614.107755 0,593.275918 C0,504.031837 58.797551,428.593469 139.782857,403.447347 C160.491429,385.573878 187.486531,374.726531 216.946939,374.726531 L335.281633,374.726531 Z M256.391837,552.228571 C256.391837,563.075918 265.266939,571.95102 276.114286,571.95102 C286.961633,571.95102 295.836735,563.075918 295.836735,552.228571 C295.836735,541.381224 286.961633,532.506122 276.114286,532.506122 C265.266939,532.506122 256.391837,541.381224 256.391837,552.228571 Z M157.779592,493.061224 C190.321633,479.995102 225.082449,473.338776 260.213061,473.338776 L292.01551,473.338776 C327.146122,473.338776 361.906939,479.995102 394.44898,493.061224 C394.44898,460.395918 367.946939,433.893878 335.281633,433.893878 L216.946939,433.893878 C184.281633,433.893878 157.779592,460.395918 157.779592,493.061224 Z" id="Shape"></path>
            </g>
            <g id="user-robot-solid" transform="translate(1.232653, 0.000000)" fill="#10172A">
                <path d="M276.114286,0 C286.961633,0 295.836735,8.87510204 295.836735,19.722449 L295.836735,78.8897959 L374.726531,78.8897959 C418.239184,78.8897959 453.616327,114.266939 453.616327,157.779592 L453.616327,315.559184 C453.616327,359.071837 418.239184,394.44898 374.726531,394.44898 L177.502041,394.44898 C133.989388,394.44898 98.6122449,359.071837 98.6122449,315.559184 L98.6122449,157.779592 C98.6122449,114.266939 133.989388,78.8897959 177.502041,78.8897959 L256.391837,78.8897959 L256.391837,19.722449 C256.391837,8.87510204 265.266939,0 276.114286,0 Z M19.722449,177.502041 C19.722449,166.654694 28.597551,157.779592 39.444898,157.779592 C50.2922449,157.779592 59.1673469,166.654694 59.1673469,177.502041 L59.1673469,295.836735 C59.1673469,306.684082 50.2922449,315.559184 39.444898,315.559184 C28.597551,315.559184 19.722449,306.684082 19.722449,295.836735 L19.722449,177.502041 Z M512.783673,157.779592 C523.63102,157.779592 532.506122,166.654694 532.506122,177.502041 L532.506122,295.836735 C532.506122,306.684082 523.63102,315.559184 512.783673,315.559184 C501.936327,315.559184 493.061224,306.684082 493.061224,295.836735 L493.061224,177.502041 C493.061224,166.654694 501.936327,157.779592 512.783673,157.779592 Z M197.22449,236.669388 C219.042449,236.669388 236.669388,219.042449 236.669388,197.22449 C236.669388,175.406531 219.042449,157.779592 197.22449,157.779592 C175.406531,157.779592 157.779592,175.406531 157.779592,197.22449 C157.779592,219.042449 175.406531,236.669388 197.22449,236.669388 Z M394.44898,197.22449 C394.44898,175.406531 376.822041,157.779592 355.004082,157.779592 C333.186122,157.779592 315.559184,175.406531 315.559184,197.22449 C315.559184,219.042449 333.186122,236.669388 355.004082,236.669388 C376.822041,236.669388 394.44898,219.042449 394.44898,197.22449 Z M197.22449,295.836735 C186.377143,295.836735 177.502041,304.711837 177.502041,315.559184 C177.502041,326.406531 186.377143,335.281633 197.22449,335.281633 C208.071837,335.281633 216.946939,326.406531 216.946939,315.559184 C216.946939,304.711837 208.071837,295.836735 197.22449,295.836735 Z M256.391837,315.559184 C256.391837,326.406531 265.266939,335.281633 276.114286,335.281633 C286.961633,335.281633 295.836735,326.406531 295.836735,315.559184 C295.836735,304.711837 286.961633,295.836735 276.114286,295.836735 C265.266939,295.836735 256.391837,304.711837 256.391837,315.559184 Z M355.004082,295.836735 C344.156735,295.836735 335.281633,304.711837 335.281633,315.559184 C335.281633,326.406531 344.156735,335.281633 355.004082,335.281633 C365.851429,335.281633 374.726531,326.406531 374.726531,315.559184 C374.726531,304.711837 365.851429,295.836735 355.004082,295.836735 Z M118.334694,433.893878 L433.893878,433.893878 C499.22449,433.893878 552.228571,486.897959 552.228571,552.228571 L552.228571,591.673469 C552.228571,613.491429 534.601633,631.118367 512.783673,631.118367 L433.893878,631.118367 L433.893878,552.228571 C433.893878,530.410612 416.266939,512.783673 394.44898,512.783673 L157.779592,512.783673 C135.961633,512.783673 118.334694,530.410612 118.334694,552.228571 L118.334694,631.118367 L39.444898,631.118367 C17.6269388,631.118367 0,613.491429 0,591.673469 L0,552.228571 C0,486.897959 53.0040816,433.893878 118.334694,433.893878 Z M216.946939,571.95102 L216.946939,631.118367 L177.502041,631.118367 L177.502041,571.95102 C177.502041,561.103673 186.377143,552.228571 197.22449,552.228571 C208.071837,552.228571 216.946939,561.103673 216.946939,571.95102 Z M276.114286,552.228571 C286.961633,552.228571 295.836735,561.103673 295.836735,571.95102 L295.836735,631.118367 L256.391837,631.118367 L256.391837,571.95102 C256.391837,561.103673 265.266939,552.228571 276.114286,552.228571 Z M374.726531,571.95102 L374.726531,631.118367 L335.281633,631.118367 L335.281633,571.95102 C335.281633,561.103673 344.156735,552.228571 355.004082,552.228571 C365.851429,552.228571 374.726531,561.103673 374.726531,571.95102 Z" id="Shape"></path>
            </g>
            <g id="computer-thin" transform="translate(686.730612, 95.942857)" fill="#10172A">
                <path d="M59.175,88.7142857 C59.175,72.3883929 72.4277344,59.1428571 88.7625,59.1428571 L463.5375,59.1428571 C479.933906,59.1428571 493.125,72.3883929 493.125,88.7142857 L493.125,345 C493.125,361.3875 479.933906,374.571429 463.5375,374.571429 L88.7625,374.571429 C72.4277344,374.571429 59.175,361.3875 59.175,345 L59.175,88.7142857 Z M78.9,88.7142857 L78.9,345 C78.9,350.421429 83.3134687,354.857143 88.7625,354.857143 L463.5375,354.857143 C468.961875,354.857143 473.4,350.421429 473.4,345 L473.4,88.7142857 C473.4,83.2682143 468.961875,78.8571429 463.5375,78.8571429 L88.7625,78.8571429 C83.3134687,78.8571429 78.9,83.2682143 78.9,88.7142857 Z M213.153281,433.714286 L78.9,433.714286 C35.3200781,433.714286 0,398.351786 0,354.857143 L0,78.8571429 C0,35.3008929 35.3200781,0 78.9,0 L473.4,0 C516.918281,0 552.3,35.3008929 552.3,78.8571429 L552.3,354.857143 C552.3,398.351786 516.918281,433.714286 473.4,433.714286 L339.146719,433.714286 L372.062813,532.285714 L463.5375,532.285714 C468.961875,532.285714 473.4,536.721429 473.4,542.142857 C473.4,547.564286 468.961875,552 463.5375,552 L88.7625,552 C83.3134688,552 78.9,547.564286 78.9,542.142857 C78.9,536.721429 83.3134688,532.285714 88.7625,532.285714 L180.237188,532.285714 L213.153281,433.714286 Z M19.725,78.8571429 L19.725,354.857143 C19.725,387.508929 46.2181406,414 78.9,414 L473.4,414 C506.069531,414 532.575,387.508929 532.575,354.857143 L532.575,78.8571429 C532.575,46.1930357 506.069531,19.7142857 473.4,19.7142857 L78.9,19.7142857 C46.2181406,19.7142857 19.725,46.1930357 19.725,78.8571429 Z M233.987813,433.714286 L201.071719,532.285714 L351.228281,532.285714 L318.312187,433.714286 L233.987813,433.714286 Z M641.0625,128.142857 C641.0625,122.721429 645.500625,118.285714 650.925,118.285714 L729.825,118.285714 C735.249375,118.285714 739.6875,122.721429 739.6875,128.142857 C739.6875,133.564286 735.249375,138 729.825,138 L650.925,138 C645.500625,138 641.0625,133.564286 641.0625,128.142857 Z M729.825,197.142857 C735.249375,197.142857 739.6875,201.578571 739.6875,207 C739.6875,212.421429 735.249375,216.857143 729.825,216.857143 L650.925,216.857143 C645.500625,216.857143 641.0625,212.421429 641.0625,207 C641.0625,201.578571 645.500625,197.142857 650.925,197.142857 L729.825,197.142857 Z M710.1,374.571429 C710.1,385.414286 701.22375,394.285714 690.375,394.285714 C679.52625,394.285714 670.65,385.414286 670.65,374.571429 C670.65,363.728571 679.52625,354.857143 690.375,354.857143 C701.22375,354.857143 710.1,363.728571 710.1,374.571429 Z M729.825,0 C762.494531,0 789,26.47875 789,59.1428571 L789,492.857143 C789,525.508929 762.494531,552 729.825,552 L650.925,552 C618.255469,552 591.75,525.508929 591.75,492.857143 L591.75,59.1428571 C591.75,26.47875 618.255469,0 650.925,0 L729.825,0 Z M729.825,19.7142857 L650.925,19.7142857 C629.104219,19.7142857 611.475,37.3708929 611.475,59.1428571 L611.475,492.857143 C611.475,514.666071 629.104219,532.285714 650.925,532.285714 L729.825,532.285714 C751.645781,532.285714 769.275,514.666071 769.275,492.857143 L769.275,59.1428571 C769.275,37.3708929 751.645781,19.7142857 729.825,19.7142857 Z" id="Shape"></path>
            </g>
            <g id="computer-thin" transform="translate(686.730612, 1273.942857)" fill="#10172A">
                <path d="M59.175,88.7142857 C59.175,72.3883929 72.4277344,59.1428571 88.7625,59.1428571 L463.5375,59.1428571 C479.933906,59.1428571 493.125,72.3883929 493.125,88.7142857 L493.125,345 C493.125,361.3875 479.933906,374.571429 463.5375,374.571429 L88.7625,374.571429 C72.4277344,374.571429 59.175,361.3875 59.175,345 L59.175,88.7142857 Z M78.9,88.7142857 L78.9,345 C78.9,350.421429 83.3134687,354.857143 88.7625,354.857143 L463.5375,354.857143 C468.961875,354.857143 473.4,350.421429 473.4,345 L473.4,88.7142857 C473.4,83.2682143 468.961875,78.8571429 463.5375,78.8571429 L88.7625,78.8571429 C83.3134687,78.8571429 78.9,83.2682143 78.9,88.7142857 Z M213.153281,433.714286 L78.9,433.714286 C35.3200781,433.714286 0,398.351786 0,354.857143 L0,78.8571429 C0,35.3008929 35.3200781,0 78.9,0 L473.4,0 C516.918281,0 552.3,35.3008929 552.3,78.8571429 L552.3,354.857143 C552.3,398.351786 516.918281,433.714286 473.4,433.714286 L339.146719,433.714286 L372.062813,532.285714 L463.5375,532.285714 C468.961875,532.285714 473.4,536.721429 473.4,542.142857 C473.4,547.564286 468.961875,552 463.5375,552 L88.7625,552 C83.3134688,552 78.9,547.564286 78.9,542.142857 C78.9,536.721429 83.3134688,532.285714 88.7625,532.285714 L180.237188,532.285714 L213.153281,433.714286 Z M19.725,78.8571429 L19.725,354.857143 C19.725,387.508929 46.2181406,414 78.9,414 L473.4,414 C506.069531,414 532.575,387.508929 532.575,354.857143 L532.575,78.8571429 C532.575,46.1930357 506.069531,19.7142857 473.4,19.7142857 L78.9,19.7142857 C46.2181406,19.7142857 19.725,46.1930357 19.725,78.8571429 Z M233.987813,433.714286 L201.071719,532.285714 L351.228281,532.285714 L318.312187,433.714286 L233.987813,433.714286 Z M641.0625,128.142857 C641.0625,122.721429 645.500625,118.285714 650.925,118.285714 L729.825,118.285714 C735.249375,118.285714 739.6875,122.721429 739.6875,128.142857 C739.6875,133.564286 735.249375,138 729.825,138 L650.925,138 C645.500625,138 641.0625,133.564286 641.0625,128.142857 Z M729.825,197.142857 C735.249375,197.142857 739.6875,201.578571 739.6875,207 C739.6875,212.421429 735.249375,216.857143 729.825,216.857143 L650.925,216.857143 C645.500625,216.857143 641.0625,212.421429 641.0625,207 C641.0625,201.578571 645.500625,197.142857 650.925,197.142857 L729.825,197.142857 Z M710.1,374.571429 C710.1,385.414286 701.22375,394.285714 690.375,394.285714 C679.52625,394.285714 670.65,385.414286 670.65,374.571429 C670.65,363.728571 679.52625,354.857143 690.375,354.857143 C701.22375,354.857143 710.1,363.728571 710.1,374.571429 Z M729.825,0 C762.494531,0 789,26.47875 789,59.1428571 L789,492.857143 C789,525.508929 762.494531,552 729.825,552 L650.925,552 C618.255469,552 591.75,525.508929 591.75,492.857143 L591.75,59.1428571 C591.75,26.47875 618.255469,0 650.925,0 L729.825,0 Z M729.825,19.7142857 L650.925,19.7142857 C629.104219,19.7142857 611.475,37.3708929 611.475,59.1428571 L611.475,492.857143 C611.475,514.666071 629.104219,532.285714 650.925,532.285714 L729.825,532.285714 C751.645781,532.285714 769.275,514.666071 769.275,492.857143 L769.275,59.1428571 C769.275,37.3708929 751.645781,19.7142857 729.825,19.7142857 Z" id="Shape"></path>
            </g>
            <g id="computer-thin" transform="translate(729.730612, 2401.942857)" fill="#10172A">
                <path d="M59.175,88.7142857 C59.175,72.3883929 72.4277344,59.1428571 88.7625,59.1428571 L463.5375,59.1428571 C479.933906,59.1428571 493.125,72.3883929 493.125,88.7142857 L493.125,345 C493.125,361.3875 479.933906,374.571429 463.5375,374.571429 L88.7625,374.571429 C72.4277344,374.571429 59.175,361.3875 59.175,345 L59.175,88.7142857 Z M78.9,88.7142857 L78.9,345 C78.9,350.421429 83.3134687,354.857143 88.7625,354.857143 L463.5375,354.857143 C468.961875,354.857143 473.4,350.421429 473.4,345 L473.4,88.7142857 C473.4,83.2682143 468.961875,78.8571429 463.5375,78.8571429 L88.7625,78.8571429 C83.3134687,78.8571429 78.9,83.2682143 78.9,88.7142857 Z M213.153281,433.714286 L78.9,433.714286 C35.3200781,433.714286 0,398.351786 0,354.857143 L0,78.8571429 C0,35.3008929 35.3200781,0 78.9,0 L473.4,0 C516.918281,0 552.3,35.3008929 552.3,78.8571429 L552.3,354.857143 C552.3,398.351786 516.918281,433.714286 473.4,433.714286 L339.146719,433.714286 L372.062813,532.285714 L463.5375,532.285714 C468.961875,532.285714 473.4,536.721429 473.4,542.142857 C473.4,547.564286 468.961875,552 463.5375,552 L88.7625,552 C83.3134688,552 78.9,547.564286 78.9,542.142857 C78.9,536.721429 83.3134688,532.285714 88.7625,532.285714 L180.237188,532.285714 L213.153281,433.714286 Z M19.725,78.8571429 L19.725,354.857143 C19.725,387.508929 46.2181406,414 78.9,414 L473.4,414 C506.069531,414 532.575,387.508929 532.575,354.857143 L532.575,78.8571429 C532.575,46.1930357 506.069531,19.7142857 473.4,19.7142857 L78.9,19.7142857 C46.2181406,19.7142857 19.725,46.1930357 19.725,78.8571429 Z M233.987813,433.714286 L201.071719,532.285714 L351.228281,532.285714 L318.312187,433.714286 L233.987813,433.714286 Z M641.0625,128.142857 C641.0625,122.721429 645.500625,118.285714 650.925,118.285714 L729.825,118.285714 C735.249375,118.285714 739.6875,122.721429 739.6875,128.142857 C739.6875,133.564286 735.249375,138 729.825,138 L650.925,138 C645.500625,138 641.0625,133.564286 641.0625,128.142857 Z M729.825,197.142857 C735.249375,197.142857 739.6875,201.578571 739.6875,207 C739.6875,212.421429 735.249375,216.857143 729.825,216.857143 L650.925,216.857143 C645.500625,216.857143 641.0625,212.421429 641.0625,207 C641.0625,201.578571 645.500625,197.142857 650.925,197.142857 L729.825,197.142857 Z M710.1,374.571429 C710.1,385.414286 701.22375,394.285714 690.375,394.285714 C679.52625,394.285714 670.65,385.414286 670.65,374.571429 C670.65,363.728571 679.52625,354.857143 690.375,354.857143 C701.22375,354.857143 710.1,363.728571 710.1,374.571429 Z M729.825,0 C762.494531,0 789,26.47875 789,59.1428571 L789,492.857143 C789,525.508929 762.494531,552 729.825,552 L650.925,552 C618.255469,552 591.75,525.508929 591.75,492.857143 L591.75,59.1428571 C591.75,26.47875 618.255469,0 650.925,0 L729.825,0 Z M729.825,19.7142857 L650.925,19.7142857 C629.104219,19.7142857 611.475,37.3708929 611.475,59.1428571 L611.475,492.857143 C611.475,514.666071 629.104219,532.285714 650.925,532.285714 L729.825,532.285714 C751.645781,532.285714 769.275,514.666071 769.275,492.857143 L769.275,59.1428571 C769.275,37.3708929 751.645781,19.7142857 729.825,19.7142857 Z" id="Shape"></path>
            </g>
            <g id="computer-thin" transform="translate(729.730612, 3425.942857)" fill="#10172A">
                <path d="M59.175,88.7142857 C59.175,72.3883929 72.4277344,59.1428571 88.7625,59.1428571 L463.5375,59.1428571 C479.933906,59.1428571 493.125,72.3883929 493.125,88.7142857 L493.125,345 C493.125,361.3875 479.933906,374.571429 463.5375,374.571429 L88.7625,374.571429 C72.4277344,374.571429 59.175,361.3875 59.175,345 L59.175,88.7142857 Z M78.9,88.7142857 L78.9,345 C78.9,350.421429 83.3134687,354.857143 88.7625,354.857143 L463.5375,354.857143 C468.961875,354.857143 473.4,350.421429 473.4,345 L473.4,88.7142857 C473.4,83.2682143 468.961875,78.8571429 463.5375,78.8571429 L88.7625,78.8571429 C83.3134687,78.8571429 78.9,83.2682143 78.9,88.7142857 Z M213.153281,433.714286 L78.9,433.714286 C35.3200781,433.714286 0,398.351786 0,354.857143 L0,78.8571429 C0,35.3008929 35.3200781,0 78.9,0 L473.4,0 C516.918281,0 552.3,35.3008929 552.3,78.8571429 L552.3,354.857143 C552.3,398.351786 516.918281,433.714286 473.4,433.714286 L339.146719,433.714286 L372.062813,532.285714 L463.5375,532.285714 C468.961875,532.285714 473.4,536.721429 473.4,542.142857 C473.4,547.564286 468.961875,552 463.5375,552 L88.7625,552 C83.3134688,552 78.9,547.564286 78.9,542.142857 C78.9,536.721429 83.3134688,532.285714 88.7625,532.285714 L180.237188,532.285714 L213.153281,433.714286 Z M19.725,78.8571429 L19.725,354.857143 C19.725,387.508929 46.2181406,414 78.9,414 L473.4,414 C506.069531,414 532.575,387.508929 532.575,354.857143 L532.575,78.8571429 C532.575,46.1930357 506.069531,19.7142857 473.4,19.7142857 L78.9,19.7142857 C46.2181406,19.7142857 19.725,46.1930357 19.725,78.8571429 Z M233.987813,433.714286 L201.071719,532.285714 L351.228281,532.285714 L318.312187,433.714286 L233.987813,433.714286 Z M641.0625,128.142857 C641.0625,122.721429 645.500625,118.285714 650.925,118.285714 L729.825,118.285714 C735.249375,118.285714 739.6875,122.721429 739.6875,128.142857 C739.6875,133.564286 735.249375,138 729.825,138 L650.925,138 C645.500625,138 641.0625,133.564286 641.0625,128.142857 Z M729.825,197.142857 C735.249375,197.142857 739.6875,201.578571 739.6875,207 C739.6875,212.421429 735.249375,216.857143 729.825,216.857143 L650.925,216.857143 C645.500625,216.857143 641.0625,212.421429 641.0625,207 C641.0625,201.578571 645.500625,197.142857 650.925,197.142857 L729.825,197.142857 Z M710.1,374.571429 C710.1,385.414286 701.22375,394.285714 690.375,394.285714 C679.52625,394.285714 670.65,385.414286 670.65,374.571429 C670.65,363.728571 679.52625,354.857143 690.375,354.857143 C701.22375,354.857143 710.1,363.728571 710.1,374.571429 Z M729.825,0 C762.494531,0 789,26.47875 789,59.1428571 L789,492.857143 C789,525.508929 762.494531,552 729.825,552 L650.925,552 C618.255469,552 591.75,525.508929 591.75,492.857143 L591.75,59.1428571 C591.75,26.47875 618.255469,0 650.925,0 L729.825,0 Z M729.825,19.7142857 L650.925,19.7142857 C629.104219,19.7142857 611.475,37.3708929 611.475,59.1428571 L611.475,492.857143 C611.475,514.666071 629.104219,532.285714 650.925,532.285714 L729.825,532.285714 C751.645781,532.285714 769.275,514.666071 769.275,492.857143 L769.275,59.1428571 C769.275,37.3708929 751.645781,19.7142857 729.825,19.7142857 Z" id="Shape"></path>
            </g>
            <g id="circle-check-duotone" transform="translate(3560.730612, 1368.942857)">
                <path d="M184.416695,85.3556023 C189.832116,90.7572749 189.832116,99.578355 184.416695,104.980028 L120.822761,168.412514 C115.40734,173.814186 106.563809,173.814186 101.148388,168.412514 L69.3514208,136.696271 C63.9359998,131.294598 63.9359998,122.473518 69.3514208,117.071845 C74.7668417,111.670173 83.6103732,111.670173 89.0257941,117.071845 L110.985574,138.975876 L164.742322,85.3556023 C170.157743,79.9539297 179.001274,79.9539297 184.416695,85.3556023 L184.416695,85.3556023 Z" id="Path" fill="#00812B"></path>
                <path d="M0,127.5 C0,57.0761719 57.0761719,0 127.5,0 C197.923828,0 255,57.0761719 255,127.5 C255,197.923828 197.923828,255 127.5,255 C57.0761719,255 0,197.923828 0,127.5 Z M185.173828,105.486328 C190.602539,100.057617 190.602539,91.1923828 185.173828,85.7636719 C179.745117,80.3349609 170.879883,80.3349609 165.451172,85.7636719 L111.5625,139.652344 L89.5488281,117.638672 C84.1201172,112.209961 75.2548828,112.209961 69.8261719,117.638672 C64.3974609,123.067383 64.3974609,131.932617 69.8261719,137.361328 L101.701172,169.236328 C107.129883,174.665039 115.995117,174.665039 121.423828,169.236328 L185.173828,105.486328 Z" id="Shape" fill="#08FF51" opacity="0.4"></path>
            </g>
            <g id="circle-check-duotone" transform="translate(3560.730612, 186.942857)">
                <path d="M184.416695,85.3556023 C189.832116,90.7572749 189.832116,99.578355 184.416695,104.980028 L120.822761,168.412514 C115.40734,173.814186 106.563809,173.814186 101.148388,168.412514 L69.3514208,136.696271 C63.9359998,131.294598 63.9359998,122.473518 69.3514208,117.071845 C74.7668417,111.670173 83.6103732,111.670173 89.0257941,117.071845 L110.985574,138.975876 L164.742322,85.3556023 C170.157743,79.9539297 179.001274,79.9539297 184.416695,85.3556023 L184.416695,85.3556023 Z" id="Path" fill="#00812B"></path>
                <path d="M0,127.5 C0,57.0761719 57.0761719,0 127.5,0 C197.923828,0 255,57.0761719 255,127.5 C255,197.923828 197.923828,255 127.5,255 C57.0761719,255 0,197.923828 0,127.5 Z M185.173828,105.486328 C190.602539,100.057617 190.602539,91.1923828 185.173828,85.7636719 C179.745117,80.3349609 170.879883,80.3349609 165.451172,85.7636719 L111.5625,139.652344 L89.5488281,117.638672 C84.1201172,112.209961 75.2548828,112.209961 69.8261719,117.638672 C64.3974609,123.067383 64.3974609,131.932617 69.8261719,137.361328 L101.701172,169.236328 C107.129883,174.665039 115.995117,174.665039 121.423828,169.236328 L185.173828,105.486328 Z" id="Shape" fill="#08FF51" opacity="0.4"></path>
            </g>
            <g id="circle-check-duotone" transform="translate(3560.730612, 2549.942857)">
                <path d="M184.416695,85.3556023 C189.832116,90.7572749 189.832116,99.578355 184.416695,104.980028 L120.822761,168.412514 C115.40734,173.814186 106.563809,173.814186 101.148388,168.412514 L69.3514208,136.696271 C63.9359998,131.294598 63.9359998,122.473518 69.3514208,117.071845 C74.7668417,111.670173 83.6103732,111.670173 89.0257941,117.071845 L110.985574,138.975876 L164.742322,85.3556023 C170.157743,79.9539297 179.001274,79.9539297 184.416695,85.3556023 L184.416695,85.3556023 Z" id="Path" fill="#00812B"></path>
                <path d="M0,127.5 C0,57.0761719 57.0761719,0 127.5,0 C197.923828,0 255,57.0761719 255,127.5 C255,197.923828 197.923828,255 127.5,255 C57.0761719,255 0,197.923828 0,127.5 Z M185.173828,105.486328 C190.602539,100.057617 190.602539,91.1923828 185.173828,85.7636719 C179.745117,80.3349609 170.879883,80.3349609 165.451172,85.7636719 L111.5625,139.652344 L89.5488281,117.638672 C84.1201172,112.209961 75.2548828,112.209961 69.8261719,117.638672 C64.3974609,123.067383 64.3974609,131.932617 69.8261719,137.361328 L101.701172,169.236328 C107.129883,174.665039 115.995117,174.665039 121.423828,169.236328 L185.173828,105.486328 Z" id="Shape" fill="#08FF51" opacity="0.4"></path>
            </g>
            <g id="circle-check-duotone" transform="translate(3560.730612, 3574.942857)">
                <path d="M184.416695,85.3556023 C189.832116,90.7572749 189.832116,99.578355 184.416695,104.980028 L120.822761,168.412514 C115.40734,173.814186 106.563809,173.814186 101.148388,168.412514 L69.3514208,136.696271 C63.9359998,131.294598 63.9359998,122.473518 69.3514208,117.071845 C74.7668417,111.670173 83.6103732,111.670173 89.0257941,117.071845 L110.985574,138.975876 L164.742322,85.3556023 C170.157743,79.9539297 179.001274,79.9539297 184.416695,85.3556023 L184.416695,85.3556023 Z" id="Path" fill="#00812B"></path>
                <path d="M0,127.5 C0,57.0761719 57.0761719,0 127.5,0 C197.923828,0 255,57.0761719 255,127.5 C255,197.923828 197.923828,255 127.5,255 C57.0761719,255 0,197.923828 0,127.5 Z M185.173828,105.486328 C190.602539,100.057617 190.602539,91.1923828 185.173828,85.7636719 C179.745117,80.3349609 170.879883,80.3349609 165.451172,85.7636719 L111.5625,139.652344 L89.5488281,117.638672 C84.1201172,112.209961 75.2548828,112.209961 69.8261719,117.638672 C64.3974609,123.067383 64.3974609,131.932617 69.8261719,137.361328 L101.701172,169.236328 C107.129883,174.665039 115.995117,174.665039 121.423828,169.236328 L185.173828,105.486328 Z" id="Shape" fill="#08FF51" opacity="0.4"></path>
            </g>
        </g>
    </g>
</svg>