<?xml version="1.0" encoding="UTF-8" standalone="no"?>
<svg width="16px" height="16px" viewBox="0 0 16 16" version="1.1" xmlns="http://www.w3.org/2000/svg" xmlns:xlink="http://www.w3.org/1999/xlink">
    <!-- Generator: Sketch 43.2 (39069) - http://www.bohemiancoding.com/sketch -->
    <title>linkedin</title>
    <desc>Created with Sketch.</desc>
    <defs></defs>
    <g id="Page-1" stroke="none" stroke-width="1" fill="none" fill-rule="evenodd">
        <g id="linkedin" fill-rule="nonzero" fill="#FFFFFF">
            <path d="M1.87533043,0 C0.788721739,0 0,0.749321739 0,1.78156522 C0,2.81318261 0.773104348,3.56198261 1.83797391,3.56198261 C2.39028696,3.56198261 2.86618261,3.3829913 3.21432174,3.04413913 C3.54823478,2.71909565 3.73233913,2.27071304 3.7319913,1.77342609 C3.70753913,0.729286957 2.94395652,0 1.87533043,0 Z M2.72927826,2.54549565 C2.5135913,2.75544348 2.20517391,2.86633043 1.83797391,2.86633043 C1.16541739,2.86633043 0.695652174,2.42034783 0.695652174,1.78156522 C0.695652174,1.13213913 1.16983478,0.695652174 1.87533043,0.695652174 C2.56521739,0.695652174 3.02072174,1.12514783 3.03633913,1.78173913 C3.03633913,2.08153043 2.92730435,2.35273043 2.72927826,2.54549565 Z" id="Shape"></path>
            <path d="M0.333565217,15.6433391 L3.45992174,15.6433391 L3.45992174,4.14963478 L0.333565217,4.14963478 L0.333565217,15.6433391 Z M1.02921739,4.84528696 L2.76426957,4.84528696 L2.76426957,14.947687 L1.02921739,14.947687 L1.02921739,4.84528696 Z" id="Shape"></path>
            <path d="M11.7038174,4.14963478 C10.2540783,4.14963478 9.36649565,4.64994783 8.85223478,5.1205913 L8.75443478,4.14963478 L5.2173913,4.14963478 L5.2173913,15.6433391 L8.6813913,15.6433391 L8.6813913,9.6024 C8.6813913,9.34222609 8.78666957,8.80194783 8.85293043,8.65930435 C9.2714,7.75798261 9.83592174,7.75798261 10.6908783,7.75798261 C11.6756087,7.75798261 12.5074783,8.6813913 12.5074783,9.77429565 L12.5074783,15.6433391 L15.9857391,15.6433391 L15.9857391,9.14928696 C15.9857391,5.71415652 13.7659739,4.14963478 11.7038174,4.14963478 Z M15.290087,14.947687 L13.2031304,14.947687 L13.2031304,9.77429565 C13.2031304,8.30417391 12.0526522,7.06233043 10.6908783,7.06233043 C9.81724348,7.06233043 8.82708696,7.06233043 8.2218,8.36650435 C8.0967913,8.63603478 7.98573913,9.28208696 7.98573913,9.6024 L7.98573913,14.947687 L5.91304348,14.947687 L5.91304348,4.84528696 L8.12534783,4.84528696 L8.26733043,6.25203478 L8.83727826,6.25203478 L8.9391913,6.08761739 C9.1711913,5.71415652 9.90489565,4.84528696 11.7038174,4.84528696 C13.4310522,4.84528696 15.290087,6.19206957 15.290087,9.14928696 L15.290087,14.947687 Z" id="Shape"></path>
        </g>
    </g>
</svg>