<?xml version="1.0" encoding="UTF-8"?>
<svg width="228px" height="228px" viewBox="0 0 228 228" version="1.1" xmlns="http://www.w3.org/2000/svg" xmlns:xlink="http://www.w3.org/1999/xlink">
    <!-- Generator: Sketch 48.1 (47250) - http://www.bohemiancoding.com/sketch -->
    <title>massstorage</title>
    <desc>Created with Sketch.</desc>
    <defs></defs>
    <g id="Page-1" stroke="none" stroke-width="1" fill="none" fill-rule="evenodd">
        <g id="massstorage">
            <path d="M102.2551,99.4014 L99.4011,102.2549 C97.3015,104.9629 96,108.3164 96,112 C96,120.8223 103.1777,128 112,128 C120.8223,128 128,120.8223 128,112 C128,103.1777 120.8223,96 112,96 C108.3167,96 104.9624,97.3018 102.2551,99.4014 Z" id="Shape" fill="#FDECF8" fill-rule="nonzero"></path>
            <circle id="Oval" fill="#A1C5AB" fill-rule="nonzero" cx="112" cy="16" r="8"></circle>
            <circle id="Oval" fill="#E9E7D1" fill-rule="nonzero" cx="48" cy="48" r="4"></circle>
            <circle id="Oval" fill="#E9E7D1" fill-rule="nonzero" cx="180" cy="48" r="4"></circle>
            <circle id="Oval" fill="#A1C5AB" fill-rule="nonzero" cx="16" cy="112" r="8"></circle>
            <circle id="Oval" fill="#A1C5AB" fill-rule="nonzero" cx="212" cy="112" r="8"></circle>
            <circle id="Oval" fill="#E9E7D1" fill-rule="nonzero" cx="180" cy="180" r="4"></circle>
            <circle id="Oval" fill="#E9E7D1" fill-rule="nonzero" cx="48" cy="180" r="4"></circle>
            <circle id="Oval" fill="#A1C5AB" fill-rule="nonzero" cx="112" cy="212" r="8"></circle>
            <path d="M212,96 C204.5669,96 198.3572,101.1191 196.5681,108 L135.6387,108 C135.1917,105.3516 134.3355,102.8418 133.0945,100.5615 L174.8587,58.7978 C176.4231,59.5459 178.1531,60 180,60 C186.6172,60 192,54.6172 192,48 C192,41.3828 186.6172,36 180,36 C173.3828,36 168,41.3828 168,48 C168,49.8467 168.4539,51.5771 169.2024,53.1416 L128.0952,94.248 C124.7722,91.2324 120.6125,89.1406 116,88.3613 L116,31.4316 C122.8811,29.6425 128,23.4336 128,16 C128,7.1777 120.8223,0 112,0 C103.1777,0 96,7.1777 96,16 C96,23.4336 101.1189,29.6426 108,31.4316 L108,88.3613 C104.3625,88.9756 101.0044,90.4004 98.1157,92.459 L58.7976,53.1416 C59.5461,51.5771 60,49.8467 60,48 C60,41.3828 54.6172,36 48,36 C41.3828,36 36,41.3828 36,48 C36,54.6172 41.3828,60 48,60 C49.8469,60 51.5769,59.5459 53.1414,58.7979 L92.4595,98.1153 C90.4009,101.004 88.9754,104.3624 88.3614,108.0001 L31.4319,108.0001 C29.6428,101.1191 23.4331,96 16,96 C7.1777,96 0,103.1777 0,112 C0,120.8223 7.1777,128 16,128 C23.4331,128 29.6428,122.8809 31.4319,116 L88.3613,116 C89.1401,120.6123 91.2326,124.7725 94.2485,128.0957 L53.1413,169.2021 C51.5769,168.4541 49.8469,168 48,168 C41.3828,168 36,173.3828 36,180 C36,186.6172 41.3828,192 48,192 C54.6172,192 60,186.6172 60,180 C60,178.1533 59.5461,176.4229 58.7976,174.8584 L100.5618,133.0947 C102.8416,134.3359 105.3521,135.1914 108,135.6386 L108,196.5683 C101.1189,198.3574 96,204.5663 96,211.9999 C96,220.8222 103.1777,227.9999 112,227.9999 C120.8223,227.9999 128,220.8222 128,211.9999 C128,204.5663 122.8811,198.3573 116,196.5683 L116,135.6386 C119.6375,135.0243 122.9956,133.5995 125.8843,131.5409 L169.2024,174.8583 C168.4539,176.4229 168,178.1533 168,180 C168,186.6172 173.3828,192 180,192 C186.6172,192 192,186.6172 192,180 C192,173.3828 186.6172,168 180,168 C178.1531,168 176.4231,168.4541 174.8586,169.2021 L131.5405,125.8847 C133.5991,122.996 135.0246,119.6376 135.6386,115.9999 L196.568,115.9999 C198.3571,122.8808 204.5668,127.9999 211.9999,127.9999 C220.8222,127.9999 227.9999,120.8222 227.9999,111.9999 C227.9999,103.1776 220.8223,96 212,96 Z M180,44 C182.2051,44 184,45.7949 184,48 C184,50.2051 182.2051,52 180,52 C177.7949,52 176,50.2051 176,48 C176,45.7949 177.7949,44 180,44 Z M128,112 C128,120.8223 120.8223,128 112,128 C103.1777,128 96,120.8223 96,112 C96,108.3164 97.3015,104.9629 99.4011,102.2549 L102.2551,99.4014 C104.9624,97.3018 108.3167,96 112,96 C120.8223,96 128,103.1777 128,112 Z M104,16 C104,11.5879 107.5879,8 112,8 C116.4121,8 120,11.5879 120,16 C120,20.4121 116.4121,24 112,24 C107.5879,24 104,20.4121 104,16 Z M44,48 C44,45.7949 45.7949,44 48,44 C50.2051,44 52,45.7949 52,48 C52,50.2051 50.2051,52 48,52 C45.7949,52 44,50.2051 44,48 Z M16,120 C11.5879,120 8,116.4121 8,112 C8,107.5879 11.5879,104 16,104 C20.4121,104 24,107.5879 24,112 C24,116.4121 20.4121,120 16,120 Z M48,184 C45.7949,184 44,182.2051 44,180 C44,177.7949 45.7949,176 48,176 C50.2051,176 52,177.7949 52,180 C52,182.2051 50.2051,184 48,184 Z M120,212 C120,216.4121 116.4121,220 112,220 C107.5879,220 104,216.4121 104,212 C104,207.5879 107.5879,204 112,204 C116.4121,204 120,207.5879 120,212 Z M184,180 C184,182.2051 182.2051,184 180,184 C177.7949,184 176,182.2051 176,180 C176,177.7949 177.7949,176 180,176 C182.2051,176 184,177.7949 184,180 Z M212,120 C207.5879,120 204,116.4121 204,112 C204,107.5879 207.5879,104 212,104 C216.4121,104 220,107.5879 220,112 C220,116.4121 216.4121,120 212,120 Z" id="Shape" fill="#314E55" fill-rule="nonzero"></path>
            <text id="C" font-family="Dosis-ExtraBold, Dosis" font-size="30" font-weight="600" letter-spacing="8" fill="#632F53">
                <tspan x="103.07" y="123">C</tspan>
            </text>
        </g>
    </g>
</svg>