<?xml version="1.0" encoding="UTF-8"?>
<svg width="240px" height="200px" viewBox="0 0 240 200" version="1.1" xmlns="http://www.w3.org/2000/svg" xmlns:xlink="http://www.w3.org/1999/xlink">
    <!-- Generator: Sketch 48.1 (47250) - http://www.bohemiancoding.com/sketch -->
    <title>graphcompare</title>
    <desc>Created with Sketch.</desc>
    <defs></defs>
    <g id="Page-1" stroke="none" stroke-width="1" fill="none" fill-rule="evenodd">
        <g id="graphcompare" fill-rule="nonzero">
            <path d="M28,124.0039 C28,130.6172 33.4023,136 40.0391,136 L115.0418,136 C115.0491,136 115.0564,136 115.0638,136 L123.432,136 C123.4344,136.0002 123.4369,135.9998 123.4393,136 L203.961,136 C210.5977,136 216,130.6172 216,124.0039 L216,24 L28,24 L28,124.0039 Z M207.3203,82.2695 C208.0586,84.3515 206.9687,86.6367 204.8867,87.375 L169.6406,99.8477 C168.2226,100.3555 166.6367,100.0157 165.5468,98.9766 L150.3554,84.5059 L131.4335,112.4376 C130.8241,113.336 129.8788,113.9493 128.8124,114.1368 C127.7382,114.3204 126.6444,114.0665 125.7694,113.4298 L113.5897,104.5743 C106.9686,104.629 77.4881,104.8673 72.8944,104.8907 C70.1717,105.9649 58.5116,113.0938 48.8592,119.3477 C48.1873,119.7852 47.4334,119.9922 46.6873,119.9922 C45.3748,119.9922 44.0936,119.3477 43.3279,118.168 C42.1248,116.3126 42.656,113.836 44.5076,112.6368 C68.8123,96.8907 71.1521,96.8907 72.406,96.8907 C74.8201,96.8907 114.8435,96.5626 114.8435,96.5626 C114.8513,96.5626 114.863,96.5626 114.8747,96.5626 C115.7185,96.5626 116.5427,96.8321 117.2263,97.3282 L127.1286,104.5274 L146.3786,76.1075 C147.0388,75.1348 148.0934,74.5001 149.2614,74.3751 C150.4528,74.2521 151.6012,74.6466 152.4489,75.4552 L169.2848,91.4884 L202.2145,79.8322 C204.3086,79.0938 206.5859,80.1855 207.3203,82.2695 Z M39.6133,76.0508 C40.3985,73.9824 42.7227,72.9531 44.7695,73.7227 L69.414,83.0391 L102.8788,70.4942 L129.4569,37.4024 C130.1444,36.545 131.1522,36.0079 132.2498,35.92 C133.3475,35.836 134.4256,36.1954 135.246,36.9298 L165.1249,63.7579 L198.953,64.7013 C201.16,64.7618 202.8983,66.6017 202.8397,68.8107 C202.7772,71.0197 200.9608,72.799 198.7264,72.6974 L163.4334,71.713 C162.4881,71.6876 161.5779,71.3243 160.8748,70.6915 L133.0467,45.7052 L108.4256,76.3575 C107.9764,76.918 107.3865,77.3477 106.7108,77.5997 L70.8085,91.0587 C70.3593,91.2286 69.8827,91.3126 69.4062,91.3126 C68.9257,91.3126 68.4492,91.2266 67.9921,91.0548 L41.9414,81.207 C39.875,80.4258 38.832,78.1172 39.6133,76.0508 Z" id="Shape" fill="#FDECF8"></path>
            <path d="M228.0156,8 L11.9844,8 C9.7891,8 8,9.7949 8,12 C8,14.2422 9.7499,16 11.9844,16 L24,16 L220,16 L228.0156,16 C230.2109,16 232,14.2051 232,12 C232,9.7578 230.2499,8 228.0156,8 Z" id="Shape" fill="#FDECF8"></path>
            <path d="M228.0156,0 L11.9844,0 C5.375,0 0,5.3828 0,12 C0,18.6172 5.375,24 11.9844,24 L20,24 L20,124.0039 C20,135.0312 28.9883,144 40.0391,144 L109.0579,144 L88.9922,192 L77.9102,192 C75.6993,192 73.9102,193.7891 73.9102,196 C73.9102,198.2109 75.6993,200 77.9102,200 L91.6563,200 C93.2696,200 94.7227,199.0312 95.3477,197.543 L117.7307,144 L120.7576,144 L143.1407,197.543 C143.7657,199.0313 145.2188,200 146.8321,200 L160.5782,200 C162.7891,200 164.5782,198.2109 164.5782,196 C164.5782,193.7891 162.7891,192 160.5782,192 L149.4962,192 L129.4305,144 L203.961,144 C215.0117,144 224,135.0312 224,124.0039 L224,24 L228.0156,24 C234.625,24 240,18.6172 240,12 C240,5.3828 234.625,0 228.0156,0 Z M216,124.0039 C216,130.6172 210.5977,136 203.9609,136 L123.4392,136 C123.4368,135.9998 123.4343,136.0002 123.4319,136 L115.0637,136 C115.0564,136 115.0491,136 115.0417,136 L40.0391,136 C33.4023,136 28,130.6172 28,124.0039 L28,24 L216,24 L216,124.0039 Z M228.0156,16 L220,16 L24,16 L11.9844,16 C9.7499,16 8,14.2422 8,12 C8,9.7949 9.7891,8 11.9844,8 L228.0156,8 C230.2499,8 232,9.7578 232,12 C232,14.2051 230.2109,16 228.0156,16 Z" id="Shape" fill="#535353"></path>
            <path d="M41.9414,81.207 L67.9922,91.0547 C68.4492,91.2266 68.9258,91.3125 69.4063,91.3125 C69.8829,91.3125 70.3594,91.2285 70.8086,91.0586 L106.7109,77.5996 C107.3867,77.3476 107.9765,76.918 108.4257,76.3574 L133.0468,45.7051 L160.8749,70.6914 C161.578,71.3242 162.4882,71.6875 163.4335,71.7129 L198.7265,72.6973 C200.9609,72.7989 202.7773,71.0196 202.8398,68.8106 C202.8984,66.6016 201.1601,64.7618 198.9531,64.7012 L165.125,63.7578 L135.2461,36.9297 C134.4258,36.1953 133.3477,35.8359 132.2499,35.9199 C131.1523,36.0078 130.1445,36.5449 129.457,37.4023 L102.8789,70.4941 L69.4141,83.0391 L44.7696,73.7227 C42.7227,72.9532 40.3985,73.9825 39.6134,76.0508 C38.832,78.1172 39.875,80.4258 41.9414,81.207 Z" id="Shape" fill="#535353"></path>
            <path d="M169.2852,91.4883 L152.4493,75.4551 C151.6016,74.6465 150.4532,74.252 149.2618,74.375 C148.0938,74.5 147.0391,75.1348 146.379,76.1074 L127.129,104.5273 L117.2267,97.3281 C116.5431,96.832 115.7189,96.5625 114.8751,96.5625 C114.8634,96.5625 114.8517,96.5625 114.8439,96.5625 C114.8439,96.5625 74.8205,96.8906 72.4064,96.8906 C71.1525,96.8906 68.8126,96.8906 44.508,112.6367 C42.6564,113.8359 42.1252,116.3125 43.3283,118.1679 C44.0939,119.3476 45.3752,119.9921 46.6877,119.9921 C47.4338,119.9921 48.1877,119.7851 48.8596,119.3476 C58.5119,113.0937 70.1721,105.9648 72.8948,104.8906 C77.4886,104.8672 106.969,104.6289 113.5901,104.5742 L125.7698,113.4297 C126.6448,114.0664 127.7386,114.3203 128.8128,114.1367 C129.8792,113.9492 130.8245,113.3359 131.4339,112.4375 L150.3558,84.5058 L165.5472,98.9765 C166.637,100.0156 168.223,100.3554 169.641,99.8476 L204.8871,87.3749 C206.9691,86.6366 208.059,84.3515 207.3207,82.2694 C206.5863,80.1854 204.309,79.0936 202.2152,79.8319 L169.2852,91.4883 Z" id="Shape" fill="#535353"></path>
        </g>
    </g>
</svg>