<?xml version="1.0" encoding="UTF-8"?>
<svg width="220px" height="181px" viewBox="0 0 220 181" version="1.1" xmlns="http://www.w3.org/2000/svg" xmlns:xlink="http://www.w3.org/1999/xlink">
    <!-- Generator: Sketch 48.1 (47250) - http://www.bohemiancoding.com/sketch -->
    <title>graphcomparereport</title>
    <desc>Created with Sketch.</desc>
    <defs></defs>
    <g id="Page-1" stroke="none" stroke-width="1" fill="none" fill-rule="evenodd">
        <g id="graphcomparereport" fill-rule="nonzero">
            <path d="M152.3818,172 L191.54,172 C178.8916,163.4087 159.2653,148.2627 146.8535,129.8379 C143.1484,124.3359 140.1289,118.8652 137.209,113.5742 C130.2732,101.0063 124.2298,90.1455 111.5154,83.0932 C115.4461,98.5346 117.7237,113.5214 118.4805,123.4238 C120.7361,152.9541 147.7815,169.4072 152.3818,172 Z" id="Shape" fill="#FDECF8"></path>
            <path d="M138.0879,171.959 C127.2324,163.3828 112.2949,147.4863 110.5039,124.0332 C109.5012,110.9189 106.5347,94.332 102.0432,78.7402 C87.3948,73.4506 75.3528,76.3452 61.3027,87.9746 C57.4055,91.2026 53.2509,97.8179 49.1552,106.0801 C48.9216,124.2959 49.6962,146.0855 51.922,171.8667 L97.3903,171.959 L138.0879,171.959 Z" id="Shape" fill="#FDECF8"></path>
            <path d="M56.2012,81.8145 C70.6519,69.8506 84.1114,65.8335 99.1267,69.4961 C93.5535,53.0635 86.2734,38.877 77.8125,32.8613 C73.8496,30.0468 69.9219,29.2051 65.8145,30.289 C59.3331,32.0024 51.8172,49.9199 49.6946,89.2783 C51.8584,86.1777 54.0366,83.6069 56.2012,81.8145 Z" id="Shape" fill="#FFFFFF"></path>
            <path d="M41.3828,123.7412 C34.6138,140.7544 28.6448,159.668 25.1719,171.8125 L43.8972,171.8506 C43.054,161.7363 41.7874,143.8096 41.3828,123.7412 Z" id="Shape" fill="#FDECF8"></path>
            <path d="M220,172 L206.4294,172 C200.2629,168.3423 169.729,149.4756 153.4902,125.3691 C149.9804,120.1601 147.0488,114.8476 144.2129,109.7089 C136.8633,96.3905 129.9219,83.8124 114.6621,75.6581 C112.616,74.5643 110.6182,73.6293 108.6423,72.7748 C102.7165,53.2343 94.0842,34.6142 82.4472,26.3417 C76.5097,22.119 70.2284,20.8437 63.7675,22.5546 C46.6664,27.0761 41.8393,65.9325 41.31,103.9716 C29.5891,128.0078 19.6189,162.0239 16.8098,172 L8,172 L8,0 L0,0 L0,172 L0,180 L8,180 L117.6055,180 L205.6387,180.1777 C205.6387,180.1777 205.6446,180.1777 205.6465,180.1777 C206.0159,180.1777 206.3653,180.0952 206.7083,180 L220,180 L220,172 Z M49.1553,106.0801 C53.251,97.8179 57.4055,91.2027 61.3028,87.9746 C75.3528,76.3452 87.3948,73.4507 102.0433,78.7402 C106.5348,94.332 109.5013,110.9189 110.504,124.0332 C112.295,147.4863 127.2325,163.3828 138.088,171.959 L97.3904,171.959 L51.9221,171.8667 C49.6963,146.0854 48.9216,124.2959 49.1553,106.0801 Z M137.209,113.5742 C140.1289,118.8652 143.1485,124.3359 146.8535,129.8379 C159.2654,148.2627 178.8916,163.4087 191.54,172 L152.3818,172 C147.7815,169.4072 120.736,152.9541 118.4804,123.4238 C117.7236,113.5215 115.446,98.5346 111.5153,83.0932 C124.2297,90.1455 130.2732,101.0063 137.209,113.5742 Z M65.8145,30.2891 C69.9219,29.2051 73.8497,30.0469 77.8125,32.8614 C86.2734,38.877 93.5535,53.0635 99.1267,69.4962 C84.1113,65.8336 70.6518,69.8507 56.2012,81.8146 C54.0366,83.6071 51.8584,86.1779 49.6946,89.2785 C51.8171,49.9199 59.333,32.0024 65.8145,30.2891 Z M41.3828,123.7412 C41.7873,143.8096 43.0539,161.7363 43.8972,171.8506 L25.1719,171.8125 C28.6448,159.668 34.6138,140.7544 41.3828,123.7412 Z" id="Shape" fill="#535353"></path>
        </g>
    </g>
</svg>