<svg xmlns="http://www.w3.org/2000/svg" viewBox="0 0 64 64" aria-labelledby="title"
aria-describedby="desc" role="img" xmlns:xlink="http://www.w3.org/1999/xlink">
  <title>About</title>
  <path data-name="layer2"
  d="M37.9 46.3V46a57.1 57.1 0 0 0 12.2-2c-3.4-3.3-6.1-4.9-6.1-18.8S29.9 14 29.9 14c-10 0-10 10.8-10 10.8 0 13.9-2.6 15.8-5.9 19.2a55.2 55.2 0 0 0 11.8 2v.3c0 1.6-.4 5.9-8.5 7.4a11.7 11.7 0 0 0-4.3 1.6 30 30 0 0 0 37.8 0 12.5 12.5 0 0 0-4.4-1.7c-8-1.5-8.5-5.7-8.5-7.3z"
  fill="#ff7e63"></path>
  <path d="M25.9 46.3a6 6 0 0 1-2.3 4.8c5.9-1.8 6.3-5.4 6.3-6.8V44a55.2 55.2 0 0 1-11.8-2c3.3-3.3 5.9-5.2 5.9-19.2 0 0 0-5.4 3.5-8.6-7.6 1.7-7.5 10.6-7.5 10.6 0 13.9-2.6 15.8-5.9 19.2a55.2 55.2 0 0 0 11.8 2z"
  fill="#000064" opacity=".15"></path>
  <path data-name="layer1" d="M62 32a30 30 0 1 0-48.9 23.3 11.5 11.5 0 0 1 4.2-1.6c8.1-1.5 8.5-5.7 8.5-7.4V46A55.2 55.2 0 0 1 14 44c3.3-3.3 5.9-5.2 5.9-19.2 0 0-.1-10.8 10-10.8 0 0 14-2.4 14 11.2s2.8 15.5 6.2 18.8a57 57 0 0 1-12.2 2v.3c0 1.6.6 5.8 8.7 7.4a12.3 12.3 0 0 1 4.3 1.7A30 30 0 0 0 62 32z"
  fill="#e0eafc"></path>
  <path data-name="opacity" d="M25.9 46.3V46a55.2 55.2 0 0 1-11.8-2c3.3-3.3 5.9-5.2 5.9-19.2a14 14 0 0 1 1.9-6.7c-8 1.5-7.9 10.7-7.9 10.7 0 14-2.6 15.9-5.9 19.2a55.2 55.2 0 0 0 11.8 2v.3a6.1 6.1 0 0 1-.7 3c6.3-1.8 6.7-5.5 6.7-7z"
  fill="#000064" opacity=".15"></path>
  <path data-name="stroke" d="M13.1 55.3a11.9 11.9 0 0 1 4.3-1.6c8.1-1.5 8.6-5.7 8.6-7.4V46a58.8 58.8 0 0 1-11.9-2c3.3-3.3 5.9-5.2 5.9-19.2 0 0-.1-10.8 10-10.8 0 0 14-2.4 14 11.2s2.8 15.5 6.1 18.8A60.6 60.6 0 0 1 38 46v.3c0 1.6.5 5.8 8.6 7.4a12.1 12.1 0 0 1 4.3 1.7"
  fill="none" stroke="#2e4369" stroke-linecap="round" stroke-linejoin="miter"
  stroke-width="2"></path>
  <circle data-name="stroke" cx="32" cy="32" r="30" fill="none" stroke="#2e4369"
  stroke-linecap="round" stroke-linejoin="miter" stroke-width="2"></circle>
</svg>