<svg xmlns="http://www.w3.org/2000/svg" viewBox="0 0 64 64" aria-labelledby="title"
aria-describedby="desc" role="img" xmlns:xlink="http://www.w3.org/1999/xlink">
  <title>Cake</title>
  <circle data-name="layer4"
  cx="34" cy="18" r="8" fill="#f16262"></circle>
  <path data-name="opacity" d="M37 23a8 8 0 0 1-7-12 8 8 0 1 0 11 11 7.9 7.9 0 0 1-4 1z"
  fill="#101129" opacity=".25"></path>
  <path data-name="layer3" d="M2 58c0 2 .8 4 4 4h56V42H2v16z" fill="#de9d63"></path>
  <path data-name="layer2" d="M62 42H2v10h60z" fill="#f6b36d"></path>
  <path data-name="layer1" d="M40.3 22.9a8 8 0 0 1-12.9-9.5A7.4 7.4 0 0 0 24 12C16 12 2 23.5 2 42h60L40.3 22.9z"
  fill="#f3f7fc"></path>
  <path data-name="opacity" d="M26 18a8 8 0 0 1 1-3.9A8 8 0 1 0 38 25a8 8 0 0 1-12-7z"
  fill="#101129" opacity=".18"></path>
  <circle data-name="stroke" cx="34" cy="18" r="8" fill="none" stroke="#2f446a"
  stroke-linecap="round" stroke-linejoin="round" stroke-width="2"></circle>
  <path data-name="stroke" d="M40.3 22.9L62 42v20H6c-3.2 0-4-2-4-4V42c0-18.5 14-30 22-30a7.4 7.4 0 0 1 3.5 1.4M2 42h60M2 52h60M34 10c1.7-4.6-1.5-8-6-8"
  fill="none" stroke="#2f446a" stroke-linecap="round" stroke-linejoin="round"
  stroke-width="2"></path>
</svg>