<?xml version="1.0" encoding="UTF-8"?>
<svg width="184px" height="180px" viewBox="0 0 184 180" version="1.1" xmlns="http://www.w3.org/2000/svg" xmlns:xlink="http://www.w3.org/1999/xlink">
    <!-- Generator: Sketch 48.1 (47250) - http://www.bohemiancoding.com/sketch -->
    <title>linkedin</title>
    <desc>Created with Sketch.</desc>
    <defs></defs>
    <g id="Page-1" stroke="none" stroke-width="1" fill="none" fill-rule="evenodd">
        <g id="linkedin" fill-rule="nonzero">
            <path d="M21.5664,0 C9.0703,0 0,8.6172 0,20.4883 C0,32.3516 8.8906,40.9629 21.1367,40.9629 C27.4883,40.9629 32.9609,38.9043 36.9648,35.0078 C40.8046,31.2695 42.9218,26.1133 42.9179,20.3945 C42.6367,8.3867 33.8555,0 21.5664,0 Z" id="Shape" fill="#535353"></path>
            <path d="M31.3867,29.2734 C28.9062,31.6875 25.3594,32.9629 21.1367,32.9629 C13.4023,32.9629 8,27.834 8,20.4883 C8,13.0195 13.4531,8 21.5664,8 C29.5,8 34.7383,12.9395 34.918,20.4902 C34.918,23.9375 33.6641,27.0566 31.3867,29.2734 Z" id="Shape" fill="#FDECF8"></path>
            <rect id="Rectangle-path" fill="#535353" x="3.8359" y="47.7207" width="35.9531" height="132.1777"></rect>
            <rect id="Rectangle-path" fill="#FDECF8" x="11.8359" y="55.7207" width="19.9531" height="116.1777"></rect>
            <path d="M134.5938,47.7207 C117.9219,47.7207 107.7149,53.4746 101.8008,58.8867 L100.6758,47.7207 L60,47.7207 L60,179.8984 L99.8359,179.8984 L99.8359,110.4277 C99.8359,107.4355 101.0468,101.2226 101.8086,99.582 C106.6211,89.2168 113.1133,89.2168 122.9453,89.2168 C134.2695,89.2168 143.8359,99.8359 143.8359,112.4043 L143.8359,179.8984 L183.8359,179.8984 L183.8359,105.2168 C183.8359,65.7129 158.3086,47.7207 134.5938,47.7207 Z" id="Shape" fill="#535353"></path>
            <path d="M175.836,171.8984 L151.8359,171.8984 L151.8359,112.4043 C151.8359,95.4981 138.6054,81.2168 122.9453,81.2168 C112.8984,81.2168 101.5117,81.2168 94.5508,96.2148 C93.1133,99.3144 91.836,106.7441 91.836,110.4277 L91.836,171.8984 L68,171.8984 L68,55.7207 L93.4414,55.7207 L95.0742,71.8984 L101.6289,71.8984 L102.8008,70.0078 C105.4688,65.7129 113.9063,55.7207 134.5938,55.7207 C154.4571,55.7207 175.836,71.209 175.836,105.2168 L175.836,171.8984 Z" id="Shape" fill="#FDECF8"></path>
        </g>
    </g>
</svg>