<svg xmlns="http://www.w3.org/2000/svg" viewBox="0 0 64 64" aria-labelledby="title"
aria-describedby="desc" role="img" xmlns:xlink="http://www.w3.org/1999/xlink">
  <title>Order</title>
  <path data-name="layer2"
  d="M38 8a4 4 0 0 1-4 4h-4a4 4 0 0 1-4-4 4 4 0 0 1 4-4h4a4 4 0 0 1 4 4z"
  fill="#f27e7c"></path>
  <path data-name="opacity" d="M34 9h-4a4 4 0 0 1-3.7-2.5A4 4 0 0 0 30 12h4a4 4 0 0 0 3.7-5.5A4 4 0 0 1 34 9z"
  fill="#000064" opacity=".15"></path>
  <path data-name="layer1" fill="#fc6" d="M58 30l-6 30H12L6.1 30H58z"></path>
  <path data-name="opacity" fill="#000064" opacity=".15" d="M14 36h42.8l1.2-6H6.1L12 60h6.8L14 36z"></path>
  <path data-name="stroke" d="M38 8.4A20 20 0 0 1 54 28v2m-44 0v-2A20 20 0 0 1 26 8.4M38 8a4 4 0 0 1-4 4h-4a4 4 0 0 1-4-4 4 4 0 0 1 4-4h4a4 4 0 0 1 4 4zm-6 30v14M20 38v14m24-14v14"
  fill="none" stroke="#2e4369" stroke-linecap="round" stroke-linejoin="round"
  stroke-width="2"></path>
  <path data-name="stroke" fill="none" stroke="#2e4369" stroke-linecap="round"
  stroke-linejoin="round" stroke-width="2" d="M6.1 30L12 60h40l6-30M2 30h60"></path>
</svg>