<svg xmlns="http://www.w3.org/2000/svg" viewBox="0 0 64 64" aria-labelledby="title"
aria-describedby="desc" role="img" xmlns:xlink="http://www.w3.org/1999/xlink">
  <title>Wheat</title>
  <desc>A color styled icon from Orion Icon Library.</desc>
  <path data-name="layer2"
  d="M55.9 2.8S50.7 1 47.4 4.2a5 5 0 0 0 7.1 7.1c3.1-3.1 1.4-8.5 1.4-8.5zm-14.1 7.8c0-4.4-5-7-5-7s-5 2.5-5 7a5 5 0 1 0 10 0zm6 6c4.4 0 7 5 7 5s-2.5 5-7 5a5 5 0 0 1 0-10zm-16.1 4.2c0-4.4-5-7-5-7s-5 2.5-5 7a5 5 0 1 0 10 0zm6 6c4.4 0 7 5 7 5s-2.5 5-7 5a5 5 0 0 1 0-10zm-15.9 3.9c0-4.4-5-7-5-7s-5 2.5-5 7a5 5 0 0 0 10 0zm6 6c4.4 0 7 5 7 5s-2.5 5-7 5a5 5 0 0 1 0-10z"
  fill="#f9d271"></path>
  <path data-name="opacity" d="M49.4 9.3a5 5 0 0 1-.8-6l-1.2.9a5 5 0 0 0 7.1 7.1 5.7 5.7 0 0 0 .9-1.2 5 5 0 0 1-6-.8zm-12.6 6.3a5 5 0 0 0 4.4-2.6 5 5 0 0 1-7.4-4.4 6.6 6.6 0 0 1 1.4-4c-1.5 1.1-3.4 3.1-3.4 6a5 5 0 0 0 5 5zm8 4a4.9 4.9 0 0 1 .6-2.4 5 5 0 0 0 2.4 9.4c2.8 0 4.9-1.9 6-3.4a6.6 6.6 0 0 1-4 1.4 5 5 0 0 1-5-5zm-18.1 6.2a5 5 0 0 0 4.3-2.7 5 5 0 0 1-7.4-4.4 6.6 6.6 0 0 1 1.4-4c-1.5 1.1-3.4 3.1-3.4 6a5 5 0 0 0 5.1 5.1zm8 4a4.9 4.9 0 0 1 .6-2.4 5 5 0 0 0 2.4 9.4c2.8 0 4.9-1.9 6-3.4a6.6 6.6 0 0 1-4 1.4 5 5 0 0 1-5-5zm-20.9-1.1a6.6 6.6 0 0 1 1.4-4c-1.5 1.1-3.4 3.1-3.4 6a5 5 0 0 0 9.3 2.3 5 5 0 0 1-7.4-4.4zm11 11a4.9 4.9 0 0 1 .6-2.4 5 5 0 0 0 2.4 9.4c2.8 0 4.8-1.9 6-3.4a6.6 6.6 0 0 1-4 1.4 5 5 0 0 1-5-5z"
  fill="#101129" opacity=".18"></path>
  <path data-name="layer1" d="M12.8 53c6.5-6.5 18.4-4.2 26.9 4.2-7.5 7.5-17.5 5.2-26.9-4.2z"
  fill="#e8b94f"></path>
  <path data-name="stroke" d="M55.9 2.8S50.7 1 47.4 4.2a5 5 0 0 0 7.1 7.1c3.1-3.1 1.4-8.5 1.4-8.5zm-14.1 7.8c0-4.4-5-7-5-7s-5 2.5-5 7a5 5 0 1 0 10 0zm6 6c4.4 0 7 5 7 5s-2.5 5-7 5a5 5 0 0 1 0-10zm-16.1 4.2c0-4.4-5-7-5-7s-5 2.5-5 7a5 5 0 1 0 10 0zm6 6c4.4 0 7 5 7 5s-2.5 5-7 5a5 5 0 0 1 0-10zm-15.9 3.9c0-4.4-5-7-5-7s-5 2.5-5 7a5 5 0 0 0 10 0zm6 6c4.4 0 7 5 7 5s-2.5 5-7 5a5 5 0 0 1 0-10zm-10.3 4.1l-9.9 9.9m5.2 2.3c6.5-6.5 18.4-4.2 26.9 4.2-7.5 7.5-17.5 5.2-26.9-4.2z"
  fill="none" stroke="#2f446a" stroke-linecap="round" stroke-linejoin="miter"
  stroke-width="2"></path>
</svg>