<?xml version="1.0" encoding="UTF-8"?>
<svg width="232px" height="206px" viewBox="0 0 232 206" version="1.1" xmlns="http://www.w3.org/2000/svg" xmlns:xlink="http://www.w3.org/1999/xlink">
    <!-- Generator: Sketch 48.1 (47250) - http://www.bohemiancoding.com/sketch -->
    <title>worldwideweb</title>
    <desc>Created with Sketch.</desc>
    <defs></defs>
    <g id="Page-1" stroke="none" stroke-width="1" fill="none" fill-rule="evenodd">
        <g id="worldwideweb" fill-rule="nonzero">
            <path d="M155.1055,170.0391 C158.3164,166.336 162.3243,162.0157 166.2891,158.5586 C167.0235,157.9141 167.961,157.5703 168.918,157.5703 C169.1719,157.5703 169.4258,157.5937 169.6758,157.6445 C170.8867,157.875 171.9219,158.6562 172.4805,159.7539 L191.1367,196.3672 L198.2656,192.7344 L179.6094,156.125 C179.0469,155.0273 179.0274,153.7305 179.5469,152.6133 C180.0703,151.4961 181.0781,150.6836 182.2813,150.4102 C187.4102,149.2383 193.2618,148.5352 198.1407,148.1133 L151.9571,110.6641 L155.1055,170.0391 Z" id="Shape" fill="#FDECF8"></path>
            <path d="M220.0273,8 L11.9727,8 C9.7812,8 8,9.7852 8,11.9766 L8,80.0235 C8,82.2148 9.7812,84 11.9727,84 L220.0274,84 C222.2188,84 224,82.2148 224,80.0234 L224,11.9766 C224,9.7852 222.2188,8 220.0273,8 Z M75.5625,33.582 L59.9102,67.7578 C59.2618,69.1719 57.8555,70.082 56.3047,70.0937 C56.293,70.0937 56.2852,70.0937 56.2735,70.0937 C54.7305,70.0937 53.3243,69.207 52.6641,67.8125 L48.1883,58.4172 L43.9102,67.7578 C43.2618,69.1719 41.8555,70.082 40.3047,70.0937 C40.293,70.0937 40.2852,70.0937 40.2735,70.0937 C38.7305,70.0937 37.3243,69.207 36.6641,67.8125 L20.3828,33.6367 C19.4297,31.6445 20.2773,29.2578 22.2734,28.3086 C24.2773,27.3477 26.6562,28.2031 27.6015,30.1992 L40.2031,56.6445 L43.7029,49.0024 L36.3828,33.6367 C35.4297,31.6445 36.2773,29.2578 38.2734,28.3086 C40.2773,27.3477 42.6523,28.2031 43.6015,30.1992 L48.0444,39.5227 L52.289,30.2539 C53.2031,28.25 55.5742,27.3594 57.5898,28.2812 C59.6015,29.1992 60.4804,31.5742 59.5625,33.582 L52.5303,48.9365 L56.2032,56.6445 L68.2891,30.2539 C69.2071,28.25 71.5743,27.3594 73.5899,28.2812 C75.6016,29.1992 76.4805,31.5742 75.5625,33.582 Z M143.5625,33.582 L127.9102,67.7578 C127.2618,69.1719 125.8555,70.082 124.3047,70.0937 C124.293,70.0937 124.2852,70.0937 124.2735,70.0937 C122.7305,70.0937 121.3243,69.207 120.6641,67.8125 L116.1883,58.4172 L111.9102,67.7578 C111.2618,69.1719 109.8555,70.082 108.3047,70.0937 C108.293,70.0937 108.2852,70.0937 108.2735,70.0937 C106.7305,70.0937 105.3243,69.207 104.6641,67.8125 L88.3828,33.6367 C87.4297,31.6445 88.2773,29.2578 90.2734,28.3086 C92.2734,27.3477 94.6562,28.2031 95.6015,30.1992 L108.2031,56.6445 L111.7029,49.0024 L104.3828,33.6367 C103.4297,31.6445 104.2773,29.2578 106.2734,28.3086 C108.2734,27.3477 110.6562,28.2031 111.6015,30.1992 L116.0444,39.5227 L120.289,30.2539 C121.207,28.25 123.5742,27.3594 125.5898,28.2812 C127.6015,29.1992 128.4804,31.5742 127.5625,33.582 L120.5303,48.9365 L124.2032,56.6445 L136.2891,30.2539 C137.2071,28.25 139.5703,27.3594 141.5899,28.2812 C143.6016,29.1992 144.4805,31.5742 143.5625,33.582 Z M211.5625,33.582 L195.9102,67.7578 C195.2618,69.1719 193.8555,70.082 192.3047,70.0937 C192.293,70.0937 192.2852,70.0937 192.2735,70.0937 C190.7305,70.0937 189.3243,69.207 188.6641,67.8125 L184.1883,58.4172 L179.9102,67.7578 C179.2618,69.1719 177.8555,70.082 176.3047,70.0937 C176.293,70.0937 176.2852,70.0937 176.2735,70.0937 C174.7305,70.0937 173.3243,69.207 172.6641,67.8125 L156.3829,33.6367 C155.4298,31.6445 156.2774,29.2578 158.2735,28.3086 C160.2774,27.3477 162.6563,28.2031 163.6016,30.1992 L176.2032,56.6445 L179.703,49.0024 L172.3829,33.6367 C171.4298,31.6445 172.2774,29.2578 174.2735,28.3086 C176.2774,27.3477 178.6563,28.2031 179.6016,30.1992 L184.0445,39.5227 L188.2891,30.2539 C189.2071,28.25 191.5743,27.3594 193.5899,28.2812 C195.6016,29.1992 196.4805,31.5742 195.5626,33.582 L188.5304,48.9365 L192.2033,56.6445 L204.2892,30.2539 C205.2072,28.25 207.5744,27.3594 209.59,28.2812 C211.6016,29.1992 212.4805,31.5742 211.5625,33.582 Z" id="Shape" fill="#FDECF8"></path>
            <path d="M220.0273,0 L11.9727,0 C5.3711,0 0,5.3711 0,11.9766 L0,80.0235 C0,86.6289 5.3711,92 11.9727,92 L220.0274,92 C226.6289,92 232,86.6289 232,80.0234 L232,11.9766 C232,5.3711 226.6289,0 220.0273,0 Z M224,80.0234 C224,82.2148 222.2188,84 220.0273,84 L11.9727,84 C9.7812,84 8,82.2148 8,80.0234 L8,11.9766 C8,9.7852 9.7812,8 11.9727,8 L220.0274,8 C222.2188,8 224,9.7852 224,11.9766 L224,80.0234 Z" id="Shape" fill="#535353"></path>
            <path d="M73.5898,28.2812 C71.5742,27.3593 69.207,28.25 68.289,30.2539 L56.2031,56.6445 L52.5302,48.9365 L59.5624,33.582 C60.4804,31.5742 59.6015,29.1992 57.5897,28.2812 C55.5741,27.3593 53.203,28.25 52.2889,30.2539 L48.0443,39.5227 L43.6014,30.1992 C42.6522,28.2031 40.2772,27.3476 38.2733,28.3086 C36.2772,29.2578 35.4295,31.6445 36.3827,33.6367 L43.7028,49.0024 L40.203,56.6445 L27.6016,30.1992 C26.6563,28.2031 24.2774,27.3476 22.2735,28.3086 C20.2774,29.2578 19.4297,31.6445 20.3829,33.6367 L36.6641,67.8125 C37.3243,69.207 38.7305,70.0937 40.2735,70.0937 C40.2852,70.0937 40.293,70.0937 40.3047,70.0937 C41.8555,70.082 43.2617,69.1718 43.9102,67.7578 L48.1883,58.4172 L52.6641,67.8125 C53.3243,69.207 54.7305,70.0937 56.2735,70.0937 C56.2852,70.0937 56.293,70.0937 56.3047,70.0937 C57.8555,70.082 59.2617,69.1718 59.9102,67.7578 L75.5625,33.582 C76.4805,31.5742 75.6016,29.1992 73.5898,28.2812 Z" id="Shape" fill="#535353"></path>
            <path d="M141.5898,28.2812 C139.5703,27.3593 137.207,28.25 136.289,30.2539 L124.2031,56.6445 L120.5302,48.9365 L127.5624,33.582 C128.4804,31.5742 127.6015,29.1992 125.5897,28.2812 C123.5741,27.3593 121.2069,28.25 120.2889,30.2539 L116.0443,39.5227 L111.6014,30.1992 C110.6561,28.2031 108.2733,27.3476 106.2733,28.3086 C104.2772,29.2578 103.4295,31.6445 104.3827,33.6367 L111.7028,49.0024 L108.203,56.6445 L95.6016,30.1992 C94.6563,28.2031 92.2735,27.3476 90.2735,28.3086 C88.2774,29.2578 87.4297,31.6445 88.3829,33.6367 L104.6641,67.8125 C105.3243,69.207 106.7305,70.0937 108.2735,70.0937 C108.2852,70.0937 108.293,70.0937 108.3047,70.0937 C109.8555,70.082 111.2617,69.1718 111.9102,67.7578 L116.1883,58.4172 L120.6641,67.8125 C121.3243,69.207 122.7305,70.0937 124.2735,70.0937 C124.2852,70.0937 124.293,70.0937 124.3047,70.0937 C125.8555,70.082 127.2617,69.1718 127.9102,67.7578 L143.5625,33.582 C144.4805,31.5742 143.6016,29.1992 141.5898,28.2812 Z" id="Shape" fill="#535353"></path>
            <path d="M209.5898,28.2812 C207.5742,27.3593 205.207,28.25 204.289,30.2539 L192.2031,56.6445 L188.5302,48.9365 L195.5624,33.582 C196.4804,31.5742 195.6015,29.1992 193.5897,28.2812 C191.5741,27.3593 189.2069,28.25 188.2889,30.2539 L184.0443,39.5227 L179.6014,30.1992 C178.6561,28.2031 176.2772,27.3476 174.2733,28.3086 C172.2772,29.2578 171.4295,31.6445 172.3827,33.6367 L179.7028,49.0024 L176.203,56.6445 L163.6014,30.1992 C162.6561,28.2031 160.2772,27.3476 158.2733,28.3086 C156.2772,29.2578 155.4295,31.6445 156.3827,33.6367 L172.6639,67.8125 C173.3241,69.207 174.7303,70.0937 176.2733,70.0937 C176.285,70.0937 176.2928,70.0937 176.3045,70.0937 C177.8553,70.082 179.2615,69.1718 179.91,67.7578 L184.1881,58.4172 L188.6639,67.8125 C189.3241,69.207 190.7303,70.0937 192.2733,70.0937 C192.285,70.0937 192.2928,70.0937 192.3045,70.0937 C193.8553,70.082 195.2615,69.1718 195.91,67.7578 L211.5623,33.582 C212.4805,31.5742 211.6016,29.1992 209.5898,28.2812 Z" id="Shape" fill="#535353"></path>
            <path d="M150.0039,98.7812 C148.7773,97.7851 147.0742,97.6093 145.668,98.3242 C144.2618,99.0391 143.4063,100.5195 143.4883,102.0976 L147.6641,180.7773 C147.7539,182.4531 148.8789,183.8945 150.4844,184.3906 C152.0782,184.875 153.8282,184.3203 154.8438,182.9844 C154.918,182.8906 161.0586,174.8399 167.7735,168.1328 L185.8243,203.5625 C186.3048,204.5078 187.1407,205.2227 188.1524,205.5508 C188.5547,205.6797 188.9727,205.7461 189.3868,205.7461 C190.0118,205.7461 190.6368,205.5977 191.2032,205.3086 L205.461,198.043 C206.4063,197.5625 207.1212,196.7266 207.4493,195.7149 C207.7774,194.7071 207.6915,193.6094 207.2071,192.6641 L189.1563,157.2383 C198.5274,155.75 208.6485,155.5117 208.7696,155.5117 C210.4454,155.4726 211.9258,154.3945 212.4688,152.8086 C213.0118,151.2188 212.5079,149.4609 211.2032,148.4063 L150.0039,98.7812 Z M182.2812,150.4102 C181.0781,150.6836 180.0703,151.4961 179.5468,152.6133 C179.0273,153.7305 179.0468,155.0274 179.6093,156.125 L198.2655,192.7344 L191.1366,196.3672 L172.4804,159.7539 C171.9218,158.6562 170.8866,157.875 169.6757,157.6445 C169.4257,157.5937 169.1718,157.5703 168.9179,157.5703 C167.9609,157.5703 167.0234,157.9141 166.289,158.5586 C162.3242,162.0156 158.3163,166.3359 155.1054,170.0391 L151.957,110.6641 L198.1406,148.1133 C193.2617,148.5352 187.4102,149.2383 182.2812,150.4102 Z" id="Shape" fill="#535353"></path>
        </g>
    </g>
</svg>