<?xml version="1.0" encoding="UTF-8"?>
<svg width="5390px" height="4516px" viewBox="0 0 5390 4516" version="1.1" xmlns="http://www.w3.org/2000/svg" xmlns:xlink="http://www.w3.org/1999/xlink">
    <title>Group 4</title>
    <g id="Page-1" stroke="none" stroke-width="1" fill="none" fill-rule="evenodd">
        <g id="Group-4">
            <g id="Group-3" transform="translate(1978.000000, 4221.000000)" fill-rule="nonzero">
                <g id="link-horizontal-solid" transform="translate(355.412234, 120.824468)" fill="#3A5291">
                    <path d="M30.5412035,0.175531915 C13.4376097,0.175531915 -0.412234043,13.9916777 -0.412234043,31.0536569 C-0.412234043,46.1510527 10.5263597,59.0276152 25.446516,61.5046986 L25.8532347,61.5687611 C29.5779222,62.1880319 33.1099535,59.6682402 33.7307347,55.9526152 C34.351516,52.2369902 31.8255785,48.7135527 28.100891,48.0942819 L27.6941722,48.0302194 C19.3885472,46.6421986 13.287766,39.4671986 13.287766,31.0536569 C13.287766,21.5510527 21.0154222,13.8421986 30.5412035,13.8421986 L64.5343285,13.8421986 C74.0601097,13.8421986 81.787766,21.5510527 81.787766,31.0536569 C81.787766,39.4671986 75.6869847,46.6421986 67.3599535,48.0302194 L66.9532347,48.0942819 C63.2285472,48.7135527 60.7026097,52.2369902 61.323391,55.9526152 C61.9441722,59.6682402 65.4762035,62.1880319 69.200891,61.5687611 L69.6076097,61.5046986 C84.527766,59.0276152 95.4663845,46.1296986 95.4663845,31.0536569 C95.487766,13.9916777 81.6379222,0.175531915 64.5343285,0.175531915 L30.5412035,0.175531915 Z M105.634328,82.1755319 C122.737922,82.1755319 136.587766,68.3593861 136.587766,51.2974069 C136.587766,36.2000111 125.649172,23.3234486 110.729016,20.8463652 L110.322297,20.7823027 C106.59761,20.1630319 103.065578,22.6828236 102.444797,26.3984486 C101.824016,30.1140736 104.349953,33.6375111 108.074641,34.2567819 L108.48136,34.3208444 C116.808391,35.7088652 122.909172,42.8838652 122.909172,51.2974069 C122.909172,60.8000111 115.181516,68.5088652 105.655735,68.5088652 L71.6412035,68.5088652 C62.1154222,68.5088652 54.387766,60.8000111 54.387766,51.2974069 C54.387766,42.8838652 60.4885472,35.7088652 68.8155785,34.3208444 L69.2222972,34.2567819 C72.9469847,33.6375111 75.4729222,30.1140736 74.852141,26.3984486 C74.2313597,22.6828236 70.6993285,20.1630319 66.974641,20.7823027 L66.5679222,20.8463652 C51.6263597,23.3234486 40.687766,36.2000111 40.687766,51.2974069 C40.687766,68.3593861 54.5376097,82.1755319 71.6412035,82.1755319 L105.634328,82.1755319 Z" id="Shape"></path>
                </g>
                <g id="link-horizontal-solid" transform="translate(906.183511, 120.824468)" fill="#3A5291">
                    <path d="M30.7699269,0.175531915 C13.6663331,0.175531915 -0.183510638,13.9916777 -0.183510638,31.0536569 C-0.183510638,46.1510527 10.7550831,59.0276152 25.6752394,61.5046986 L26.0819581,61.5687611 C29.8066456,62.1880319 33.3386769,59.6682402 33.9594581,55.9526152 C34.5802394,52.2369902 32.0543019,48.7135527 28.3296144,48.0942819 L27.9228956,48.0302194 C19.6172706,46.6421986 13.5164894,39.4671986 13.5164894,31.0536569 C13.5164894,21.5510527 21.2441456,13.8421986 30.7699269,13.8421986 L64.7630519,13.8421986 C74.2888331,13.8421986 82.0164894,21.5510527 82.0164894,31.0536569 C82.0164894,39.4671986 75.9157081,46.6421986 67.5886769,48.0302194 L67.1819581,48.0942819 C63.4572706,48.7135527 60.9313331,52.2369902 61.5521144,55.9526152 C62.1728956,59.6682402 65.7049269,62.1880319 69.4296144,61.5687611 L69.8363331,61.5046986 C84.7564894,59.0276152 95.6951079,46.1296986 95.6951079,31.0536569 C95.7164894,13.9916777 81.8666456,0.175531915 64.7630519,0.175531915 L30.7699269,0.175531915 Z M105.863052,82.1755319 C122.966646,82.1755319 136.816489,68.3593861 136.816489,51.2974069 C136.816489,36.2000111 125.877896,23.3234486 110.957739,20.8463652 L110.551021,20.7823027 C106.826333,20.1630319 103.294302,22.6828236 102.673521,26.3984486 C102.052739,30.1140736 104.578677,33.6375111 108.303364,34.2567819 L108.710083,34.3208444 C117.037114,35.7088652 123.137896,42.8838652 123.137896,51.2974069 C123.137896,60.8000111 115.410239,68.5088652 105.884458,68.5088652 L71.8699269,68.5088652 C62.3441456,68.5088652 54.6164894,60.8000111 54.6164894,51.2974069 C54.6164894,42.8838652 60.7172706,35.7088652 69.0443019,34.3208444 L69.4510206,34.2567819 C73.1757081,33.6375111 75.7016456,30.1140736 75.0808644,26.3984486 C74.4600831,22.6828236 70.9280519,20.1630319 67.2033644,20.7823027 L66.7966456,20.8463652 C51.8550831,23.3234486 40.9164894,36.2000111 40.9164894,51.2974069 C40.9164894,68.3593861 54.7663331,82.1755319 71.8699269,82.1755319 L105.863052,82.1755319 Z" id="Shape"></path>
                </g>
                <g id="cube-thin" fill="#10172A">
                    <path d="M140.726953,1.33733229 C145.773633,-0.445777429 151.226367,-0.445777429 156.273047,1.33733229 L281.569922,45.8378517 C290.793164,49.1300145 297,57.9149217 297,67.7275411 L297,227.284217 C297,237.096836 290.793164,245.864324 281.569922,249.173906 L156.273047,293.650039 C151.226367,295.449987 145.773633,295.449987 140.726953,293.650039 L15.4416797,249.173906 C6.18363281,245.864324 0,237.096836 0,227.284217 L0,67.7275411 C0,57.9149217 6.18363281,49.1300145 15.4416797,45.8378517 L140.726953,1.33733229 Z M153.140625,10.0943693 C150.124219,9.02020685 146.875781,9.02020685 143.337305,10.0943693 L18.5450977,54.5937274 C15.6969141,55.6040208 13.3359961,56.9859163 11.7117773,59.8890582 L148.5,114.642313 L285.282422,59.8890582 C283.658203,56.9859163 281.279883,55.6040208 278.4375,54.5937274 L153.140625,10.0943693 Z M18.5450977,240.406418 L143.859375,284.940614 C143.859375,284.940614 143.337305,284.940614 143.859375,284.940614 L143.859375,122.77111 L9.28125,68.8887979 L9.28125,227.284217 C9.28125,233.206626 12.99375,238.432281 18.5450977,240.406418 Z M153.140625,284.940614 C152.618555,284.940614 153.140625,284.940614 153.140625,284.940614 L278.4375,240.406418 C284.00625,238.432281 287.71875,233.206626 287.71875,227.284217 L287.71875,68.8887979 L153.140625,122.77111 L153.140625,284.940614 Z" id="Shape"></path>
                </g>
                <g id="cube-thin" transform="translate(550.771277, 0.000000)" fill="#10172A">
                    <path d="M140.955677,1.33733229 C146.002356,-0.445777429 151.455091,-0.445777429 156.50177,1.33733229 L281.798645,45.8378517 C291.021887,49.1300145 297.228723,57.9149217 297.228723,67.7275411 L297.228723,227.284217 C297.228723,237.096836 291.021887,245.864324 281.798645,249.173906 L156.50177,293.650039 C151.455091,295.449987 146.002356,295.449987 140.955677,293.650039 L15.6704031,249.173906 C6.41235622,245.864324 0.228723404,237.096836 0.228723404,227.284217 L0.228723404,67.7275411 C0.228723404,57.9149217 6.41235622,49.1300145 15.6704031,45.8378517 L140.955677,1.33733229 Z M153.369348,10.0943693 C150.352942,9.02020685 147.104505,9.02020685 143.566028,10.0943693 L18.7738211,54.5937274 C15.9256375,55.6040208 13.5647195,56.9859163 11.9405007,59.8890582 L148.728723,114.642313 L285.511145,59.8890582 C283.886927,56.9859163 281.508606,55.6040208 278.666223,54.5937274 L153.369348,10.0943693 Z M18.7738211,240.406418 L144.088098,284.940614 C144.088098,284.940614 143.566028,284.940614 144.088098,284.940614 L144.088098,122.77111 L9.5099734,68.8887979 L9.5099734,227.284217 C9.5099734,233.206626 13.2224734,238.432281 18.7738211,240.406418 Z M153.369348,284.940614 C152.847278,284.940614 153.369348,284.940614 153.369348,284.940614 L278.666223,240.406418 C284.234973,238.432281 287.947473,233.206626 287.947473,227.284217 L287.947473,68.8887979 L153.369348,122.77111 L153.369348,284.940614 Z" id="Shape"></path>
                </g>
                <g id="cube-thin" transform="translate(1103.896277, 0.000000)" fill="#10172A">
                    <path d="M140.830677,1.33733229 C145.877356,-0.445777429 151.330091,-0.445777429 156.37677,1.33733229 L281.673645,45.8378517 C290.896887,49.1300145 297.103723,57.9149217 297.103723,67.7275411 L297.103723,227.284217 C297.103723,237.096836 290.896887,245.864324 281.673645,249.173906 L156.37677,293.650039 C151.330091,295.449987 145.877356,295.449987 140.830677,293.650039 L15.5454031,249.173906 C6.28735622,245.864324 0.103723404,237.096836 0.103723404,227.284217 L0.103723404,67.7275411 C0.103723404,57.9149217 6.28735622,49.1300145 15.5454031,45.8378517 L140.830677,1.33733229 Z M153.244348,10.0943693 C150.227942,9.02020685 146.979505,9.02020685 143.441028,10.0943693 L18.6488211,54.5937274 C15.8006375,55.6040208 13.4397195,56.9859163 11.8155007,59.8890582 L148.603723,114.642313 L285.386145,59.8890582 C283.761927,56.9859163 281.383606,55.6040208 278.541223,54.5937274 L153.244348,10.0943693 Z M18.6488211,240.406418 L143.963098,284.940614 C143.963098,284.940614 143.441028,284.940614 143.963098,284.940614 L143.963098,122.77111 L9.3849734,68.8887979 L9.3849734,227.284217 C9.3849734,233.206626 13.0974734,238.432281 18.6488211,240.406418 Z M153.244348,284.940614 C152.722278,284.940614 153.244348,284.940614 153.244348,284.940614 L278.541223,240.406418 C284.109973,238.432281 287.822473,233.206626 287.822473,227.284217 L287.822473,68.8887979 L153.244348,122.77111 L153.244348,284.940614 Z" id="Shape"></path>
                </g>
            </g>
            <g id="Group-3" transform="translate(268.000000, 1550.000000)" fill-rule="nonzero">
                <g id="link-horizontal-solid" transform="translate(355.412234, 120.824468)" fill="#3A5291">
                    <path d="M30.5412035,0.175531915 C13.4376097,0.175531915 -0.412234043,13.9916777 -0.412234043,31.0536569 C-0.412234043,46.1510527 10.5263597,59.0276152 25.446516,61.5046986 L25.8532347,61.5687611 C29.5779222,62.1880319 33.1099535,59.6682402 33.7307347,55.9526152 C34.351516,52.2369902 31.8255785,48.7135527 28.100891,48.0942819 L27.6941722,48.0302194 C19.3885472,46.6421986 13.287766,39.4671986 13.287766,31.0536569 C13.287766,21.5510527 21.0154222,13.8421986 30.5412035,13.8421986 L64.5343285,13.8421986 C74.0601097,13.8421986 81.787766,21.5510527 81.787766,31.0536569 C81.787766,39.4671986 75.6869847,46.6421986 67.3599535,48.0302194 L66.9532347,48.0942819 C63.2285472,48.7135527 60.7026097,52.2369902 61.323391,55.9526152 C61.9441722,59.6682402 65.4762035,62.1880319 69.200891,61.5687611 L69.6076097,61.5046986 C84.527766,59.0276152 95.4663845,46.1296986 95.4663845,31.0536569 C95.487766,13.9916777 81.6379222,0.175531915 64.5343285,0.175531915 L30.5412035,0.175531915 Z M105.634328,82.1755319 C122.737922,82.1755319 136.587766,68.3593861 136.587766,51.2974069 C136.587766,36.2000111 125.649172,23.3234486 110.729016,20.8463652 L110.322297,20.7823027 C106.59761,20.1630319 103.065578,22.6828236 102.444797,26.3984486 C101.824016,30.1140736 104.349953,33.6375111 108.074641,34.2567819 L108.48136,34.3208444 C116.808391,35.7088652 122.909172,42.8838652 122.909172,51.2974069 C122.909172,60.8000111 115.181516,68.5088652 105.655735,68.5088652 L71.6412035,68.5088652 C62.1154222,68.5088652 54.387766,60.8000111 54.387766,51.2974069 C54.387766,42.8838652 60.4885472,35.7088652 68.8155785,34.3208444 L69.2222972,34.2567819 C72.9469847,33.6375111 75.4729222,30.1140736 74.852141,26.3984486 C74.2313597,22.6828236 70.6993285,20.1630319 66.974641,20.7823027 L66.5679222,20.8463652 C51.6263597,23.3234486 40.687766,36.2000111 40.687766,51.2974069 C40.687766,68.3593861 54.5376097,82.1755319 71.6412035,82.1755319 L105.634328,82.1755319 Z" id="Shape"></path>
                </g>
                <g id="link-horizontal-solid" transform="translate(906.183511, 120.824468)" fill="#3A5291">
                    <path d="M30.7699269,0.175531915 C13.6663331,0.175531915 -0.183510638,13.9916777 -0.183510638,31.0536569 C-0.183510638,46.1510527 10.7550831,59.0276152 25.6752394,61.5046986 L26.0819581,61.5687611 C29.8066456,62.1880319 33.3386769,59.6682402 33.9594581,55.9526152 C34.5802394,52.2369902 32.0543019,48.7135527 28.3296144,48.0942819 L27.9228956,48.0302194 C19.6172706,46.6421986 13.5164894,39.4671986 13.5164894,31.0536569 C13.5164894,21.5510527 21.2441456,13.8421986 30.7699269,13.8421986 L64.7630519,13.8421986 C74.2888331,13.8421986 82.0164894,21.5510527 82.0164894,31.0536569 C82.0164894,39.4671986 75.9157081,46.6421986 67.5886769,48.0302194 L67.1819581,48.0942819 C63.4572706,48.7135527 60.9313331,52.2369902 61.5521144,55.9526152 C62.1728956,59.6682402 65.7049269,62.1880319 69.4296144,61.5687611 L69.8363331,61.5046986 C84.7564894,59.0276152 95.6951079,46.1296986 95.6951079,31.0536569 C95.7164894,13.9916777 81.8666456,0.175531915 64.7630519,0.175531915 L30.7699269,0.175531915 Z M105.863052,82.1755319 C122.966646,82.1755319 136.816489,68.3593861 136.816489,51.2974069 C136.816489,36.2000111 125.877896,23.3234486 110.957739,20.8463652 L110.551021,20.7823027 C106.826333,20.1630319 103.294302,22.6828236 102.673521,26.3984486 C102.052739,30.1140736 104.578677,33.6375111 108.303364,34.2567819 L108.710083,34.3208444 C117.037114,35.7088652 123.137896,42.8838652 123.137896,51.2974069 C123.137896,60.8000111 115.410239,68.5088652 105.884458,68.5088652 L71.8699269,68.5088652 C62.3441456,68.5088652 54.6164894,60.8000111 54.6164894,51.2974069 C54.6164894,42.8838652 60.7172706,35.7088652 69.0443019,34.3208444 L69.4510206,34.2567819 C73.1757081,33.6375111 75.7016456,30.1140736 75.0808644,26.3984486 C74.4600831,22.6828236 70.9280519,20.1630319 67.2033644,20.7823027 L66.7966456,20.8463652 C51.8550831,23.3234486 40.9164894,36.2000111 40.9164894,51.2974069 C40.9164894,68.3593861 54.7663331,82.1755319 71.8699269,82.1755319 L105.863052,82.1755319 Z" id="Shape"></path>
                </g>
                <g id="cube-thin" fill="#10172A">
                    <path d="M140.726953,1.33733229 C145.773633,-0.445777429 151.226367,-0.445777429 156.273047,1.33733229 L281.569922,45.8378517 C290.793164,49.1300145 297,57.9149217 297,67.7275411 L297,227.284217 C297,237.096836 290.793164,245.864324 281.569922,249.173906 L156.273047,293.650039 C151.226367,295.449987 145.773633,295.449987 140.726953,293.650039 L15.4416797,249.173906 C6.18363281,245.864324 0,237.096836 0,227.284217 L0,67.7275411 C0,57.9149217 6.18363281,49.1300145 15.4416797,45.8378517 L140.726953,1.33733229 Z M153.140625,10.0943693 C150.124219,9.02020685 146.875781,9.02020685 143.337305,10.0943693 L18.5450977,54.5937274 C15.6969141,55.6040208 13.3359961,56.9859163 11.7117773,59.8890582 L148.5,114.642313 L285.282422,59.8890582 C283.658203,56.9859163 281.279883,55.6040208 278.4375,54.5937274 L153.140625,10.0943693 Z M18.5450977,240.406418 L143.859375,284.940614 C143.859375,284.940614 143.337305,284.940614 143.859375,284.940614 L143.859375,122.77111 L9.28125,68.8887979 L9.28125,227.284217 C9.28125,233.206626 12.99375,238.432281 18.5450977,240.406418 Z M153.140625,284.940614 C152.618555,284.940614 153.140625,284.940614 153.140625,284.940614 L278.4375,240.406418 C284.00625,238.432281 287.71875,233.206626 287.71875,227.284217 L287.71875,68.8887979 L153.140625,122.77111 L153.140625,284.940614 Z" id="Shape"></path>
                </g>
                <g id="cube-thin" transform="translate(550.771277, 0.000000)" fill="#10172A">
                    <path d="M140.955677,1.33733229 C146.002356,-0.445777429 151.455091,-0.445777429 156.50177,1.33733229 L281.798645,45.8378517 C291.021887,49.1300145 297.228723,57.9149217 297.228723,67.7275411 L297.228723,227.284217 C297.228723,237.096836 291.021887,245.864324 281.798645,249.173906 L156.50177,293.650039 C151.455091,295.449987 146.002356,295.449987 140.955677,293.650039 L15.6704031,249.173906 C6.41235622,245.864324 0.228723404,237.096836 0.228723404,227.284217 L0.228723404,67.7275411 C0.228723404,57.9149217 6.41235622,49.1300145 15.6704031,45.8378517 L140.955677,1.33733229 Z M153.369348,10.0943693 C150.352942,9.02020685 147.104505,9.02020685 143.566028,10.0943693 L18.7738211,54.5937274 C15.9256375,55.6040208 13.5647195,56.9859163 11.9405007,59.8890582 L148.728723,114.642313 L285.511145,59.8890582 C283.886927,56.9859163 281.508606,55.6040208 278.666223,54.5937274 L153.369348,10.0943693 Z M18.7738211,240.406418 L144.088098,284.940614 C144.088098,284.940614 143.566028,284.940614 144.088098,284.940614 L144.088098,122.77111 L9.5099734,68.8887979 L9.5099734,227.284217 C9.5099734,233.206626 13.2224734,238.432281 18.7738211,240.406418 Z M153.369348,284.940614 C152.847278,284.940614 153.369348,284.940614 153.369348,284.940614 L278.666223,240.406418 C284.234973,238.432281 287.947473,233.206626 287.947473,227.284217 L287.947473,68.8887979 L153.369348,122.77111 L153.369348,284.940614 Z" id="Shape"></path>
                </g>
                <g id="cube-thin" transform="translate(1103.896277, 0.000000)" fill="#10172A">
                    <path d="M140.830677,1.33733229 C145.877356,-0.445777429 151.330091,-0.445777429 156.37677,1.33733229 L281.673645,45.8378517 C290.896887,49.1300145 297.103723,57.9149217 297.103723,67.7275411 L297.103723,227.284217 C297.103723,237.096836 290.896887,245.864324 281.673645,249.173906 L156.37677,293.650039 C151.330091,295.449987 145.877356,295.449987 140.830677,293.650039 L15.5454031,249.173906 C6.28735622,245.864324 0.103723404,237.096836 0.103723404,227.284217 L0.103723404,67.7275411 C0.103723404,57.9149217 6.28735622,49.1300145 15.5454031,45.8378517 L140.830677,1.33733229 Z M153.244348,10.0943693 C150.227942,9.02020685 146.979505,9.02020685 143.441028,10.0943693 L18.6488211,54.5937274 C15.8006375,55.6040208 13.4397195,56.9859163 11.8155007,59.8890582 L148.603723,114.642313 L285.386145,59.8890582 C283.761927,56.9859163 281.383606,55.6040208 278.541223,54.5937274 L153.244348,10.0943693 Z M18.6488211,240.406418 L143.963098,284.940614 C143.963098,284.940614 143.441028,284.940614 143.963098,284.940614 L143.963098,122.77111 L9.3849734,68.8887979 L9.3849734,227.284217 C9.3849734,233.206626 13.0974734,238.432281 18.6488211,240.406418 Z M153.244348,284.940614 C152.722278,284.940614 153.244348,284.940614 153.244348,284.940614 L278.541223,240.406418 C284.109973,238.432281 287.822473,233.206626 287.822473,227.284217 L287.822473,68.8887979 L153.244348,122.77111 L153.244348,284.940614 Z" id="Shape"></path>
                </g>
            </g>
            <g id="Group-3" transform="translate(1966.000000, 0.000000)" fill-rule="nonzero">
                <g id="link-horizontal-solid" transform="translate(355.412234, 120.824468)" fill="#3A5291">
                    <path d="M30.5412035,0.175531915 C13.4376097,0.175531915 -0.412234043,13.9916777 -0.412234043,31.0536569 C-0.412234043,46.1510527 10.5263597,59.0276152 25.446516,61.5046986 L25.8532347,61.5687611 C29.5779222,62.1880319 33.1099535,59.6682402 33.7307347,55.9526152 C34.351516,52.2369902 31.8255785,48.7135527 28.100891,48.0942819 L27.6941722,48.0302194 C19.3885472,46.6421986 13.287766,39.4671986 13.287766,31.0536569 C13.287766,21.5510527 21.0154222,13.8421986 30.5412035,13.8421986 L64.5343285,13.8421986 C74.0601097,13.8421986 81.787766,21.5510527 81.787766,31.0536569 C81.787766,39.4671986 75.6869847,46.6421986 67.3599535,48.0302194 L66.9532347,48.0942819 C63.2285472,48.7135527 60.7026097,52.2369902 61.323391,55.9526152 C61.9441722,59.6682402 65.4762035,62.1880319 69.200891,61.5687611 L69.6076097,61.5046986 C84.527766,59.0276152 95.4663845,46.1296986 95.4663845,31.0536569 C95.487766,13.9916777 81.6379222,0.175531915 64.5343285,0.175531915 L30.5412035,0.175531915 Z M105.634328,82.1755319 C122.737922,82.1755319 136.587766,68.3593861 136.587766,51.2974069 C136.587766,36.2000111 125.649172,23.3234486 110.729016,20.8463652 L110.322297,20.7823027 C106.59761,20.1630319 103.065578,22.6828236 102.444797,26.3984486 C101.824016,30.1140736 104.349953,33.6375111 108.074641,34.2567819 L108.48136,34.3208444 C116.808391,35.7088652 122.909172,42.8838652 122.909172,51.2974069 C122.909172,60.8000111 115.181516,68.5088652 105.655735,68.5088652 L71.6412035,68.5088652 C62.1154222,68.5088652 54.387766,60.8000111 54.387766,51.2974069 C54.387766,42.8838652 60.4885472,35.7088652 68.8155785,34.3208444 L69.2222972,34.2567819 C72.9469847,33.6375111 75.4729222,30.1140736 74.852141,26.3984486 C74.2313597,22.6828236 70.6993285,20.1630319 66.974641,20.7823027 L66.5679222,20.8463652 C51.6263597,23.3234486 40.687766,36.2000111 40.687766,51.2974069 C40.687766,68.3593861 54.5376097,82.1755319 71.6412035,82.1755319 L105.634328,82.1755319 Z" id="Shape"></path>
                </g>
                <g id="link-horizontal-solid" transform="translate(906.183511, 120.824468)" fill="#3A5291">
                    <path d="M30.7699269,0.175531915 C13.6663331,0.175531915 -0.183510638,13.9916777 -0.183510638,31.0536569 C-0.183510638,46.1510527 10.7550831,59.0276152 25.6752394,61.5046986 L26.0819581,61.5687611 C29.8066456,62.1880319 33.3386769,59.6682402 33.9594581,55.9526152 C34.5802394,52.2369902 32.0543019,48.7135527 28.3296144,48.0942819 L27.9228956,48.0302194 C19.6172706,46.6421986 13.5164894,39.4671986 13.5164894,31.0536569 C13.5164894,21.5510527 21.2441456,13.8421986 30.7699269,13.8421986 L64.7630519,13.8421986 C74.2888331,13.8421986 82.0164894,21.5510527 82.0164894,31.0536569 C82.0164894,39.4671986 75.9157081,46.6421986 67.5886769,48.0302194 L67.1819581,48.0942819 C63.4572706,48.7135527 60.9313331,52.2369902 61.5521144,55.9526152 C62.1728956,59.6682402 65.7049269,62.1880319 69.4296144,61.5687611 L69.8363331,61.5046986 C84.7564894,59.0276152 95.6951079,46.1296986 95.6951079,31.0536569 C95.7164894,13.9916777 81.8666456,0.175531915 64.7630519,0.175531915 L30.7699269,0.175531915 Z M105.863052,82.1755319 C122.966646,82.1755319 136.816489,68.3593861 136.816489,51.2974069 C136.816489,36.2000111 125.877896,23.3234486 110.957739,20.8463652 L110.551021,20.7823027 C106.826333,20.1630319 103.294302,22.6828236 102.673521,26.3984486 C102.052739,30.1140736 104.578677,33.6375111 108.303364,34.2567819 L108.710083,34.3208444 C117.037114,35.7088652 123.137896,42.8838652 123.137896,51.2974069 C123.137896,60.8000111 115.410239,68.5088652 105.884458,68.5088652 L71.8699269,68.5088652 C62.3441456,68.5088652 54.6164894,60.8000111 54.6164894,51.2974069 C54.6164894,42.8838652 60.7172706,35.7088652 69.0443019,34.3208444 L69.4510206,34.2567819 C73.1757081,33.6375111 75.7016456,30.1140736 75.0808644,26.3984486 C74.4600831,22.6828236 70.9280519,20.1630319 67.2033644,20.7823027 L66.7966456,20.8463652 C51.8550831,23.3234486 40.9164894,36.2000111 40.9164894,51.2974069 C40.9164894,68.3593861 54.7663331,82.1755319 71.8699269,82.1755319 L105.863052,82.1755319 Z" id="Shape"></path>
                </g>
                <g id="cube-thin" fill="#10172A">
                    <path d="M140.726953,1.33733229 C145.773633,-0.445777429 151.226367,-0.445777429 156.273047,1.33733229 L281.569922,45.8378517 C290.793164,49.1300145 297,57.9149217 297,67.7275411 L297,227.284217 C297,237.096836 290.793164,245.864324 281.569922,249.173906 L156.273047,293.650039 C151.226367,295.449987 145.773633,295.449987 140.726953,293.650039 L15.4416797,249.173906 C6.18363281,245.864324 0,237.096836 0,227.284217 L0,67.7275411 C0,57.9149217 6.18363281,49.1300145 15.4416797,45.8378517 L140.726953,1.33733229 Z M153.140625,10.0943693 C150.124219,9.02020685 146.875781,9.02020685 143.337305,10.0943693 L18.5450977,54.5937274 C15.6969141,55.6040208 13.3359961,56.9859163 11.7117773,59.8890582 L148.5,114.642313 L285.282422,59.8890582 C283.658203,56.9859163 281.279883,55.6040208 278.4375,54.5937274 L153.140625,10.0943693 Z M18.5450977,240.406418 L143.859375,284.940614 C143.859375,284.940614 143.337305,284.940614 143.859375,284.940614 L143.859375,122.77111 L9.28125,68.8887979 L9.28125,227.284217 C9.28125,233.206626 12.99375,238.432281 18.5450977,240.406418 Z M153.140625,284.940614 C152.618555,284.940614 153.140625,284.940614 153.140625,284.940614 L278.4375,240.406418 C284.00625,238.432281 287.71875,233.206626 287.71875,227.284217 L287.71875,68.8887979 L153.140625,122.77111 L153.140625,284.940614 Z" id="Shape"></path>
                </g>
                <g id="cube-thin" transform="translate(550.771277, 0.000000)" fill="#10172A">
                    <path d="M140.955677,1.33733229 C146.002356,-0.445777429 151.455091,-0.445777429 156.50177,1.33733229 L281.798645,45.8378517 C291.021887,49.1300145 297.228723,57.9149217 297.228723,67.7275411 L297.228723,227.284217 C297.228723,237.096836 291.021887,245.864324 281.798645,249.173906 L156.50177,293.650039 C151.455091,295.449987 146.002356,295.449987 140.955677,293.650039 L15.6704031,249.173906 C6.41235622,245.864324 0.228723404,237.096836 0.228723404,227.284217 L0.228723404,67.7275411 C0.228723404,57.9149217 6.41235622,49.1300145 15.6704031,45.8378517 L140.955677,1.33733229 Z M153.369348,10.0943693 C150.352942,9.02020685 147.104505,9.02020685 143.566028,10.0943693 L18.7738211,54.5937274 C15.9256375,55.6040208 13.5647195,56.9859163 11.9405007,59.8890582 L148.728723,114.642313 L285.511145,59.8890582 C283.886927,56.9859163 281.508606,55.6040208 278.666223,54.5937274 L153.369348,10.0943693 Z M18.7738211,240.406418 L144.088098,284.940614 C144.088098,284.940614 143.566028,284.940614 144.088098,284.940614 L144.088098,122.77111 L9.5099734,68.8887979 L9.5099734,227.284217 C9.5099734,233.206626 13.2224734,238.432281 18.7738211,240.406418 Z M153.369348,284.940614 C152.847278,284.940614 153.369348,284.940614 153.369348,284.940614 L278.666223,240.406418 C284.234973,238.432281 287.947473,233.206626 287.947473,227.284217 L287.947473,68.8887979 L153.369348,122.77111 L153.369348,284.940614 Z" id="Shape"></path>
                </g>
                <g id="cube-thin" transform="translate(1103.896277, 0.000000)" fill="#10172A">
                    <path d="M140.830677,1.33733229 C145.877356,-0.445777429 151.330091,-0.445777429 156.37677,1.33733229 L281.673645,45.8378517 C290.896887,49.1300145 297.103723,57.9149217 297.103723,67.7275411 L297.103723,227.284217 C297.103723,237.096836 290.896887,245.864324 281.673645,249.173906 L156.37677,293.650039 C151.330091,295.449987 145.877356,295.449987 140.830677,293.650039 L15.5454031,249.173906 C6.28735622,245.864324 0.103723404,237.096836 0.103723404,227.284217 L0.103723404,67.7275411 C0.103723404,57.9149217 6.28735622,49.1300145 15.5454031,45.8378517 L140.830677,1.33733229 Z M153.244348,10.0943693 C150.227942,9.02020685 146.979505,9.02020685 143.441028,10.0943693 L18.6488211,54.5937274 C15.8006375,55.6040208 13.4397195,56.9859163 11.8155007,59.8890582 L148.603723,114.642313 L285.386145,59.8890582 C283.761927,56.9859163 281.383606,55.6040208 278.541223,54.5937274 L153.244348,10.0943693 Z M18.6488211,240.406418 L143.963098,284.940614 C143.963098,284.940614 143.441028,284.940614 143.963098,284.940614 L143.963098,122.77111 L9.3849734,68.8887979 L9.3849734,227.284217 C9.3849734,233.206626 13.0974734,238.432281 18.6488211,240.406418 Z M153.244348,284.940614 C152.722278,284.940614 153.244348,284.940614 153.244348,284.940614 L278.541223,240.406418 C284.109973,238.432281 287.822473,233.206626 287.822473,227.284217 L287.822473,68.8887979 L153.244348,122.77111 L153.244348,284.940614 Z" id="Shape"></path>
                </g>
            </g>
            <g id="Group-3" transform="translate(3721.000000, 1550.000000)" fill-rule="nonzero">
                <g id="link-horizontal-solid" transform="translate(355.412234, 120.824468)" fill="#3A5291">
                    <path d="M30.5412035,0.175531915 C13.4376097,0.175531915 -0.412234043,13.9916777 -0.412234043,31.0536569 C-0.412234043,46.1510527 10.5263597,59.0276152 25.446516,61.5046986 L25.8532347,61.5687611 C29.5779222,62.1880319 33.1099535,59.6682402 33.7307347,55.9526152 C34.351516,52.2369902 31.8255785,48.7135527 28.100891,48.0942819 L27.6941722,48.0302194 C19.3885472,46.6421986 13.287766,39.4671986 13.287766,31.0536569 C13.287766,21.5510527 21.0154222,13.8421986 30.5412035,13.8421986 L64.5343285,13.8421986 C74.0601097,13.8421986 81.787766,21.5510527 81.787766,31.0536569 C81.787766,39.4671986 75.6869847,46.6421986 67.3599535,48.0302194 L66.9532347,48.0942819 C63.2285472,48.7135527 60.7026097,52.2369902 61.323391,55.9526152 C61.9441722,59.6682402 65.4762035,62.1880319 69.200891,61.5687611 L69.6076097,61.5046986 C84.527766,59.0276152 95.4663845,46.1296986 95.4663845,31.0536569 C95.487766,13.9916777 81.6379222,0.175531915 64.5343285,0.175531915 L30.5412035,0.175531915 Z M105.634328,82.1755319 C122.737922,82.1755319 136.587766,68.3593861 136.587766,51.2974069 C136.587766,36.2000111 125.649172,23.3234486 110.729016,20.8463652 L110.322297,20.7823027 C106.59761,20.1630319 103.065578,22.6828236 102.444797,26.3984486 C101.824016,30.1140736 104.349953,33.6375111 108.074641,34.2567819 L108.48136,34.3208444 C116.808391,35.7088652 122.909172,42.8838652 122.909172,51.2974069 C122.909172,60.8000111 115.181516,68.5088652 105.655735,68.5088652 L71.6412035,68.5088652 C62.1154222,68.5088652 54.387766,60.8000111 54.387766,51.2974069 C54.387766,42.8838652 60.4885472,35.7088652 68.8155785,34.3208444 L69.2222972,34.2567819 C72.9469847,33.6375111 75.4729222,30.1140736 74.852141,26.3984486 C74.2313597,22.6828236 70.6993285,20.1630319 66.974641,20.7823027 L66.5679222,20.8463652 C51.6263597,23.3234486 40.687766,36.2000111 40.687766,51.2974069 C40.687766,68.3593861 54.5376097,82.1755319 71.6412035,82.1755319 L105.634328,82.1755319 Z" id="Shape"></path>
                </g>
                <g id="link-horizontal-solid" transform="translate(906.183511, 120.824468)" fill="#3A5291">
                    <path d="M30.7699269,0.175531915 C13.6663331,0.175531915 -0.183510638,13.9916777 -0.183510638,31.0536569 C-0.183510638,46.1510527 10.7550831,59.0276152 25.6752394,61.5046986 L26.0819581,61.5687611 C29.8066456,62.1880319 33.3386769,59.6682402 33.9594581,55.9526152 C34.5802394,52.2369902 32.0543019,48.7135527 28.3296144,48.0942819 L27.9228956,48.0302194 C19.6172706,46.6421986 13.5164894,39.4671986 13.5164894,31.0536569 C13.5164894,21.5510527 21.2441456,13.8421986 30.7699269,13.8421986 L64.7630519,13.8421986 C74.2888331,13.8421986 82.0164894,21.5510527 82.0164894,31.0536569 C82.0164894,39.4671986 75.9157081,46.6421986 67.5886769,48.0302194 L67.1819581,48.0942819 C63.4572706,48.7135527 60.9313331,52.2369902 61.5521144,55.9526152 C62.1728956,59.6682402 65.7049269,62.1880319 69.4296144,61.5687611 L69.8363331,61.5046986 C84.7564894,59.0276152 95.6951079,46.1296986 95.6951079,31.0536569 C95.7164894,13.9916777 81.8666456,0.175531915 64.7630519,0.175531915 L30.7699269,0.175531915 Z M105.863052,82.1755319 C122.966646,82.1755319 136.816489,68.3593861 136.816489,51.2974069 C136.816489,36.2000111 125.877896,23.3234486 110.957739,20.8463652 L110.551021,20.7823027 C106.826333,20.1630319 103.294302,22.6828236 102.673521,26.3984486 C102.052739,30.1140736 104.578677,33.6375111 108.303364,34.2567819 L108.710083,34.3208444 C117.037114,35.7088652 123.137896,42.8838652 123.137896,51.2974069 C123.137896,60.8000111 115.410239,68.5088652 105.884458,68.5088652 L71.8699269,68.5088652 C62.3441456,68.5088652 54.6164894,60.8000111 54.6164894,51.2974069 C54.6164894,42.8838652 60.7172706,35.7088652 69.0443019,34.3208444 L69.4510206,34.2567819 C73.1757081,33.6375111 75.7016456,30.1140736 75.0808644,26.3984486 C74.4600831,22.6828236 70.9280519,20.1630319 67.2033644,20.7823027 L66.7966456,20.8463652 C51.8550831,23.3234486 40.9164894,36.2000111 40.9164894,51.2974069 C40.9164894,68.3593861 54.7663331,82.1755319 71.8699269,82.1755319 L105.863052,82.1755319 Z" id="Shape"></path>
                </g>
                <g id="cube-thin" fill="#10172A">
                    <path d="M140.726953,1.33733229 C145.773633,-0.445777429 151.226367,-0.445777429 156.273047,1.33733229 L281.569922,45.8378517 C290.793164,49.1300145 297,57.9149217 297,67.7275411 L297,227.284217 C297,237.096836 290.793164,245.864324 281.569922,249.173906 L156.273047,293.650039 C151.226367,295.449987 145.773633,295.449987 140.726953,293.650039 L15.4416797,249.173906 C6.18363281,245.864324 0,237.096836 0,227.284217 L0,67.7275411 C0,57.9149217 6.18363281,49.1300145 15.4416797,45.8378517 L140.726953,1.33733229 Z M153.140625,10.0943693 C150.124219,9.02020685 146.875781,9.02020685 143.337305,10.0943693 L18.5450977,54.5937274 C15.6969141,55.6040208 13.3359961,56.9859163 11.7117773,59.8890582 L148.5,114.642313 L285.282422,59.8890582 C283.658203,56.9859163 281.279883,55.6040208 278.4375,54.5937274 L153.140625,10.0943693 Z M18.5450977,240.406418 L143.859375,284.940614 C143.859375,284.940614 143.337305,284.940614 143.859375,284.940614 L143.859375,122.77111 L9.28125,68.8887979 L9.28125,227.284217 C9.28125,233.206626 12.99375,238.432281 18.5450977,240.406418 Z M153.140625,284.940614 C152.618555,284.940614 153.140625,284.940614 153.140625,284.940614 L278.4375,240.406418 C284.00625,238.432281 287.71875,233.206626 287.71875,227.284217 L287.71875,68.8887979 L153.140625,122.77111 L153.140625,284.940614 Z" id="Shape"></path>
                </g>
                <g id="cube-thin" transform="translate(550.771277, 0.000000)" fill="#10172A">
                    <path d="M140.955677,1.33733229 C146.002356,-0.445777429 151.455091,-0.445777429 156.50177,1.33733229 L281.798645,45.8378517 C291.021887,49.1300145 297.228723,57.9149217 297.228723,67.7275411 L297.228723,227.284217 C297.228723,237.096836 291.021887,245.864324 281.798645,249.173906 L156.50177,293.650039 C151.455091,295.449987 146.002356,295.449987 140.955677,293.650039 L15.6704031,249.173906 C6.41235622,245.864324 0.228723404,237.096836 0.228723404,227.284217 L0.228723404,67.7275411 C0.228723404,57.9149217 6.41235622,49.1300145 15.6704031,45.8378517 L140.955677,1.33733229 Z M153.369348,10.0943693 C150.352942,9.02020685 147.104505,9.02020685 143.566028,10.0943693 L18.7738211,54.5937274 C15.9256375,55.6040208 13.5647195,56.9859163 11.9405007,59.8890582 L148.728723,114.642313 L285.511145,59.8890582 C283.886927,56.9859163 281.508606,55.6040208 278.666223,54.5937274 L153.369348,10.0943693 Z M18.7738211,240.406418 L144.088098,284.940614 C144.088098,284.940614 143.566028,284.940614 144.088098,284.940614 L144.088098,122.77111 L9.5099734,68.8887979 L9.5099734,227.284217 C9.5099734,233.206626 13.2224734,238.432281 18.7738211,240.406418 Z M153.369348,284.940614 C152.847278,284.940614 153.369348,284.940614 153.369348,284.940614 L278.666223,240.406418 C284.234973,238.432281 287.947473,233.206626 287.947473,227.284217 L287.947473,68.8887979 L153.369348,122.77111 L153.369348,284.940614 Z" id="Shape"></path>
                </g>
                <g id="cube-thin" transform="translate(1103.896277, 0.000000)" fill="#10172A">
                    <path d="M140.830677,1.33733229 C145.877356,-0.445777429 151.330091,-0.445777429 156.37677,1.33733229 L281.673645,45.8378517 C290.896887,49.1300145 297.103723,57.9149217 297.103723,67.7275411 L297.103723,227.284217 C297.103723,237.096836 290.896887,245.864324 281.673645,249.173906 L156.37677,293.650039 C151.330091,295.449987 145.877356,295.449987 140.830677,293.650039 L15.5454031,249.173906 C6.28735622,245.864324 0.103723404,237.096836 0.103723404,227.284217 L0.103723404,67.7275411 C0.103723404,57.9149217 6.28735622,49.1300145 15.5454031,45.8378517 L140.830677,1.33733229 Z M153.244348,10.0943693 C150.227942,9.02020685 146.979505,9.02020685 143.441028,10.0943693 L18.6488211,54.5937274 C15.8006375,55.6040208 13.4397195,56.9859163 11.8155007,59.8890582 L148.603723,114.642313 L285.386145,59.8890582 C283.761927,56.9859163 281.383606,55.6040208 278.541223,54.5937274 L153.244348,10.0943693 Z M18.6488211,240.406418 L143.963098,284.940614 C143.963098,284.940614 143.441028,284.940614 143.963098,284.940614 L143.963098,122.77111 L9.3849734,68.8887979 L9.3849734,227.284217 C9.3849734,233.206626 13.0974734,238.432281 18.6488211,240.406418 Z M153.244348,284.940614 C152.722278,284.940614 153.244348,284.940614 153.244348,284.940614 L278.541223,240.406418 C284.109973,238.432281 287.822473,233.206626 287.822473,227.284217 L287.822473,68.8887979 L153.244348,122.77111 L153.244348,284.940614 Z" id="Shape"></path>
                </g>
            </g>
            <circle id="Oval" stroke="#10172A" stroke-width="20" fill="#DFEFFF" cx="2695.5" cy="2261.5" r="1038.5"></circle>
            <g id="user-hair-long-solid" transform="translate(1289.000000, 1894.000000)">
                <circle id="Oval" fill="#F8FAFC" cx="367.5" cy="367.5" r="367.5"></circle>
                <path d="M448,240 C448,228.6 445.6,217.8 441.3,208 L440,208 C419.5,208 401.3,198.4 389.6,183.5 C375.9,207.7 349.8,224 320,224 L289.6,224 C288.6,229.2 288,234.5 288,240 L288,256 C288,300.2 323.8,336 368,336 C412.2,336 448,300.2 448,256 L448,240 Z M240,240 C240,169.3 297.3,112 368,112 C438.7,112 496,169.3 496,240 L496,251 C496,284.9 509.5,317.5 533.5,341.5 L537.4,345.4 C541.6,349.6 544,355.4 544,361.4 C544,373.9 533.9,384 521.4,384 L368,384 L214.6,384 C202.1,384 192,373.9 192,361.4 C192,355.4 194.4,349.6 198.6,345.4 L202.5,341.5 C226.5,317.5 240,284.9 240,251 L240,240 Z M305.3,432 L430.7,432 C519.8,432 592,504.2 592,593.3 C592,610.3 578.2,624 561.3,624 L174.7,624 C157.8,624 144,610.2 144,593.3 C144,504.2 216.2,432 305.3,432 Z" id="Shape" fill="#10172A" fill-rule="nonzero"></path>
            </g>
            <g id="user-hair-buns-solid" transform="translate(2328.000000, 2933.000000)">
                <circle id="Oval" fill="#F8FAFC" cx="367.5" cy="367.5" r="367.5"></circle>
                <path d="M447,239 L447,255 C447,299.2 411.2,335 367,335 C322.8,335 287,299.2 287,255 L287,239 C287,233.5 287.6,228.2 288.6,223 L303,223 C329.2,223 352.4,210.4 367,191 C381.6,210.4 404.8,223 431,223 L445.4,223 C446.4,228.2 447,233.5 447,239 Z M227,303 C234,303 240.7,301.4 246.6,298.4 C264.4,347.7 311.6,383 367,383 C422.4,383 469.7,347.7 487.4,298.4 C493.3,301.3 499.9,303 507,303 C531.3,303 551,283.3 551,259 L551,219 C551,194.7 531.3,175 507,175 C497.7,175 489.1,177.9 482,182.8 C461.2,140.3 417.5,111 367,111 C316.5,111 272.8,140.3 252,182.8 C244.9,177.9 236.3,175 227,175 C202.7,175 183,194.7 183,219 L183,259 C183,283.3 202.7,303 227,303 Z M304.3,431 C215.2,431 143,503.2 143,592.3 C143,609.3 156.8,623 173.7,623 L560.3,623 C577.3,623 591,609.2 591,592.3 C591,503.2 518.8,431 429.7,431 L304.3,431 Z" id="Shape" fill="#10172A" fill-rule="nonzero"></path>
            </g>
            <g id="user-shakespeare-solid" transform="translate(3367.000000, 1894.000000)">
                <circle id="Oval" fill="#F8FAFC" cx="367.5" cy="367.5" r="367.5"></circle>
                <path d="M367,160 C322.8,160 287,195.8 287,240 L287,272 C287,312.1 316.5,345.3 355,351.1 L355,336 C355,329.4 360.4,324 367,324 C373.6,324 379,329.4 379,336 L379,351.1 C417.5,345.3 447,312.1 447,272 L447,240 C447,195.8 411.2,160 367,160 Z M239,240 C239,169.3 296.3,112 367,112 C437.7,112 495,169.3 495,240 L495,263.2 C495,274.1 498.7,284.7 505.5,293.2 L516.6,307 C523.3,315.4 527,325.8 527,336.6 C527,362.8 505.8,384 479.6,384 L429,384 C410.6,394.2 389.5,400 367,400 C344.5,400 323.4,394.2 305,384 L254.4,384 C228.2,384 207,362.8 207,336.6 C207,325.8 210.7,315.4 217.4,307 L228.5,293.1 C235.3,284.6 239,274 239,263.1 L239,240 Z M335,256 C326.2,256 319,248.8 319,240 C319,231.2 326.2,224 335,224 C343.8,224 351,231.2 351,240 C351,248.8 343.8,256 335,256 Z M415,240 C415,248.8 407.8,256 399,256 C390.2,256 383,248.8 383,240 C383,231.2 390.2,224 399,224 C407.8,224 415,231.2 415,240 Z M375.5,279.5 C377.5,281.5 381.5,284.8 386.2,287.6 C391.1,290.5 395.6,292 399,292 C405.6,292 411,297.4 411,304 C411,310.6 405.6,316 399,316 C389.5,316 380.7,312.2 374.2,308.4 C371.7,306.9 369.3,305.3 367.1,303.8 C354.6,313 342,316 335,316 C328.4,316 323,310.6 323,304 C323,297.4 328.4,292 335,292 C337.1,292 347.9,290.1 358.5,279.5 C363.2,274.8 370.8,274.8 375.5,279.5 Z M415,416 C438.9,416 460.8,424.8 477.6,439.2 C543.3,459.6 591,520.9 591,593.2 C591,610.2 577.2,623.90054 560.3,623.90054 L383,623.90054 C383,615.1 375.8,607.9 367,607.9 C358.2,607.9 351,615.1 351,623.90054 L173.7,623.90054 C156.8,624 143,610.2 143,593.3 C143,520.9 190.7,459.7 256.4,439.3 C273.2,424.8 295.1,416 319,416 L415,416 Z M351,560 C351,568.8 358.2,576 367,576 C375.8,576 383,568.8 383,560 C383,551.2 375.8,544 367,544 C358.2,544 351,551.2 351,560 Z M271,512 C297.4,501.4 325.6,496 354.1,496 L379.9,496 C408.4,496 436.6,501.4 463,512 C463,485.5 441.5,464 415,464 L319,464 C292.5,464 271,485.5 271,512 Z" id="Shape" fill="#10172A" fill-rule="nonzero"></path>
            </g>
            <g id="user-robot-solid" transform="translate(2327.000000, 855.000000)">
                <circle id="Oval" fill="#F8FAFC" cx="367.5" cy="367.5" r="367.5"></circle>
                <path d="M368,112 C376.8,112 384,119.2 384,128 L384,176 L448,176 C483.3,176 512,204.7 512,240 L512,368 C512,403.3 483.3,432 448,432 L288,432 C252.7,432 224,403.3 224,368 L224,240 C224,204.7 252.7,176 288,176 L352,176 L352,128 C352,119.2 359.2,112 368,112 Z M160,256 C160,247.2 167.2,240 176,240 C184.8,240 192,247.2 192,256 L192,352 C192,360.8 184.8,368 176,368 C167.2,368 160,360.8 160,352 L160,256 Z M560,240 C568.8,240 576,247.2 576,256 L576,352 C576,360.8 568.8,368 560,368 C551.2,368 544,360.8 544,352 L544,256 C544,247.2 551.2,240 560,240 Z M304,304 C321.7,304 336,289.7 336,272 C336,254.3 321.7,240 304,240 C286.3,240 272,254.3 272,272 C272,289.7 286.3,304 304,304 Z M464,272 C464,254.3 449.7,240 432,240 C414.3,240 400,254.3 400,272 C400,289.7 414.3,304 432,304 C449.7,304 464,289.7 464,272 Z M304,352 C295.2,352 288,359.2 288,368 C288,376.8 295.2,384 304,384 C312.8,384 320,376.8 320,368 C320,359.2 312.8,352 304,352 Z M352,368 C352,376.8 359.2,384 368,384 C376.8,384 384,376.8 384,368 C384,359.2 376.8,352 368,352 C359.2,352 352,359.2 352,368 Z M432,352 C423.2,352 416,359.2 416,368 C416,376.8 423.2,384 432,384 C440.8,384 448,376.8 448,368 C448,359.2 440.8,352 432,352 Z M240,464 L496,464 C549,464 592,507 592,560 L592,592 C592,609.7 577.7,624 560,624 L496,624 L496,560 C496,542.3 481.7,528 464,528 L272,528 C254.3,528 240,542.3 240,560 L240,624 L176,624 C158.3,624 144,609.7 144,592 L144,560 C144,507 187,464 240,464 Z M320,576 L320,624 L288,624 L288,576 C288,567.2 295.2,560 304,560 C312.8,560 320,567.2 320,576 Z M368,560 C376.8,560 384,567.2 384,576 L384,624 L352,624 L352,576 C352,567.2 359.2,560 368,560 Z M448,576 L448,624 L416,624 L416,576 C416,567.2 423.2,560 432,560 C440.8,560 448,567.2 448,576 Z" id="Shape" fill="#10172A" fill-rule="nonzero"></path>
            </g>
            <g id="computer-thin" transform="translate(2376.000000, 407.000000)" fill="#10172A" fill-rule="nonzero">
                <path d="M48,72 C48,58.75 58.75,48 72,48 L376,48 C389.3,48 400,58.75 400,72 L400,280 C400,293.3 389.3,304 376,304 L72,304 C58.75,304 48,293.3 48,280 L48,72 Z M64,72 L64,280 C64,284.4 67.58,288 72,288 L376,288 C380.4,288 384,284.4 384,280 L384,72 C384,67.58 380.4,64 376,64 L72,64 C67.58,64 64,67.58 64,72 Z M172.9,352 L64,352 C28.65,352 0,323.3 0,288 L0,64 C0,28.65 28.65,0 64,0 L384,0 C419.3,0 448,28.65 448,64 L448,288 C448,323.3 419.3,352 384,352 L275.1,352 L301.8,432 L376,432 C380.4,432 384,435.6 384,440 C384,444.4 380.4,448 376,448 L72,448 C67.58,448 64,444.4 64,440 C64,435.6 67.58,432 72,432 L146.2,432 L172.9,352 Z M16,64 L16,288 C16,314.5 37.49,336 64,336 L384,336 C410.5,336 432,314.5 432,288 L432,64 C432,37.49 410.5,16 384,16 L64,16 C37.49,16 16,37.49 16,64 Z M189.8,352 L163.1,432 L284.9,432 L258.2,352 L189.8,352 Z M520,104 C520,99.6 523.6,96 528,96 L592,96 C596.4,96 600,99.6 600,104 C600,108.4 596.4,112 592,112 L528,112 C523.6,112 520,108.4 520,104 Z M592,160 C596.4,160 600,163.6 600,168 C600,172.4 596.4,176 592,176 L528,176 C523.6,176 520,172.4 520,168 C520,163.6 523.6,160 528,160 L592,160 Z M576,304 C576,312.8 568.8,320 560,320 C551.2,320 544,312.8 544,304 C544,295.2 551.2,288 560,288 C568.8,288 576,295.2 576,304 Z M592,0 C618.5,0 640,21.49 640,48 L640,400 C640,426.5 618.5,448 592,448 L528,448 C501.5,448 480,426.5 480,400 L480,48 C480,21.49 501.5,0 528,0 L592,0 Z M592,16 L528,16 C510.3,16 496,30.33 496,48 L496,400 C496,417.7 510.3,432 528,432 L592,432 C609.7,432 624,417.7 624,400 L624,48 C624,30.33 609.7,16 592,16 Z" id="Shape"></path>
            </g>
            <g id="computer-thin" transform="translate(4142.000000, 2038.000000)" fill="#10172A" fill-rule="nonzero">
                <path d="M48,72 C48,58.75 58.75,48 72,48 L376,48 C389.3,48 400,58.75 400,72 L400,280 C400,293.3 389.3,304 376,304 L72,304 C58.75,304 48,293.3 48,280 L48,72 Z M64,72 L64,280 C64,284.4 67.58,288 72,288 L376,288 C380.4,288 384,284.4 384,280 L384,72 C384,67.58 380.4,64 376,64 L72,64 C67.58,64 64,67.58 64,72 Z M172.9,352 L64,352 C28.65,352 0,323.3 0,288 L0,64 C0,28.65 28.65,0 64,0 L384,0 C419.3,0 448,28.65 448,64 L448,288 C448,323.3 419.3,352 384,352 L275.1,352 L301.8,432 L376,432 C380.4,432 384,435.6 384,440 C384,444.4 380.4,448 376,448 L72,448 C67.58,448 64,444.4 64,440 C64,435.6 67.58,432 72,432 L146.2,432 L172.9,352 Z M16,64 L16,288 C16,314.5 37.49,336 64,336 L384,336 C410.5,336 432,314.5 432,288 L432,64 C432,37.49 410.5,16 384,16 L64,16 C37.49,16 16,37.49 16,64 Z M189.8,352 L163.1,432 L284.9,432 L258.2,352 L189.8,352 Z M520,104 C520,99.6 523.6,96 528,96 L592,96 C596.4,96 600,99.6 600,104 C600,108.4 596.4,112 592,112 L528,112 C523.6,112 520,108.4 520,104 Z M592,160 C596.4,160 600,163.6 600,168 C600,172.4 596.4,176 592,176 L528,176 C523.6,176 520,172.4 520,168 C520,163.6 523.6,160 528,160 L592,160 Z M576,304 C576,312.8 568.8,320 560,320 C551.2,320 544,312.8 544,304 C544,295.2 551.2,288 560,288 C568.8,288 576,295.2 576,304 Z M592,0 C618.5,0 640,21.49 640,48 L640,400 C640,426.5 618.5,448 592,448 L528,448 C501.5,448 480,426.5 480,400 L480,48 C480,21.49 501.5,0 528,0 L592,0 Z M592,16 L528,16 C510.3,16 496,30.33 496,48 L496,400 C496,417.7 510.3,432 528,432 L592,432 C609.7,432 624,417.7 624,400 L624,48 C624,30.33 609.7,16 592,16 Z" id="Shape"></path>
            </g>
            <g id="computer-thin" transform="translate(2423.000000, 3668.000000)" fill="#10172A" fill-rule="nonzero">
                <path d="M48,72 C48,58.75 58.75,48 72,48 L376,48 C389.3,48 400,58.75 400,72 L400,280 C400,293.3 389.3,304 376,304 L72,304 C58.75,304 48,293.3 48,280 L48,72 Z M64,72 L64,280 C64,284.4 67.58,288 72,288 L376,288 C380.4,288 384,284.4 384,280 L384,72 C384,67.58 380.4,64 376,64 L72,64 C67.58,64 64,67.58 64,72 Z M172.9,352 L64,352 C28.65,352 0,323.3 0,288 L0,64 C0,28.65 28.65,0 64,0 L384,0 C419.3,0 448,28.65 448,64 L448,288 C448,323.3 419.3,352 384,352 L275.1,352 L301.8,432 L376,432 C380.4,432 384,435.6 384,440 C384,444.4 380.4,448 376,448 L72,448 C67.58,448 64,444.4 64,440 C64,435.6 67.58,432 72,432 L146.2,432 L172.9,352 Z M16,64 L16,288 C16,314.5 37.49,336 64,336 L384,336 C410.5,336 432,314.5 432,288 L432,64 C432,37.49 410.5,16 384,16 L64,16 C37.49,16 16,37.49 16,64 Z M189.8,352 L163.1,432 L284.9,432 L258.2,352 L189.8,352 Z M520,104 C520,99.6 523.6,96 528,96 L592,96 C596.4,96 600,99.6 600,104 C600,108.4 596.4,112 592,112 L528,112 C523.6,112 520,108.4 520,104 Z M592,160 C596.4,160 600,163.6 600,168 C600,172.4 596.4,176 592,176 L528,176 C523.6,176 520,172.4 520,168 C520,163.6 523.6,160 528,160 L592,160 Z M576,304 C576,312.8 568.8,320 560,320 C551.2,320 544,312.8 544,304 C544,295.2 551.2,288 560,288 C568.8,288 576,295.2 576,304 Z M592,0 C618.5,0 640,21.49 640,48 L640,400 C640,426.5 618.5,448 592,448 L528,448 C501.5,448 480,426.5 480,400 L480,48 C480,21.49 501.5,0 528,0 L592,0 Z M592,16 L528,16 C510.3,16 496,30.33 496,48 L496,400 C496,417.7 510.3,432 528,432 L592,432 C609.7,432 624,417.7 624,400 L624,48 C624,30.33 609.7,16 592,16 Z" id="Shape"></path>
            </g>
            <g id="computer-thin" transform="translate(609.000000, 2081.000000)" fill="#10172A" fill-rule="nonzero">
                <path d="M48,72 C48,58.75 58.75,48 72,48 L376,48 C389.3,48 400,58.75 400,72 L400,280 C400,293.3 389.3,304 376,304 L72,304 C58.75,304 48,293.3 48,280 L48,72 Z M64,72 L64,280 C64,284.4 67.58,288 72,288 L376,288 C380.4,288 384,284.4 384,280 L384,72 C384,67.58 380.4,64 376,64 L72,64 C67.58,64 64,67.58 64,72 Z M172.9,352 L64,352 C28.65,352 0,323.3 0,288 L0,64 C0,28.65 28.65,0 64,0 L384,0 C419.3,0 448,28.65 448,64 L448,288 C448,323.3 419.3,352 384,352 L275.1,352 L301.8,432 L376,432 C380.4,432 384,435.6 384,440 C384,444.4 380.4,448 376,448 L72,448 C67.58,448 64,444.4 64,440 C64,435.6 67.58,432 72,432 L146.2,432 L172.9,352 Z M16,64 L16,288 C16,314.5 37.49,336 64,336 L384,336 C410.5,336 432,314.5 432,288 L432,64 C432,37.49 410.5,16 384,16 L64,16 C37.49,16 16,37.49 16,64 Z M189.8,352 L163.1,432 L284.9,432 L258.2,352 L189.8,352 Z M520,104 C520,99.6 523.6,96 528,96 L592,96 C596.4,96 600,99.6 600,104 C600,108.4 596.4,112 592,112 L528,112 C523.6,112 520,108.4 520,104 Z M592,160 C596.4,160 600,163.6 600,168 C600,172.4 596.4,176 592,176 L528,176 C523.6,176 520,172.4 520,168 C520,163.6 523.6,160 528,160 L592,160 Z M576,304 C576,312.8 568.8,320 560,320 C551.2,320 544,312.8 544,304 C544,295.2 551.2,288 560,288 C568.8,288 576,295.2 576,304 Z M592,0 C618.5,0 640,21.49 640,48 L640,400 C640,426.5 618.5,448 592,448 L528,448 C501.5,448 480,426.5 480,400 L480,48 C480,21.49 501.5,0 528,0 L592,0 Z M592,16 L528,16 C510.3,16 496,30.33 496,48 L496,400 C496,417.7 510.3,432 528,432 L592,432 C609.7,432 624,417.7 624,400 L624,48 C624,30.33 609.7,16 592,16 Z" id="Shape"></path>
            </g>
            <text id="Peer-to-peer-network" font-family="ProximaNova-Bold, Proxima Nova" font-size="199" font-weight="bold" fill="#10172A">
                <tspan x="2142.5835" y="2233">Peer to peer</tspan>
                <tspan x="2327.2555" y="2472">network</tspan>
            </text>
            <g id="circle-check-duotone" transform="translate(5183.000000, 1594.000000)" fill-rule="nonzero">
                <path d="M149.702964,69.2886654 C154.099012,73.6735526 154.099012,80.8341941 149.702964,85.2190813 L98.0796532,136.711335 C93.6836056,141.096222 86.5047389,141.096222 82.1086913,136.711335 L56.2970357,110.965208 C51.9009881,106.580321 51.9009881,99.4196793 56.2970357,95.0347921 C60.6930833,90.6499049 67.87195,90.6499049 72.2679976,95.0347921 L90.0941722,112.815711 L133.732002,69.2886654 C138.12805,64.9037782 145.306917,64.9037782 149.702964,69.2886654 L149.702964,69.2886654 Z" id="Path" fill="#00812B"></path>
                <path d="M0,103.5 C0,46.3324219 46.3324219,0 103.5,0 C160.667578,0 207,46.3324219 207,103.5 C207,160.667578 160.667578,207 103.5,207 C46.3324219,207 0,160.667578 0,103.5 Z M150.317578,85.6300781 C154.724414,81.2232422 154.724414,74.0267578 150.317578,69.6199219 C145.910742,65.2130859 138.714258,65.2130859 134.307422,69.6199219 L90.5625,113.364844 L72.6925781,95.4949219 C68.2857422,91.0880859 61.0892578,91.0880859 56.6824219,95.4949219 C52.2755859,99.9017578 52.2755859,107.098242 56.6824219,111.505078 L82.5574219,137.380078 C86.9642578,141.786914 94.1607422,141.786914 98.5675781,137.380078 L150.317578,85.6300781 Z" id="Shape" fill="#08FF51" opacity="0.4"></path>
            </g>
            <g id="circle-check-duotone" transform="translate(3428.000000, 44.000000)" fill-rule="nonzero">
                <path d="M149.702964,69.2886654 C154.099012,73.6735526 154.099012,80.8341941 149.702964,85.2190813 L98.0796532,136.711335 C93.6836056,141.096222 86.5047389,141.096222 82.1086913,136.711335 L56.2970357,110.965208 C51.9009881,106.580321 51.9009881,99.4196793 56.2970357,95.0347921 C60.6930833,90.6499049 67.87195,90.6499049 72.2679976,95.0347921 L90.0941722,112.815711 L133.732002,69.2886654 C138.12805,64.9037782 145.306917,64.9037782 149.702964,69.2886654 L149.702964,69.2886654 Z" id="Path" fill="#00812B"></path>
                <path d="M0,103.5 C0,46.3324219 46.3324219,0 103.5,0 C160.667578,0 207,46.3324219 207,103.5 C207,160.667578 160.667578,207 103.5,207 C46.3324219,207 0,160.667578 0,103.5 Z M150.317578,85.6300781 C154.724414,81.2232422 154.724414,74.0267578 150.317578,69.6199219 C145.910742,65.2130859 138.714258,65.2130859 134.307422,69.6199219 L90.5625,113.364844 L72.6925781,95.4949219 C68.2857422,91.0880859 61.0892578,91.0880859 56.6824219,95.4949219 C52.2755859,99.9017578 52.2755859,107.098242 56.6824219,111.505078 L82.5574219,137.380078 C86.9642578,141.786914 94.1607422,141.786914 98.5675781,137.380078 L150.317578,85.6300781 Z" id="Shape" fill="#08FF51" opacity="0.4"></path>
            </g>
            <g id="circle-check-duotone" transform="translate(0.000000, 1594.000000)" fill-rule="nonzero">
                <path d="M149.702964,69.2886654 C154.099012,73.6735526 154.099012,80.8341941 149.702964,85.2190813 L98.0796532,136.711335 C93.6836056,141.096222 86.5047389,141.096222 82.1086913,136.711335 L56.2970357,110.965208 C51.9009881,106.580321 51.9009881,99.4196793 56.2970357,95.0347921 C60.6930833,90.6499049 67.87195,90.6499049 72.2679976,95.0347921 L90.0941722,112.815711 L133.732002,69.2886654 C138.12805,64.9037782 145.306917,64.9037782 149.702964,69.2886654 L149.702964,69.2886654 Z" id="Path" fill="#00812B"></path>
                <path d="M0,103.5 C0,46.3324219 46.3324219,0 103.5,0 C160.667578,0 207,46.3324219 207,103.5 C207,160.667578 160.667578,207 103.5,207 C46.3324219,207 0,160.667578 0,103.5 Z M150.317578,85.6300781 C154.724414,81.2232422 154.724414,74.0267578 150.317578,69.6199219 C145.910742,65.2130859 138.714258,65.2130859 134.307422,69.6199219 L90.5625,113.364844 L72.6925781,95.4949219 C68.2857422,91.0880859 61.0892578,91.0880859 56.6824219,95.4949219 C52.2755859,99.9017578 52.2755859,107.098242 56.6824219,111.505078 L82.5574219,137.380078 C86.9642578,141.786914 94.1607422,141.786914 98.5675781,137.380078 L150.317578,85.6300781 Z" id="Shape" fill="#08FF51" opacity="0.4"></path>
            </g>
            <g id="circle-check-duotone" transform="translate(3440.000000, 4265.000000)" fill-rule="nonzero">
                <path d="M149.702964,69.2886654 C154.099012,73.6735526 154.099012,80.8341941 149.702964,85.2190813 L98.0796532,136.711335 C93.6836056,141.096222 86.5047389,141.096222 82.1086913,136.711335 L56.2970357,110.965208 C51.9009881,106.580321 51.9009881,99.4196793 56.2970357,95.0347921 C60.6930833,90.6499049 67.87195,90.6499049 72.2679976,95.0347921 L90.0941722,112.815711 L133.732002,69.2886654 C138.12805,64.9037782 145.306917,64.9037782 149.702964,69.2886654 L149.702964,69.2886654 Z" id="Path" fill="#00812B"></path>
                <path d="M0,103.5 C0,46.3324219 46.3324219,0 103.5,0 C160.667578,0 207,46.3324219 207,103.5 C207,160.667578 160.667578,207 103.5,207 C46.3324219,207 0,160.667578 0,103.5 Z M150.317578,85.6300781 C154.724414,81.2232422 154.724414,74.0267578 150.317578,69.6199219 C145.910742,65.2130859 138.714258,65.2130859 134.307422,69.6199219 L90.5625,113.364844 L72.6925781,95.4949219 C68.2857422,91.0880859 61.0892578,91.0880859 56.6824219,95.4949219 C52.2755859,99.9017578 52.2755859,107.098242 56.6824219,111.505078 L82.5574219,137.380078 C86.9642578,141.786914 94.1607422,141.786914 98.5675781,137.380078 L150.317578,85.6300781 Z" id="Shape" fill="#08FF51" opacity="0.4"></path>
            </g>
        </g>
    </g>
</svg>