<?xml version="1.0" encoding="UTF-8"?>
<svg width="4012px" height="1564px" viewBox="0 0 4012 1564" version="1.1" xmlns="http://www.w3.org/2000/svg" xmlns:xlink="http://www.w3.org/1999/xlink">
    <title>FOUR</title>
    <g id="Page-1" stroke="none" stroke-width="1" fill="none" fill-rule="evenodd">
        <g id="FOUR" transform="translate(0.500000, 0.000000)">
            <g id="Group-10" transform="translate(0.000000, 126.000000)">
                <g id="Group-8">
                    <rect id="Rectangle" fill="#DFEFFF" x="0.5" y="0" width="1311" height="1040" rx="14"></rect>
                    <g id="signature-lock-light" transform="translate(487.500000, 104.000000)" fill="#10172A" fill-rule="nonzero">
                        <path d="M33.7,75.9 C33.7,80.5383333 29.9298125,84.3333333 25.275,84.3333333 C20.6201875,84.3333333 16.85,80.5383333 16.85,75.9 L16.85,50.6 C16.85,22.6540417 39.4816563,0 67.4,0 C95.3078125,0 117.95,22.6540417 117.95,50.6 L117.95,52.3920833 C117.95,64.515 117.054844,76.6379167 115.211875,88.6027083 L191.563438,67.7829167 C194.775469,66.886875 198.198125,67.519375 200.304375,70.5764583 C202.410625,73.1064583 202.779219,76.690625 201.304844,79.695 L173.712969,134.933333 L219.05,134.933333 L219.05,139.46625 C213.942344,142.417917 209.677188,146.687292 206.728438,151.8 L160.075,151.8 C157.178906,151.8 154.440781,150.271458 152.91375,147.794167 C151.386719,145.316875 151.22875,142.207083 152.545156,139.571667 L177.820156,89.024375 L111.736563,107.050625 C110.946719,110.476667 109.577656,113.955417 109.10375,117.381458 L105.3125,130.9275 C99.3623438,152.537917 90.779375,173.357708 79.7742188,192.438125 L65.504375,218.265208 C59.2909375,229.28125 47.6539063,236.133333 35.005875,236.133333 C15.6705,236.133333 0,220.42625 0,201.082292 L0,152.274375 C0,133.246667 12.7164844,116.590833 31.0408594,111.583542 L97.30875,93.5045833 C99.83625,79.9585417 101.1,66.2016667 101.1,52.3920833 L101.1,50.6 C101.1,31.9676042 85.9876563,16.8666667 67.4,16.8666667 C48.7860156,16.8666667 33.7,31.9676042 33.7,50.6 L33.7,75.9 Z M16.85,152.274375 L16.85,201.082292 C16.85,211.149583 24.980125,219.266667 35.005875,219.266667 C41.5668438,219.266667 47.6117813,215.735208 50.8290781,209.99 L65.083125,184.637292 C75.40375,166.294792 83.4601563,146.74 89.094375,126.447292 L92.885625,112.848542 L93.0435938,112.110625 L35.4745156,127.870417 C24.4798906,130.874792 16.85,140.836667 16.85,152.274375 L16.85,152.274375 Z M126.375,185.533333 L202.2,185.533333 L202.2,202.4 L126.375,202.4 C121.74125,202.4 117.95,198.605 117.95,193.966667 C117.95,189.328333 121.74125,185.533333 126.375,185.533333 Z M278.025,84.3333333 C301.299062,84.3333333 320.15,103.202917 320.15,126.5 L320.15,151.8 C329.470156,151.8 337,159.337292 337,168.666667 L337,236.133333 C337,245.462708 329.470156,253 320.15,253 L235.9,253 C226.579844,253 219.05,245.462708 219.05,236.133333 L219.05,168.666667 C219.05,159.337292 226.579844,151.8 235.9,151.8 L235.9,126.5 C235.9,103.202917 254.750937,84.3333333 278.025,84.3333333 Z M278.025,101.2 C264.071094,101.2 252.75,112.532292 252.75,126.5 L252.75,151.8 L303.3,151.8 L303.3,126.5 C303.3,112.532292 291.978906,101.2 278.025,101.2 Z M320.15,168.666667 L235.9,168.666667 L235.9,236.133333 L320.15,236.133333 L320.15,168.666667 Z" id="Shape"></path>
                    </g>
                    <text id="Verified" font-family="ProximaNova-Bold, Proxima Nova" font-size="144" font-weight="bold" fill="#10172A">
                        <tspan x="399.032" y="1282">Verified</tspan>
                    </text>
                    <text id="Eki-€-2000,-Dwi-€-19" font-family="ProximaNova-Bold, Proxima Nova" font-size="144" font-weight="bold" fill="#10172A">
                        <tspan x="274.18" y="560">Eki € 2000, </tspan>
                        <tspan x="262.084" y="733">Dwi € 1900, </tspan>
                        <tspan x="349.348" y="906">Tri € 900</tspan>
                    </text>
                </g>
                <g id="circle-check-duotone" transform="translate(1042.500000, 63.000000)" fill-rule="nonzero">
                    <path d="M149.702964,69.2886654 C154.099012,73.6735526 154.099012,80.8341941 149.702964,85.2190813 L98.0796532,136.711335 C93.6836056,141.096222 86.5047389,141.096222 82.1086913,136.711335 L56.2970357,110.965208 C51.9009881,106.580321 51.9009881,99.4196793 56.2970357,95.0347921 C60.6930833,90.6499049 67.87195,90.6499049 72.2679976,95.0347921 L90.0941722,112.815711 L133.732002,69.2886654 C138.12805,64.9037782 145.306917,64.9037782 149.702964,69.2886654 L149.702964,69.2886654 Z" id="Path" fill="#00812B"></path>
                    <path d="M0,103.5 C0,46.3324219 46.3324219,0 103.5,0 C160.667578,0 207,46.3324219 207,103.5 C207,160.667578 160.667578,207 103.5,207 C46.3324219,207 0,160.667578 0,103.5 Z M150.317578,85.6300781 C154.724414,81.2232422 154.724414,74.0267578 150.317578,69.6199219 C145.910742,65.2130859 138.714258,65.2130859 134.307422,69.6199219 L90.5625,113.364844 L72.6925781,95.4949219 C68.2857422,91.0880859 61.0892578,91.0880859 56.6824219,95.4949219 C52.2755859,99.9017578 52.2755859,107.098242 56.6824219,111.505078 L82.5574219,137.380078 C86.9642578,141.786914 94.1607422,141.786914 98.5675781,137.380078 L150.317578,85.6300781 Z" id="Shape" fill="#08FF51" opacity="0.4"></path>
                </g>
            </g>
            <g id="Group-6" transform="translate(1451.500000, 682.000000)">
                <path id="Line-3" d="M422.089212,370.499878 C425.874663,370.502122 428.956528,373.508733 429.081145,377.263374 L429.085061,377.504026 L429.041,451.115 L454.627241,451.130439 C456.993423,451.131842 458.923666,452.994739 459.033841,455.333362 L459.038805,455.547236 C459.038399,456.232516 458.878447,456.90829 458.571617,457.521041 L458.571617,457.521041 L425.947656,522.672385 C424.856109,524.852249 422.204106,525.734504 420.024242,524.642956 C419.17023,524.215317 418.477957,523.522223 418.051331,522.667704 L418.051331,522.667704 L385.504632,457.47773 C384.415669,455.296573 385.301068,452.645618 387.482224,451.556655 C388.095339,451.250552 388.771302,451.091402 389.456582,451.091808 L389.456582,451.091808 L415.041,451.106 L415.085064,377.495728 C415.087355,373.629735 418.223219,370.497587 422.089212,370.499878 Z M422.172199,230.499903 C425.95765,230.502147 429.039516,233.508757 429.164132,237.263399 L429.168049,237.504051 L429.108772,337.504033 C429.10648,341.370026 425.970616,344.502174 422.104624,344.499883 C418.319173,344.497639 415.237307,341.491028 415.112691,337.736387 L415.108774,337.495735 L415.168051,237.495752 C415.170343,233.62976 418.306207,230.497611 422.172199,230.499903 Z M422.255187,90.4999274 C426.040638,90.5021713 429.122503,93.5087821 429.24712,97.2634235 L429.251036,97.5040756 L429.191759,197.504058 C429.189468,201.370051 426.053604,204.502199 422.187611,204.499907 C418.40216,204.497664 415.320295,201.491053 415.195678,197.736411 L415.191762,197.495759 L415.251039,97.4957768 C415.25333,93.6297843 418.389194,90.4976358 422.255187,90.4999274 Z M422.338174,-49.500048 C426.123625,-49.4978041 429.205491,-46.4911933 429.330107,-42.7365519 L429.334024,-42.4958998 L429.274747,57.5040826 C429.272455,61.3700752 426.136591,64.5022236 422.270599,64.499932 C418.485148,64.4976881 415.403282,61.4910774 415.278666,57.736436 L415.274749,57.4957839 L415.334026,-42.5041986 C415.336318,-46.3701911 418.472182,-49.5023396 422.338174,-49.500048 Z M422.421162,-189.500023 C426.206613,-189.497779 429.288478,-186.491169 429.413095,-182.736527 L429.417011,-182.495875 L429.357734,-82.4958928 C429.355443,-78.6299002 426.219579,-75.4977518 422.353586,-75.5000434 C418.568135,-75.5022873 415.48627,-78.508898 415.361653,-82.2635394 L415.357737,-82.5041915 L415.417014,-182.504174 C415.419305,-186.370167 418.555169,-189.502315 422.421162,-189.500023 Z M422.504149,-329.499999 C426.2896,-329.497755 429.371466,-326.491144 429.496082,-322.736503 L429.499999,-322.495851 L429.440722,-222.495868 C429.43843,-218.629876 426.302566,-215.497727 422.436574,-215.500019 C418.651123,-215.502263 415.569257,-218.508873 415.444641,-222.263515 L415.440724,-222.504167 L415.500001,-322.504149 C415.502293,-326.370142 418.638157,-329.50229 422.504149,-329.499999 Z" transform="translate(422.000000, 99.000000) scale(1, -1) rotate(270.000000) translate(-422.000000, -99.000000) " fill="#10172A" fill-rule="nonzero"></path>
                <rect id="Rectangle" fill="#DFEFFF" x="109" y="13" width="569" height="187" rx="8"></rect>
                <text id="Add" font-family="ProximaNova-Bold, Proxima Nova" font-size="144" font-weight="bold" fill="#10172A">
                    <tspan x="260.868" y="143">Add</tspan>
                </text>
            </g>
            <g id="cube-thin" transform="translate(2435.500000, 0.000000)" fill="#10172A" fill-rule="nonzero">
                <path d="M746.753125,7.09012779 C773.532813,-2.36337593 802.467187,-2.36337593 829.246875,7.09012779 L1494.12187,243.018305 C1543.06406,260.472348 1576,307.047246 1576,359.07076 L1576,1204.99158 C1576,1257.01509 1543.06406,1303.49764 1494.12187,1321.04403 L829.246875,1556.84292 C802.467187,1566.38569 773.532813,1566.38569 746.753125,1556.84292 L81.9396875,1321.04403 C32.8128125,1303.49764 0,1257.01509 0,1204.99158 L0,359.07076 C0,307.047246 32.8128125,260.472348 81.9396875,243.018305 L746.753125,7.09012779 Z M812.625,53.5172666 C796.61875,47.8223848 779.38125,47.8223848 760.604687,53.5172666 L98.4076562,289.439287 C83.2940625,294.795554 70.7660937,302.121943 62.1473437,317.513515 L788,607.798569 L1513.82187,317.513515 C1505.20312,302.121943 1492.58281,294.795554 1477.5,289.439287 L812.625,53.5172666 Z M98.4076563,1274.56148 L763.375,1510.6682 C763.375,1510.6682 760.604687,1510.6682 763.375,1510.6682 L763.375,650.894972 L49.25,365.227389 L49.25,1204.99158 C49.25,1236.39038 68.95,1264.09521 98.4076563,1274.56148 Z M812.625,1510.6682 C809.854688,1510.6682 812.625,1510.6682 812.625,1510.6682 L1477.5,1274.56148 C1507.05,1264.09521 1526.75,1236.39038 1526.75,1204.99158 L1526.75,365.227389 L812.625,650.894972 L812.625,1510.6682 Z" id="Shape"></path>
            </g>
            <g id="Group-12" transform="translate(2893.500000, 244.000000)">
                <g id="Group-11">
                    <rect id="Rectangle" fill="#DFEFFF" x="0" y="0" width="659" height="420" rx="14"></rect>
                    <text id="…..-other-transactio" font-family="ProximaNova-Bold, Proxima Nova" font-size="100" font-weight="bold" fill="#10172A">
                        <tspan x="265.4" y="99">…..</tspan>
                        <tspan x="209.2" y="219">other </tspan>
                        <tspan x="51.45" y="339">transactions</tspan>
                    </text>
                </g>
                <g id="Group-11" transform="translate(1.000000, 472.000000)">
                    <rect id="Rectangle" fill="#DFEFFF" x="0" y="0" width="659" height="604" rx="14"></rect>
                    <g id="signature-lock-light" transform="translate(241.000000, 41.000000)" fill="#10172A" fill-rule="nonzero">
                        <path d="M17.7,39.9 C17.7,42.3383333 15.7198125,44.3333333 13.275,44.3333333 C10.8301875,44.3333333 8.85,42.3383333 8.85,39.9 L8.85,26.6 C8.85,11.9090417 20.7366563,0 35.4,0 C50.0578125,0 61.95,11.9090417 61.95,26.6 L61.95,27.5420833 C61.95,33.915 61.4798438,40.2879167 60.511875,46.5777083 L100.613438,35.6329167 C102.300469,35.161875 104.098125,35.494375 105.204375,37.1014583 C106.310625,38.4314583 106.504219,40.315625 105.729844,41.895 L91.2379688,70.9333333 L115.05,70.9333333 L115.05,73.31625 C112.367344,74.8679167 110.127188,77.1122917 108.578438,79.8 L84.075,79.8 C82.5539063,79.8 81.1157813,78.9964583 80.31375,77.6941667 C79.5117188,76.391875 79.42875,74.7570833 80.1201563,73.3716667 L93.3951563,46.799375 L58.6865625,56.275625 C58.2717188,58.0766667 57.5526563,59.9054167 57.30375,61.7064583 L55.3125,68.8275 C52.1873438,80.1879167 47.679375,91.1327083 41.8992188,101.163125 L34.404375,114.740208 C31.1409375,120.53125 25.0289063,124.133333 18.385875,124.133333 C8.2305,124.133333 0,115.87625 0,105.707292 L0,80.049375 C0,70.0466667 6.67898438,61.2908333 16.3033594,58.6585417 L51.10875,49.1545833 C52.43625,42.0335417 53.1,34.8016667 53.1,27.5420833 L53.1,26.6 C53.1,16.8051042 45.1626563,8.86666667 35.4,8.86666667 C25.6235156,8.86666667 17.7,16.8051042 17.7,26.6 L17.7,39.9 Z M8.85,80.049375 L8.85,105.707292 C8.85,110.999583 13.120125,115.266667 18.385875,115.266667 C21.8318438,115.266667 25.0067813,113.410208 26.6965781,110.39 L34.183125,97.0622917 C39.60375,87.4197917 43.8351563,77.14 46.794375,66.4722917 L48.785625,59.3235417 L48.8685938,58.935625 L18.6320156,67.2204167 C12.8573906,68.7997917 8.85,74.0366667 8.85,80.049375 L8.85,80.049375 Z M66.375,97.5333333 L106.2,97.5333333 L106.2,106.4 L66.375,106.4 C63.94125,106.4 61.95,104.405 61.95,101.966667 C61.95,99.5283333 63.94125,97.5333333 66.375,97.5333333 Z M146.025,44.3333333 C158.249062,44.3333333 168.15,54.2529167 168.15,66.5 L168.15,79.8 C173.045156,79.8 177,83.7622917 177,88.6666667 L177,124.133333 C177,129.037708 173.045156,133 168.15,133 L123.9,133 C119.004844,133 115.05,129.037708 115.05,124.133333 L115.05,88.6666667 C115.05,83.7622917 119.004844,79.8 123.9,79.8 L123.9,66.5 C123.9,54.2529167 133.800937,44.3333333 146.025,44.3333333 Z M146.025,53.2 C138.696094,53.2 132.75,59.1572917 132.75,66.5 L132.75,79.8 L159.3,79.8 L159.3,66.5 C159.3,59.1572917 153.353906,53.2 146.025,53.2 Z M168.15,88.6666667 L123.9,88.6666667 L123.9,124.133333 L168.15,124.133333 L168.15,88.6666667 Z" id="Shape"></path>
                    </g>
                    <text id="Eki-€-2000,-Dwi-€-19" font-family="ProximaNova-Bold, Proxima Nova" font-size="100" font-weight="bold" fill="#10172A">
                        <tspan x="64" y="283">Eki € 2000, </tspan>
                        <tspan x="55.6" y="403">Dwi € 1900, </tspan>
                        <tspan x="116.2" y="523">Tri € 900</tspan>
                    </text>
                </g>
            </g>
        </g>
    </g>
</svg>