<svg id="Productie" xmlns="http://www.w3.org/2000/svg" viewBox="0 0 48 48"><title>download.colors-blue</title><path id="Download" d="M39.9,15.21a1.46,1.46,0,0,0-.37-.73L29.78,4.73A1.49,1.49,0,0,0,28.5,4h-15A1.5,1.5,0,0,0,12,5.5V28.88L7.08,24A1.5,1.5,0,0,0,5,26.08l7.48,7.48a1.5,1.5,0,0,0,.49.33h0a1.49,1.49,0,0,0,.55.11h0a1.49,1.49,0,0,0,.55-.11h0a1.5,1.5,0,0,0,.49-.32h0L22,26.08A1.5,1.5,0,0,0,22,24h0a1.5,1.5,0,0,0-2.12,0L15,28.88V7H27.81L37,16.19V41H15V39.5a1.5,1.5,0,0,0-3,0v3A1.5,1.5,0,0,0,13.5,44h25A1.5,1.5,0,0,0,40,42.5V15.73A1.49,1.49,0,0,0,39.9,15.21Z"/></svg>