<?xml version="1.0" encoding="utf-8"?>
<!-- Generator: Adobe Illustrator 19.2.0, SVG Export Plug-In . SVG Version: 6.00 Build 0)  -->
<svg version="1.1" id="cupmedal" xmlns="http://www.w3.org/2000/svg" xmlns:xlink="http://www.w3.org/1999/xlink" x="0px" y="0px"
	 viewBox="0 0 207.8526 212.5117" enable-background="new 0 0 207.8526 212.5117" xml:space="preserve">
<g>
	<polygon fill="#D8D8D8" points="68.0182,184.5117 48.0182,184.5117 48.0182,204.5117 160.0182,204.5117 160.0182,184.5117 
		140.0182,184.5117 	"/>
	<polygon fill="#D8D8D8" points="74.4909,176.5117 133.5455,176.5117 129.5455,168.5117 78.4909,168.5117 	"/>
	<path fill="#D8D8D8" d="M105.1354,67.8086l-1.1172-2.2617l-1.1172,2.2617c-0.582,1.1797-1.709,2-3.0117,2.1875l-2.4941,0.3633
		l1.8066,1.7617c0.9414,0.918,1.3711,2.2422,1.1504,3.5391l-0.4258,2.4844l2.2305-1.1719c0.582-0.3086,1.2227-0.4609,1.8613-0.4609
		s1.2793,0.1523,1.8613,0.4609l2.2305,1.1719l-0.4258-2.4844c-0.2207-1.2969,0.209-2.6211,1.1504-3.5391l1.8066-1.7617
		l-2.4941-0.3633C106.8444,69.8086,105.7174,68.9883,105.1354,67.8086z"/>
	<path fill="#D8D8D8" d="M62.9459,8l-8.1113,102.543c-0.6934,8.7617,5.8945,18.0352,14.3848,20.25l34.7988,9.0742l34.7988-9.0742
		c8.6367-2.25,15.0898-11.3359,14.3848-20.25L145.0905,8H62.9459z M122.028,70.4297l-6.1035,5.9492l1.4414,8.4023
		c0.2559,1.5-0.3613,3.0156-1.5918,3.9102c-0.6973,0.5078-1.5234,0.7656-2.3516,0.7656c-0.6367,0-1.2754-0.1523-1.8613-0.4609
		l-7.543-3.9648l-7.543,3.9648c-1.3398,0.7109-2.9766,0.5938-4.2129-0.3047c-1.2305-0.8945-1.8477-2.4102-1.5918-3.9102
		l1.4414-8.4023l-6.1035-5.9492c-1.0898-1.0625-1.4824-2.6523-1.0117-4.1016c0.4707-1.4453,1.7227-2.5,3.2305-2.7188l8.4316-1.2266
		l3.7734-7.6406c1.3477-2.7344,5.8242-2.7344,7.1719,0l3.7734,7.6406l8.4316,1.2266c1.5078,0.2188,2.7598,1.2734,3.2305,2.7188
		C123.5104,67.7773,123.1178,69.3672,122.028,70.4297z"/>
	<path fill="#535353" d="M207.7252,16.1875c-0.1699-2.0781-1.9043-3.6758-3.9863-3.6758h-38.2617
		c-1.0332,0-2.0254,0.3984-2.7715,1.1133l-8.4993,8.1636l-1.4324-18.105C152.608,1.6055,150.8717,0,148.7858,0H59.2506
		c-2.0859,0-3.8223,1.6055-3.9883,3.6836L53.817,21.9507l-8.668-8.3257c-0.7461-0.7148-1.7383-1.1133-2.7715-1.1133H4.1139
		c-2.082,0-3.8164,1.5977-3.9863,3.6758c-0.1868,2.2749-3.9229,55.8518,47.033,89.9001l-0.3025,3.8225
		c-0.9961,12.5977,8.1289,25.4414,20.3418,28.625l32.8184,8.5564v13.4202h-24c-1.5156,0-2.9004,0.8555-3.5781,2.2109
		l-6.8945,13.7891H44.0182c-2.209,0-4,1.7891-4,4v28c0,2.2109,1.791,4,4,4h120c2.209,0,4-1.7891,4-4v-28c0-2.2109-1.791-4-4-4
		h-21.5273l-6.8945-13.7891c-0.6777-1.3555-2.0625-2.2109-3.5781-2.2109h-24v-13.4202l32.8184-8.5564
		c12.418-3.2383,21.3535-15.8086,20.3418-28.625l-0.312-3.9431C211.6351,71.9131,207.9118,18.4597,207.7252,16.1875z
		 M160.0182,204.5117h-112v-20h20h72h20V204.5117z M129.5455,168.5117l4,8H74.4909l4-8H129.5455z M8.0397,20.5117h32.7285
		l12.233,11.7527l-5.1025,64.4949C11.8659,70.3379,8.2238,32.3779,8.0397,20.5117z M138.817,130.793l-34.7988,9.0742
		l-34.7988-9.0742c-8.4902-2.2148-15.0781-11.4883-14.3848-20.25L62.9459,8h82.1445l8.1113,102.543
		C153.9069,119.457,147.4538,128.543,138.817,130.793z M160.1281,96.6348l-5.1057-64.5325l12.0642-11.5906h32.7363
		C199.6691,32.3418,196.1156,70.1501,160.1281,96.6348z"/>
	<path fill="#535353" d="M119.8092,63.6094l-8.4316-1.2266l-3.7734-7.6406c-1.3477-2.7344-5.8242-2.7344-7.1719,0l-3.7734,7.6406
		l-8.4316,1.2266c-1.5078,0.2188-2.7598,1.2734-3.2305,2.7188c-0.4707,1.4492-0.0781,3.0391,1.0117,4.1016l6.1035,5.9492
		l-1.4414,8.4023c-0.2559,1.5,0.3613,3.0156,1.5918,3.9102c1.2363,0.8984,2.873,1.0156,4.2129,0.3047l7.543-3.9648l7.543,3.9648
		c0.5859,0.3086,1.2246,0.4609,1.8613,0.4609c0.8281,0,1.6543-0.2578,2.3516-0.7656c1.2305-0.8945,1.8477-2.4102,1.5918-3.9102
		l-1.4414-8.4023l6.1035-5.9492c1.0898-1.0625,1.4824-2.6523,1.0117-4.1016C122.569,64.8828,121.317,63.8281,119.8092,63.6094z
		 M108.8346,72.1211c-0.9414,0.918-1.3711,2.2422-1.1504,3.5391l0.4258,2.4844l-2.2305-1.1719
		c-0.582-0.3086-1.2227-0.4609-1.8613-0.4609s-1.2793,0.1523-1.8613,0.4609l-2.2305,1.1719l0.4258-2.4844
		c0.2207-1.2969-0.209-2.6211-1.1504-3.5391l-1.8066-1.7617l2.4941-0.3633c1.3027-0.1875,2.4297-1.0078,3.0117-2.1875l1.1172-2.2617
		l1.1172,2.2617c0.582,1.1797,1.709,2,3.0117,2.1875l2.4941,0.3633L108.8346,72.1211z"/>
</g>
</svg>
