<?xml version="1.0" encoding="UTF-8" standalone="no"?>
<svg width="16px" height="16px" viewBox="0 0 16 16" version="1.1" xmlns="http://www.w3.org/2000/svg" xmlns:xlink="http://www.w3.org/1999/xlink">
    <!-- Generator: Sketch 43.2 (39069) - http://www.bohemiancoding.com/sketch -->
    <title>phone</title>
    <desc>Created with Sketch.</desc>
    <defs></defs>
    <g id="Page-1" stroke="none" stroke-width="1" fill="none" fill-rule="evenodd">
        <g id="phone" fill-rule="nonzero" fill="#FFFFFF">
            <path d="M15.8525527,12.3334802 L13.0418705,9.52279807 C12.9337816,9.41470918 12.762744,9.40110531 12.6395362,9.49290048 L10.6190222,10.9862647 C10.3314242,11.1988251 9.87504541,11.1653101 9.62247729,10.9131749 L5.03024541,6.32078841 C4.77783188,6.06837488 4.74431691,5.61215072 4.95703188,5.32442899 L6.45055072,3.30388406 C6.54157295,3.18070725 6.52874203,3.00951498 6.42049855,2.90142609 L3.60981643,0.0907130435 C3.49341063,-0.0255072464 3.3062029,-0.0309487923 3.18438647,0.0795516908 L1.22515169,1.84282899 C-0.220351691,3.14357488 -0.413897585,5.43162126 0.789457005,6.9521314 C0.894825121,7.11880966 1.58732367,8.12484638 4.70294879,11.2404715 C7.80682512,14.3443478 8.81375845,15.0406184 8.98541449,15.1496039 C9.65283865,15.6900483 10.4725952,15.9539633 11.2936812,15.9539633 C12.3291517,15.9536541 13.366601,15.5336657 14.1004367,14.7181449 L15.8637449,12.7589101 C15.9737816,12.63663 15.9688039,12.4497314 15.8525527,12.3334802 Z M13.6409043,14.3044947 C12.5379401,15.5300483 10.6182493,15.6882551 9.36115942,14.6580406 C9.34925604,14.648085 9.3341372,14.6378203 9.32071884,14.6299671 C9.28522512,14.6088502 8.41142415,14.0744348 5.14015845,10.8032928 C1.86811981,7.53094493 1.33113816,6.65383575 1.31135072,6.62090821 C1.303343,6.60671691 1.29428406,6.59345314 1.28417391,6.58074589 C0.268459903,5.31144348 0.427594203,3.3923401 1.63880193,2.30239227 L3.38003478,0.735350725 L5.79502995,3.1501913 L4.45974879,4.95666087 C4.06211401,5.49472464 4.12067246,6.28575845 4.59303575,6.75799807 L9.18529855,11.3503845 C9.65750725,11.8226242 10.4488812,11.8814918 10.9866048,11.4832386 L12.7929198,10.1483903 L15.2079459,12.5632618 L13.6409043,14.3044947 Z" id="Shape"></path>
        </g>
    </g>
</svg>